<svg width="490" height="490" viewBox="0 0 490 490" fill="none" xmlns="http://www.w3.org/2000/svg">
<g clip-path="url(#clip0_438_2640)">
<rect x="75" y="-10" width="180" height="489" fill="#6248FF" fill-opacity="0.1"/>
<path d="M87.7828 291.954C91.0147 317.135 81.7123 339.072 67.0056 340.964C52.2989 342.851 37.7569 323.971 34.525 298.794C31.2883 273.615 40.5954 251.675 55.2992 249.785C70.0059 247.9 84.549 266.775 87.7828 291.954Z" fill="#3E1035"/>
<path d="M138.282 178.699L156.117 204.638L155.631 207.151L155.201 206.655L137.267 185.825L119.609 185.207L118.581 173.443L138.282 178.699Z" fill="#00ABB1"/>
<path d="M423.416 205.229L276.324 253.257L139.206 199.429L195.353 124.723L322.724 136.787L392.476 149.548C392.476 149.548 416.363 181.398 423.416 205.229Z" fill="#3E1035"/>
<path opacity="0.1" d="M286.046 187.045L164.632 191.249L164.824 196.813L286.239 192.609L286.046 187.045Z" fill="white"/>
<path opacity="0.1" d="M262.415 174.136L196.835 179.492L197.289 185.043L262.869 179.687L262.415 174.136Z" fill="white"/>
<path d="M195.352 124.723L316.151 161.412L263.311 236.79L139.205 199.429L0 251.402L18.5616 297.8L195.816 352.091L406.463 267.176V267.157L418.544 262.295C418.544 262.295 417.171 212.922 441.746 206.388C460.305 201.449 471.906 227.269 471.906 227.269L490 185.509C490 185.509 353.582 86.6754 195.352 124.723ZM313.63 227.16L277.391 238.52L319.781 169.405L313.63 227.16ZM321.174 224.793L324.135 162.624L386.529 159.989C386.529 159.989 397.943 174.689 404.995 198.52L321.174 224.793Z" fill="#81D6DE"/>
<path d="M293.665 215.786L273.307 239.799L273.538 242.35L274.013 241.902L293.956 222.978L311.587 224.139L313.792 212.537L293.665 215.786Z" fill="#00ABB1"/>
<path d="M66.7695 275.873L102.696 285.504L78.8855 297.8L66.7695 275.873Z" fill="#FF5628"/>
<path d="M78.8857 282.372L86.7736 284.461L81.552 289.101L87.2368 290.028L78.8857 295.372L81.4372 290.607L77.3765 291.538L78.8857 282.372Z" fill="#00ABB1"/>
<path d="M11.1382 256.968L51.0426 270.89V283.88L18.0996 275.993L11.1382 256.968Z" fill="white"/>
<path d="M21.4226 279.217L20.8818 279.095L22.3317 284.768L47.3323 292.08L49.188 285.428L21.4226 279.217Z" fill="#E96AD0"/>
<path d="M116.935 286.66L164.728 300.883L161.015 317.753L122.598 305.847L116.935 286.66Z" fill="white"/>
<path d="M127.218 312.933L126.679 312.811L128.129 318.49L153.125 325.797L154.984 319.149L127.218 312.933Z" fill="#E96AD0"/>
<path d="M409.119 265.983C401.09 237.611 416.013 215.093 418.538 211.56L391.42 157.838L393.076 157.004L420.718 211.759L420.355 212.221C420.177 212.451 402.459 235.629 410.906 265.475L409.119 265.983Z" fill="#00ABB1"/>
<path d="M400.909 157.668L417.15 196.413L482.113 185.045C482.113 185.045 438.09 154.385 400.909 157.668Z" fill="#00ABB1"/>
<path d="M409.438 152.847L404.467 155.355L425.812 197.656L430.783 195.148L409.438 152.847Z" fill="#81D6DE"/>
<path d="M423.868 155.186L419.056 157.99L440.863 195.418L445.675 192.615L423.868 155.186Z" fill="#81D6DE"/>
<path d="M441.043 159.206L436.221 161.988L454.162 193.077L458.983 190.295L441.043 159.206Z" fill="#81D6DE"/>
<path d="M458.154 166.939L453.521 170.028L467.751 191.375L472.385 188.286L458.154 166.939Z" fill="#81D6DE"/>
<path d="M261.746 240.551L260.652 239.051L179.545 298.181L6.74625 250.506L6.25146 252.296L179.029 299.961L199.277 353.985L201.015 353.334L180.847 299.532L261.746 240.551Z" fill="#00ABB1"/>
<path d="M383.278 222.577L382.184 222.966L380.717 210.917L403.994 203.478L404.158 204.552C405.643 214.463 384.187 222.242 383.278 222.577Z" fill="#FF5628"/>
<path d="M317.836 227.445H315.98V303.282H317.836V227.445Z" fill="#00ABB1"/>
<path d="M470.206 251.814C472.889 272.698 465.171 290.903 452.968 292.473C440.764 294.037 428.702 278.372 426.022 257.483C423.34 236.592 431.057 218.393 443.258 216.825C455.459 215.258 467.525 230.922 470.206 251.814Z" fill="#3E1035"/>
<path d="M458.958 255.261C461.221 264.523 459.924 272.794 456.056 273.741C452.191 274.684 447.221 267.94 444.961 258.681C442.697 249.419 443.996 241.142 447.863 240.2C451.73 239.251 456.696 245.993 458.958 255.261Z" fill="#FF9340"/>
<path d="M440.815 201.75C419.008 205.462 413.901 259.125 413.901 259.125L275.286 315.152C269.662 303.249 251.67 270.115 227.987 275.873C203.912 281.727 206.215 327.668 207.611 342.506L197.672 346.523L6.49805 282.88L12.5312 312.649L200.457 356.731L421.79 263.362C421.79 263.362 420.4 217.526 439.425 210.103C458.448 202.679 471.441 236.086 471.441 236.086L478.401 230.646C478.401 230.646 462.625 198.038 440.815 201.75Z" fill="#FF5628"/>
<path d="M266.428 324.852C269.66 350.031 260.357 371.972 245.65 373.864C230.942 375.747 216.403 356.867 213.171 331.69C209.937 306.511 219.239 284.571 233.946 282.683C248.652 280.796 263.194 299.675 266.428 324.852Z" fill="#3E1035"/>
<path d="M253.087 329.747C256.002 341.676 254.329 352.329 249.35 353.545C244.372 354.764 237.972 346.078 235.057 334.15C232.146 322.219 233.817 311.562 238.796 310.348C243.775 309.132 250.173 317.816 253.087 329.747Z" fill="#FF9340"/>
</g>
<defs>
<clipPath id="clip0_438_2640">
<rect width="490" height="490" fill="white"/>
</clipPath>
</defs>
</svg>
