<svg width="333" height="368" viewBox="0 0 333 368" fill="none" xmlns="http://www.w3.org/2000/svg">
<path d="M41.2541 59.7867C101.219 55.7064 160.758 58.837 220.105 65.226C229.862 66.2764 238.25 73.5853 240.833 83.2966C266.235 178.81 270.994 220.045 283.523 308.688C284.893 318.38 278.892 325.171 269.44 325.7C210.787 328.981 151.72 330.071 90.5888 320.261C80.7875 318.688 71.894 311.912 69.8607 302.19C50.97 211.867 39.3342 170.643 27.1708 76.7985C25.9158 67.1161 31.8326 60.4277 41.2541 59.7867Z" fill="#FFC517"/>
<path d="M131.214 53.4095C105.182 52.4771 79.0826 52.6905 52.8901 54.4807C44.6595 55.0432 39.4913 60.8967 40.5883 69.3687C51.2209 151.483 65.3503 209.034 81.8595 288.066C83.6365 296.572 91.4062 302.5 99.9687 303.874C136.713 309.773 172.594 311.108 208.1 310.459L264.684 267.139C255.435 202.574 246.766 148.521 227.243 75.0189C224.986 66.5217 217.658 60.1279 209.134 59.2105C183.211 56.4201 157.247 54.3419 131.214 53.4095Z" fill="#7738C7"/>
<path d="M133.395 97.3973C133.395 97.3973 183.436 94.9696 185.574 98.3155C187.712 101.661 189.459 107.22 184.743 107.729C180.028 108.238 137.019 107.131 135.312 106.283C133.604 105.435 128.734 97.4909 133.395 97.3973Z" fill="white"/>
<path d="M138.693 114.761C138.693 114.761 214.781 117.895 216.27 120.169C217.758 122.443 216.24 123.093 211.987 122.741C207.734 122.39 141.32 119.046 138.251 118.637C135.182 118.227 133.708 114.492 138.693 114.761Z" fill="#FFC517"/>
<path d="M139.729 131.794C139.729 131.794 172.991 132.601 174.486 134.973C175.981 137.346 174.459 138.025 170.191 137.664C165.923 137.303 142.368 136.265 139.288 135.842C136.209 135.418 134.728 131.519 139.729 131.794Z" fill="#FFC517"/>
<path d="M81.4313 109.776C89.5334 108.55 97.55 109.213 105.533 110.623C109.494 111.322 112.668 114.023 113.876 117.908C116.098 125.055 117.483 132.267 117.897 139.554C118.115 143.403 115.993 146.157 112.168 146.345C104.332 146.729 96.4434 146.94 88.0668 145.498C84.1059 144.817 80.8421 142.106 79.7234 138.213C77.7442 131.325 76.1986 124.215 75.7026 116.567C75.4527 112.713 77.725 110.337 81.4313 109.776Z" fill="white"/>
<path d="M119.632 99.8651C118.94 99.9218 118.2 100.198 117.508 100.714C114.89 102.667 103.144 115.528 96.5706 124.956C93.151 122.062 87.8991 117.916 85.0537 116.39C81.7095 114.598 78.7617 116.67 81.8079 120.709C81.8079 120.709 87.2792 132.056 94.3886 137.856C94.7001 138.11 95.0092 138.325 95.316 138.524C96.481 139.587 98.0038 140.045 99.5552 139.648C99.5547 139.648 99.556 139.647 99.5552 139.648C100.563 139.485 101.418 138.981 102.03 138.217C102.267 137.995 102.502 137.758 102.73 137.485C108.025 131.133 121.993 104.689 121.993 104.689C123.349 101.498 121.706 99.6955 119.632 99.8651Z" fill="#FFC517"/>
<path d="M106.205 25.4005C106.205 25.4005 94.8794 25.7997 94.0337 34.056C93.1879 42.3123 89.9093 45.3154 85.8943 46.6682C81.8794 48.0211 81.7728 59.1367 86.5854 65.7907C91.0273 71.9322 138.595 71.9038 145.889 71.2602C153.281 71.2751 200.243 67.2582 202.758 60.8187C205.484 53.8421 201.996 42.8803 197.622 41.8865C193.248 40.8927 189.098 38.2075 185.752 30.1306C182.405 22.0537 171.107 22.6228 171.107 22.6228L138.655 24.0117L106.205 25.4005Z" fill="#FF4B3D"/>
<path d="M140.064 167.276C140.064 167.276 190.006 160.415 192.046 164.056C194.086 167.697 195.676 173.894 190.963 174.859C186.249 175.825 143.412 178.08 141.733 177.253C140.054 176.426 135.416 167.764 140.064 167.276Z" fill="white"/>
<path d="M145.252 185.271C145.252 185.271 221.304 182.891 222.728 185.516C224.151 188.142 222.613 189.049 218.367 188.969C214.121 188.889 147.756 190.234 144.697 189.988C141.637 189.742 140.272 185.35 145.252 185.271Z" fill="#FFC517"/>
<path d="M146.287 200.889C146.287 200.889 179.513 199.137 180.94 201.822C182.367 204.507 180.826 205.435 176.57 205.355C172.314 205.275 148.797 205.964 145.731 205.713C142.665 205.463 141.295 200.971 146.287 200.889Z" fill="#FFC517"/>
<path d="M88.6081 178.149C96.6085 176.181 104.477 176.239 112.293 177.096C116.172 177.522 119.225 180.149 120.315 184.201C122.319 191.654 123.498 199.245 123.72 206.996C123.838 211.09 121.68 214.204 117.913 214.715C110.195 215.762 102.431 216.627 94.2288 215.767C90.3501 215.361 87.2086 212.73 86.207 208.663C84.435 201.466 83.0951 193.997 82.8012 185.868C82.6531 181.771 84.9485 179.049 88.6081 178.149Z" fill="white"/>
<path d="M126.093 168.237C125.402 168.293 124.662 168.57 123.97 169.086C121.351 171.039 109.606 183.9 103.032 193.327C99.6124 190.433 94.3605 186.287 91.5151 184.762C88.1709 182.969 85.2232 185.041 88.2693 189.08C88.2693 189.08 93.7406 200.428 100.85 206.227C101.162 206.481 101.471 206.697 101.777 206.896C102.942 207.959 104.465 208.417 106.017 208.019C106.016 208.019 106.017 208.019 106.017 208.019C107.025 207.857 107.88 207.353 108.492 206.588C108.729 206.366 108.963 206.129 109.191 205.856C114.486 199.505 128.455 173.06 128.455 173.06C129.811 169.869 128.168 168.067 126.093 168.237Z" fill="#FFC517"/>
<path d="M146.843 239.017C146.843 239.017 196.785 232.156 198.825 235.797C200.865 239.438 202.455 245.635 197.741 246.601C193.028 247.567 150.191 249.822 148.512 248.995C146.833 248.168 142.195 239.505 146.843 239.017Z" fill="white"/>
<path d="M152.031 257.013C152.031 257.013 228.084 254.633 229.507 257.258C230.93 259.884 229.392 260.791 225.146 260.711C220.9 260.631 154.535 261.976 151.476 261.73C148.417 261.484 147.051 257.092 152.031 257.013Z" fill="#FFC517"/>
<path d="M153.067 272.631C153.067 272.631 186.293 270.879 187.72 273.564C189.147 276.249 187.606 277.177 183.35 277.097C179.094 277.017 155.577 277.706 152.511 277.455C149.445 277.205 148.075 272.713 153.067 272.631Z" fill="#FFC517"/>
<path d="M95.3869 249.891C103.387 247.923 111.256 247.981 119.072 248.838C122.951 249.264 126.003 251.891 127.093 255.943C129.098 263.396 130.277 270.987 130.499 278.738C130.616 282.832 128.459 285.946 124.692 286.457C116.974 287.504 109.21 288.369 101.008 287.509C97.1289 287.103 93.9874 284.472 92.9858 280.405C91.2138 273.208 89.8739 265.739 89.58 257.61C89.4319 253.513 91.7273 250.791 95.3869 249.891Z" fill="white"/>
<path d="M132.873 239.979C132.181 240.035 131.441 240.311 130.749 240.828C128.131 242.78 116.385 255.642 109.811 265.069C106.392 262.175 101.14 258.029 98.2944 256.504C94.9502 254.711 92.0025 256.783 95.0486 260.822C95.0486 260.822 100.52 272.17 107.629 277.969C107.941 278.223 108.25 278.439 108.557 278.638C109.722 279.701 111.245 280.159 112.796 279.761C112.795 279.761 112.797 279.761 112.796 279.761C113.804 279.599 114.659 279.095 115.271 278.33C115.508 278.109 115.743 277.871 115.97 277.598C121.266 271.247 135.234 244.802 135.234 244.802C136.59 241.611 134.947 239.809 132.873 239.979Z" fill="#FFC517"/>
<path d="M195.363 311.956C195.363 311.956 237.99 311.567 243.451 305.081C248.912 298.595 251.422 262.028 251.422 262.028C251.422 262.028 204.799 291.946 195.363 311.956Z" fill="#FFAC17"/>
<path d="M195.573 311.999L251.421 262.295C235.831 263.885 220.299 265.852 204.804 268.063C196.799 269.205 191.578 275.823 192.526 284.576C193.571 294.222 194.567 302.871 195.573 311.999Z" fill="#171D8F"/>
<path d="M169.064 50.4973C166.166 50.1017 156.639 51.7521 135.878 52.4921C113.592 53.2864 99.1962 45.076 93.5986 41.2137C92.2129 46.1166 89.4775 48.1926 86.2654 49.2363C83.133 50.254 82.4063 57.0466 84.5453 63.0132C91.2118 56.7193 98.7087 58.9064 114.185 60.0926C130.873 61.3717 168.581 54.4686 169.925 51.6843C170.261 50.9882 170.031 50.6292 169.064 50.4973Z" fill="#CF1531"/>
<path d="M272.448 7.26616C257.262 7.22085 243.218 8.08758 229.601 9.29685C223.402 9.84732 219.333 15.206 218.379 22.3536C216.274 38.1246 216.252 54.1384 218.379 70.4019C219.314 77.5529 223.431 82.5735 229.601 83.4586C240.774 85.0614 251.948 85.7505 263.121 85.8421C260.543 93.2904 256.512 100.996 250.249 105.712C236.145 116.331 267.851 107.767 279.296 85.5893C289.627 85.1961 299.958 84.4104 310.289 83.4586C316.486 82.8877 320.619 77.5604 321.511 70.4019C323.475 54.6397 323.355 38.608 321.511 22.3536C320.697 15.1825 316.481 9.94172 310.289 9.29685C296.761 7.88792 284.259 7.30139 272.448 7.26616Z" fill="#FF4B3D"/>
<path d="M243.62 23.838C233.579 24.8516 225.7 34.657 225.7 46.6035C225.699 59.2245 234.493 69.4561 245.34 69.4562C255.724 69.4558 264.229 60.0786 264.933 48.1969C265.032 46.5275 263.623 46.6763 263.623 46.6763H248.305C245.984 46.6763 245.373 45.1774 245.373 43.0484V25.7333C245.373 24.0804 244.416 23.8054 243.62 23.838Z" fill="#FFC517"/>
<path d="M251.308 20.855V37.5994C251.308 40.2641 251.893 41.4587 254.209 41.4587H268.922C268.922 41.4587 270.823 41.4416 270.823 39.1622C270.823 24.2369 258.338 18.8959 253.336 18.8959C251.568 18.8959 251.308 20.855 251.308 20.855Z" fill="white"/>
<path d="M277.509 30.0965C277.509 30.0965 296.838 26.4637 297.962 29.7991C299.086 33.1345 299.518 38.7185 295.682 39.3442C291.845 39.9699 278.715 39.8607 277.504 39.043C276.292 38.2253 273.788 30.3009 277.509 30.0965Z" fill="white"/>
<path d="M277.72 46.448C277.72 46.448 317.492 44.2778 318.365 46.7789C319.238 49.2799 317.927 50.1414 314.562 50.06C311.197 49.9786 279.222 51.1748 276.816 50.9369C274.41 50.6991 273.755 46.5166 277.72 46.448Z" fill="#FFC517"/>
<path d="M277.86 57.5162C277.86 57.5162 298.301 55.9383 299.174 58.4393C300.047 60.9403 298.737 61.8018 295.372 61.7204C292.007 61.6389 279.363 62.2429 276.957 62.0051C274.551 61.7672 273.896 57.5848 277.86 57.5162Z" fill="#FFC517"/>
<path d="M296.631 127.795C301.407 127.795 306.136 128.89 310.549 131.017C314.962 133.143 318.971 136.261 322.348 140.19C325.725 144.12 328.404 148.785 330.232 153.919C332.06 159.053 333 164.556 333 170.113C333 178.982 330.605 187.626 326.153 194.825C321.702 202.024 315.419 207.413 308.192 210.232C305.438 223.039 293.938 226.081 289.376 226.081C281.997 226.081 291.333 223.855 294.571 212.36C285.297 211.748 276.576 207.031 270.196 199.175C263.816 191.319 260.262 180.921 260.261 170.113C260.261 164.556 261.202 159.053 263.029 153.919C264.857 148.785 267.536 144.12 270.913 140.19C274.29 136.261 278.3 133.143 282.712 131.017C287.125 128.89 291.854 127.795 296.631 127.795Z" fill="#FF4B3D"/>
<path d="M332.971 171.831C332.671 180.399 330.141 188.659 325.716 195.517C321.291 202.375 315.18 207.506 308.192 210.232C305.438 223.039 293.938 226.081 289.376 226.081C281.997 226.081 291.334 223.855 294.571 212.36C286.2 211.808 278.25 207.906 272.066 201.317C278.244 201.825 284.986 201.788 292.306 200.933C312.417 198.583 325.093 185.616 332.971 171.831Z" fill="#CF1531"/>
<path d="M296.396 142.881C296.036 142.88 295.68 142.963 295.347 143.123C295.014 143.283 294.712 143.518 294.457 143.814C294.203 144.11 294.001 144.462 293.863 144.849C293.725 145.236 293.654 145.651 293.654 146.07V149.138C292.649 149.644 291.656 150.359 290.713 151.297C288.377 153.621 287.036 156.306 286.708 158.974C286.38 161.643 287.041 164.054 287.924 165.91C289.59 169.415 292.092 171.453 292.376 171.678C292.456 171.75 292.54 171.817 292.627 171.879C292.627 171.879 296.908 174.94 299.867 178.566C301.347 180.379 302.368 182.324 302.565 183.496C302.761 184.668 302.821 185.139 301.128 186.476C297.267 189.526 295.392 188.61 293.685 187.285C291.979 185.961 290.968 183.852 290.968 183.852C290.801 183.48 290.573 183.151 290.297 182.882C290.02 182.613 289.701 182.41 289.357 182.284C289.013 182.159 288.651 182.114 288.292 182.152C287.933 182.189 287.584 182.309 287.265 182.504C286.622 182.896 286.138 183.569 285.921 184.375C285.704 185.181 285.77 186.055 286.106 186.804C286.106 186.804 287.575 190.212 290.642 192.593C291.495 193.255 292.516 193.8 293.654 194.164V197.119C293.654 197.538 293.725 197.953 293.862 198.34C294 198.728 294.202 199.08 294.457 199.376C294.712 199.672 295.014 199.907 295.347 200.068C295.68 200.228 296.036 200.31 296.397 200.31C296.757 200.31 297.113 200.228 297.446 200.067C297.779 199.907 298.081 199.672 298.335 199.375C298.59 199.079 298.792 198.727 298.929 198.34C299.067 197.953 299.138 197.538 299.138 197.119V194.329C300.77 193.929 302.483 193.119 304.209 191.756C307.18 189.409 308.497 185.54 307.951 182.278C307.405 179.016 305.682 176.427 303.84 174.17C300.32 169.858 295.994 166.797 295.603 166.524C295.573 166.497 293.689 164.85 292.723 162.818C292.236 161.794 292.016 160.833 292.134 159.876C292.251 158.919 292.686 157.726 294.277 156.143C295.682 154.746 296.594 154.547 297.417 154.612C298.239 154.677 299.138 155.159 300.019 155.97C301.78 157.591 303.056 160.179 303.056 160.179C303.227 160.548 303.459 160.874 303.738 161.138C304.017 161.403 304.338 161.601 304.683 161.721C305.028 161.841 305.39 161.88 305.748 161.838C306.106 161.795 306.454 161.671 306.771 161.472C307.088 161.273 307.368 161.003 307.595 160.678C307.822 160.353 307.992 159.979 308.095 159.577C308.198 159.176 308.232 158.755 308.195 158.338C308.158 157.921 308.051 157.517 307.88 157.148C307.88 157.148 306.32 153.633 303.422 150.966C302.268 149.904 300.831 148.931 299.138 148.483V146.07C299.138 145.224 298.849 144.413 298.335 143.815C297.821 143.217 297.123 142.881 296.396 142.881Z" fill="white"/>
</svg>
