<svg width="453" height="453" viewBox="0 0 453 453" fill="none" xmlns="http://www.w3.org/2000/svg">
<path d="M165.54 64.3225H166.062C166.59 64.3225 167.017 63.8947 167.017 63.367V50.6529C167.017 50.1251 166.59 49.6973 166.062 49.6973H165.54C165.012 49.6973 164.584 50.1251 164.584 50.6529V63.367C164.584 63.8947 165.012 64.3225 165.54 64.3225Z" fill="#FFB833"/>
<path d="M158.488 56.7489V57.2709C158.488 57.7986 158.916 58.2264 159.444 58.2264H172.158C172.685 58.2264 173.113 57.7986 173.113 57.2709V56.7489C173.113 56.2211 172.685 55.7933 172.158 55.7933H159.444C158.916 55.7933 158.488 56.2211 158.488 56.7489Z" fill="#FFB833"/>
<path d="M143.022 302.846H143.544C144.072 302.846 144.5 302.419 144.5 301.891V289.177C144.5 288.649 144.072 288.221 143.544 288.221H143.022C142.495 288.221 142.067 288.649 142.067 289.177V301.891C142.067 302.419 142.495 302.846 143.022 302.846Z" fill="#FFB833"/>
<path d="M135.971 295.273V295.795C135.971 296.323 136.399 296.75 136.926 296.75H149.64C150.168 296.75 150.596 296.323 150.596 295.795V295.273C150.596 294.745 150.168 294.317 149.64 294.317H136.926C136.399 294.317 135.971 294.745 135.971 295.273Z" fill="#FFB833"/>
<path d="M285.222 79.9651H286.301C286.829 79.9651 287.257 79.5373 287.257 79.0096V62.9953C287.257 62.4676 286.829 62.0398 286.301 62.0398H285.222C284.694 62.0398 284.266 62.4676 284.266 62.9953V79.0096C284.266 79.5373 284.694 79.9651 285.222 79.9651Z" fill="#FFB833"/>
<path d="M276.79 70.4627V71.5421C276.79 72.0699 277.218 72.4977 277.746 72.4977H293.76C294.288 72.4977 294.715 72.0699 294.715 71.5421V70.4627C294.715 69.935 294.288 69.5072 293.76 69.5072H277.746C277.218 69.5072 276.79 69.935 276.79 70.4627Z" fill="#FFB833"/>
<path d="M250.539 73.816H50.6529C43.8901 73.816 38.4077 79.2984 38.4077 86.0612V248.787C38.4077 255.55 43.8901 261.032 50.6529 261.032H250.539C257.302 261.032 262.784 255.55 262.784 248.787V86.0612C262.784 79.2984 257.302 73.816 250.539 73.816Z" fill="#AAEEEA"/>
<path d="M210.07 72.8074C210.07 72.8074 205.814 74.6565 205.071 78.1779C204.531 80.7614 205.531 91.9802 206.097 97.7755C206.118 97.9983 206.209 98.2086 206.358 98.3756C206.507 98.5426 206.705 98.6573 206.924 98.7029C207.143 98.7485 207.371 98.7225 207.574 98.6288C207.777 98.5351 207.945 98.3787 208.053 98.1825C210.293 94.0749 213.125 90.3188 216.458 87.0344L210.07 72.8074Z" fill="#00CCC1"/>
<path d="M235.436 72.8074C235.436 72.8074 239.692 74.6565 240.435 78.1779C240.984 80.7614 239.975 91.9802 239.409 97.7755C239.388 97.9983 239.297 98.2086 239.148 98.3756C238.999 98.5426 238.801 98.6573 238.582 98.7029C238.363 98.7485 238.135 98.7225 237.932 98.6288C237.729 98.5351 237.561 98.3787 237.453 98.1825C235.218 94.0711 232.386 90.3142 229.048 87.0344L235.436 72.8074Z" fill="#00CCC1"/>
<mask id="mask0_412_897" style="mask-type:luminance" maskUnits="userSpaceOnUse" x="207" y="28" width="32" height="62">
<path d="M231.472 89.0782C235.498 82.2478 238.391 71.5068 238.17 61.7567C237.798 45.3 228.579 33.4442 224.058 28.4806C223.934 28.3452 223.783 28.2371 223.614 28.1631C223.446 28.0892 223.264 28.051 223.08 28.051C222.897 28.051 222.715 28.0892 222.546 28.1631C222.378 28.2371 222.227 28.3452 222.103 28.4806C217.582 33.4619 208.362 45.2912 207.991 61.7567C207.77 71.4891 210.645 82.2478 214.688 89.0782C217.511 89.5966 220.375 89.8542 223.244 89.848C226.004 89.8308 228.757 89.5733 231.472 89.0782Z" fill="white"/>
</mask>
<g mask="url(#mask0_412_897)">
<path d="M231.472 89.0782C235.498 82.2478 238.391 71.5068 238.17 61.7567C237.798 45.3 228.579 33.4442 224.058 28.4806C223.934 28.3452 223.783 28.2371 223.614 28.1631C223.446 28.0892 223.264 28.051 223.08 28.051C222.897 28.051 222.715 28.0892 222.546 28.1631C222.378 28.2371 222.227 28.3452 222.103 28.4806C217.582 33.4619 208.362 45.2912 207.991 61.7567C207.77 71.4891 210.645 82.2478 214.688 89.0782C217.511 89.5966 220.375 89.8542 223.244 89.848C226.004 89.8308 228.757 89.5733 231.472 89.0782Z" fill="#FFB833"/>
<path d="M238.179 44.2825C228.51 40.2866 217.651 40.2866 207.982 44.2825V23.2605H238.179V44.2825Z" fill="#00CCC1"/>
</g>
<path d="M232.039 90.5558C232.022 91.0952 231.813 91.6109 231.45 92.0099C231.086 92.4089 230.592 92.6651 230.057 92.7323C225.367 93.4755 220.59 93.4755 215.901 92.7323C215.365 92.6651 214.871 92.4089 214.508 92.0099C214.145 91.6109 213.936 91.0952 213.919 90.5558V90.2461C213.931 89.9432 214.003 89.6457 214.131 89.3707C214.259 89.0958 214.44 88.8489 214.664 88.6441C214.887 88.4394 215.149 88.2809 215.435 88.1777C215.72 88.0746 216.022 88.0288 216.325 88.0431H229.597C229.9 88.0288 230.202 88.0746 230.487 88.1777C230.773 88.2809 231.035 88.4394 231.258 88.6441C231.482 88.8489 231.663 89.0958 231.791 89.3707C231.919 89.6457 231.991 89.9432 232.003 90.2461L232.039 90.5558Z" fill="#00CCC1"/>
<path d="M232.039 94.378C232.022 94.9174 231.813 95.4331 231.45 95.8321C231.086 96.2311 230.592 96.4873 230.057 96.5545C225.367 97.2977 220.59 97.2977 215.901 96.5545C215.365 96.4873 214.871 96.2311 214.508 95.8321C214.145 95.4331 213.936 94.9174 213.919 94.378V94.086C213.946 93.4749 214.215 92.8998 214.666 92.4867C215.118 92.0737 215.714 91.8566 216.325 91.883H229.597C230.208 91.8566 230.804 92.0737 231.256 92.4867C231.707 92.8998 231.976 93.4749 232.003 94.086L232.039 94.378Z" fill="#00CCC1"/>
<path d="M223.076 68.4986C227.87 68.4986 231.756 64.6126 231.756 59.819C231.756 55.0254 227.87 51.1395 223.076 51.1395C218.282 51.1395 214.396 55.0254 214.396 59.819C214.396 64.6126 218.282 68.4986 223.076 68.4986Z" fill="#FFF3E3"/>
<path d="M223.076 66.2778C221.799 66.2761 220.551 65.8958 219.49 65.185C218.429 64.4742 217.603 63.4649 217.115 62.2846C216.628 61.1042 216.501 59.8059 216.751 58.5536C217.001 57.3013 217.617 56.1512 218.521 55.2488C219.424 54.3465 220.575 53.7322 221.828 53.4837C223.081 53.2352 224.379 53.3636 225.558 53.8527C226.738 54.3418 227.746 55.1697 228.456 56.2316C229.165 57.2936 229.544 58.542 229.544 59.819C229.541 61.5328 228.859 63.1756 227.646 64.3866C226.433 65.5976 224.79 66.2778 223.076 66.2778Z" fill="#00CCC1"/>
<path d="M218.696 98.1471C218.66 98.1339 218.621 98.1329 218.584 98.144C218.547 98.1552 218.515 98.178 218.493 98.209C217.775 99.0735 217.255 100.085 216.969 101.171C216.683 102.258 216.639 103.394 216.838 104.5C216.848 104.543 216.872 104.582 216.906 104.61C216.941 104.638 216.984 104.653 217.028 104.653C217.073 104.653 217.116 104.638 217.151 104.61C217.185 104.582 217.209 104.543 217.219 104.5C217.348 104.193 217.502 103.897 217.679 103.615C217.9 103.262 218.161 102.935 218.457 102.642C218.487 102.612 218.525 102.594 218.567 102.588C218.608 102.582 218.65 102.589 218.686 102.609C218.723 102.629 218.752 102.66 218.77 102.698C218.788 102.735 218.793 102.778 218.785 102.819C218.554 103.905 218.607 105.033 218.939 106.092C219.271 107.152 219.869 108.109 220.678 108.87C221.737 109.778 223.071 110.302 224.465 110.357C224.498 110.357 224.531 110.35 224.56 110.335C224.59 110.32 224.616 110.298 224.635 110.271C224.654 110.244 224.666 110.213 224.671 110.18C224.675 110.147 224.671 110.114 224.66 110.083C224.474 109.635 224.395 109.15 224.43 108.667C224.517 107.898 224.824 107.17 225.314 106.57C226.026 105.44 226.392 104.127 226.367 102.792C226.365 102.747 226.379 102.703 226.407 102.667C226.434 102.631 226.473 102.605 226.517 102.595C226.56 102.585 226.607 102.59 226.647 102.609C226.688 102.629 226.72 102.663 226.739 102.704C226.916 103.022 227.044 103.365 227.119 103.721C227.21 104.148 227.233 104.587 227.19 105.022C227.184 105.061 227.19 105.101 227.208 105.136C227.226 105.172 227.253 105.201 227.288 105.22C227.323 105.24 227.362 105.248 227.402 105.244C227.441 105.24 227.478 105.224 227.509 105.199C228.056 104.801 228.509 104.288 228.836 103.696C229.164 103.104 229.358 102.448 229.404 101.773C229.45 101.098 229.348 100.422 229.105 99.7905C228.862 99.1594 228.483 98.5894 227.995 98.1205C227.967 98.105 227.935 98.0969 227.902 98.0969C227.87 98.0969 227.838 98.105 227.809 98.1205C226.765 98.4088 225.695 98.5984 224.615 98.6868C222.626 98.8388 220.625 98.6564 218.696 98.1471Z" fill="#FFB833"/>
<path d="M64.6499 115.373V238.754H239.161" stroke="#00CCC1" stroke-width="3" stroke-linecap="round" stroke-linejoin="round"/>
<path fill-rule="evenodd" clip-rule="evenodd" d="M75.0105 216.414L126.017 170.574C126.073 170.523 126.14 170.485 126.212 170.463C126.285 170.442 126.362 170.437 126.436 170.449C126.511 170.46 126.582 170.489 126.645 170.532C126.707 170.575 126.758 170.632 126.796 170.698L133.396 182.094C133.433 182.158 133.484 182.214 133.545 182.257C133.606 182.3 133.675 182.329 133.748 182.343C133.821 182.356 133.897 182.353 133.969 182.335C134.041 182.316 134.108 182.282 134.166 182.235L174.299 148.871C174.353 148.824 174.416 148.789 174.484 148.769C174.552 148.749 174.624 148.743 174.695 148.753C174.765 148.764 174.833 148.789 174.893 148.827C174.953 148.866 175.004 148.917 175.042 148.977L180.97 157.825C181.011 157.884 181.064 157.935 181.126 157.973C181.188 158.011 181.257 158.035 181.329 158.044C181.4 158.053 181.473 158.047 181.543 158.026C181.612 158.005 181.676 157.969 181.731 157.922L215.166 128.291C215.227 128.236 215.274 128.168 215.303 128.091C215.332 128.014 215.342 127.932 215.333 127.85C215.323 127.769 215.294 127.691 215.248 127.623C215.202 127.555 215.141 127.499 215.069 127.459L209.495 124.425C209.421 124.373 209.362 124.304 209.323 124.223C209.285 124.141 209.268 124.051 209.276 123.962C209.283 123.872 209.313 123.786 209.364 123.712C209.415 123.638 209.485 123.579 209.566 123.54L231.322 115.834C231.405 115.804 231.493 115.796 231.58 115.811C231.666 115.826 231.748 115.862 231.816 115.917C231.884 115.972 231.938 116.044 231.97 116.125C232.003 116.207 232.014 116.295 232.003 116.382L229.261 136.617C229.248 136.699 229.216 136.778 229.167 136.845C229.118 136.912 229.053 136.966 228.978 137.003C228.903 137.04 228.82 137.057 228.737 137.055C228.654 137.052 228.572 137.029 228.5 136.988L223.288 133.971C223.187 133.912 223.069 133.89 222.953 133.907C222.837 133.925 222.73 133.982 222.651 134.069L184.297 176.626C184.249 176.683 184.19 176.73 184.123 176.761C184.055 176.793 183.982 176.81 183.907 176.81C183.833 176.81 183.759 176.793 183.692 176.761C183.625 176.73 183.565 176.683 183.518 176.626L173.414 163.39C173.37 163.333 173.314 163.286 173.251 163.253C173.187 163.219 173.117 163.199 173.045 163.194C172.974 163.189 172.902 163.199 172.834 163.223C172.767 163.248 172.705 163.287 172.653 163.337L134.768 200.267C134.716 200.318 134.654 200.357 134.586 200.381C134.518 200.406 134.445 200.416 134.373 200.41C134.301 200.404 134.231 200.383 134.167 200.347C134.104 200.312 134.049 200.263 134.007 200.205L122.558 185.358C122.515 185.303 122.461 185.257 122.399 185.223C122.338 185.189 122.27 185.169 122.2 185.163C122.13 185.157 122.059 185.166 121.993 185.189C121.927 185.212 121.866 185.249 121.815 185.296L80.6287 223.253C80.5779 223.301 80.5176 223.338 80.4516 223.362C80.3856 223.386 80.3154 223.395 80.2454 223.39C80.1755 223.385 80.1074 223.366 80.0454 223.333C79.9834 223.3 79.929 223.255 79.8855 223.2L74.9574 217.113C74.8779 217.01 74.8393 216.882 74.8492 216.753C74.859 216.624 74.9165 216.503 75.0105 216.414Z" fill="#00CCC1"/>
<path d="M58.0406 92.8031C60.5522 92.8031 62.5883 90.767 62.5883 88.2554C62.5883 85.7438 60.5522 83.7077 58.0406 83.7077C55.529 83.7077 53.4929 85.7438 53.4929 88.2554C53.4929 90.767 55.529 92.8031 58.0406 92.8031Z" fill="#00CCC1"/>
<path d="M80.4696 92.8031C82.9812 92.8031 85.0173 90.767 85.0173 88.2554C85.0173 85.7438 82.9812 83.7077 80.4696 83.7077C77.9579 83.7077 75.9219 85.7438 75.9219 88.2554C75.9219 90.767 77.9579 92.8031 80.4696 92.8031Z" fill="#00CCC1"/>
<path d="M102.898 92.8031C105.41 92.8031 107.446 90.767 107.446 88.2554C107.446 85.7438 105.41 83.7077 102.898 83.7077C100.387 83.7077 98.3506 85.7438 98.3506 88.2554C98.3506 90.767 100.387 92.8031 102.898 92.8031Z" fill="#00CCC1"/>
<path d="M344.475 194.118C376.896 194.118 403.179 167.835 403.179 135.413C403.179 102.992 376.896 76.7092 344.475 76.7092C312.053 76.7092 285.771 102.992 285.771 135.413C285.771 167.835 312.053 194.118 344.475 194.118Z" fill="#FFB08D"/>
<path d="M353.437 191.198C353.437 191.198 349.376 207.911 353.437 221.085C357.498 234.259 380.29 239.833 382.316 262.13C384.342 284.426 367.62 313.296 360.524 343.696C353.428 374.097 359.002 417.132 359.002 417.132C343.395 421.22 327.214 422.673 311.128 421.432C286.338 419.397 262.466 411.121 241.736 397.375C244.823 367.549 249.176 327.965 255.14 280.329C258.59 252.76 262.439 222.271 280.727 215.989C288.832 213.202 307.58 215.228 311.384 211.424C315.189 207.619 317.967 177.988 317.967 177.988C317.967 177.988 348.598 174.476 353.437 191.198Z" fill="#FFB08D"/>
<path d="M380.246 181.952C371.386 188.615 361.243 193.371 350.456 195.923C330.947 200.435 299.529 199.647 286.054 180.306C284.159 177.535 282.67 174.509 281.63 171.317C272.667 146.314 285.85 119.762 292.052 108.95C292.061 108.95 387.881 84.1058 380.246 181.952Z" fill="#FFB08D"/>
<path d="M354.11 134.847C352.257 131.8 349.506 129.402 346.235 127.981C344.032 126.99 341.059 125.637 339.387 126.99C339.021 127.281 338.738 127.663 338.568 128.098C338.397 128.533 338.344 129.006 338.414 129.468C338.865 131.308 342.015 131.158 346.271 132.909C351.871 135.228 354.605 138.873 355.304 138.218C355.817 137.767 354.596 135.67 354.11 134.847Z" fill="#383333"/>
<path d="M298.06 107.818C301.62 107.62 305.155 108.525 308.182 110.41C310.252 111.657 313.048 113.347 312.88 115.48C312.85 115.939 312.702 116.383 312.449 116.768C312.196 117.152 311.847 117.465 311.437 117.674C309.668 118.346 308.005 115.657 304.147 113.153C299.068 109.852 294.512 109.676 294.636 108.729C294.689 108.065 297.113 107.888 298.06 107.818Z" fill="#383333"/>
<path d="M318.392 130.945C318.392 130.945 309.987 137.519 309.774 139.536C309.562 141.554 316.56 144.641 316.56 144.641" stroke="#383333" stroke-linecap="round" stroke-linejoin="round"/>
<path d="M345.782 160.195C346.854 158.147 345.06 155.092 341.774 153.371C338.488 151.65 334.955 151.915 333.882 153.963C332.81 156.011 334.604 159.066 337.89 160.787C341.176 162.508 344.709 162.243 345.782 160.195Z" fill="#FF8C5F"/>
<path d="M294.237 138.6C295.31 136.553 293.515 133.497 290.229 131.777C286.943 130.056 283.41 130.321 282.338 132.368C281.265 134.416 283.06 137.471 286.346 139.192C289.632 140.913 293.165 140.648 294.237 138.6Z" fill="#FF8C5F"/>
<path d="M371.734 154.356C373.145 153.654 374.685 153.249 376.259 153.167C377.833 153.085 379.407 153.327 380.883 153.878C382.681 154.556 384.211 155.798 385.245 157.418C388.377 163.133 382.254 175.909 373.327 176.776C368.328 177.254 364.32 173.839 362.993 172.6L371.734 154.356Z" fill="#FFB08D"/>
<path d="M381.44 162.735L374.017 159.913C374.017 159.913 380.113 167.203 371.664 171.291" stroke="#383333" stroke-width="0.75" stroke-linecap="round" stroke-linejoin="round"/>
<path fill-rule="evenodd" clip-rule="evenodd" d="M298.573 130.335C297.627 130.66 296.607 130.697 295.64 130.441C294.674 130.186 293.805 129.649 293.143 128.899C292.482 128.15 292.057 127.221 291.924 126.23C291.791 125.239 291.955 124.231 292.395 123.333C292.836 122.435 293.532 121.688 294.397 121.187C295.262 120.685 296.256 120.451 297.254 120.515C298.252 120.579 299.208 120.938 300.002 121.545C300.796 122.153 301.392 122.983 301.714 123.929C302.142 125.195 302.053 126.579 301.464 127.78C300.876 128.98 299.836 129.898 298.573 130.335Z" fill="#383333"/>
<path fill-rule="evenodd" clip-rule="evenodd" d="M338.299 147.906C337.375 148.287 336.358 148.385 335.378 148.188C334.398 147.991 333.498 147.507 332.793 146.799C332.088 146.09 331.609 145.188 331.417 144.207C331.224 143.225 331.328 142.209 331.713 141.287C332.099 140.364 332.749 139.577 333.583 139.025C334.416 138.472 335.394 138.179 336.394 138.183C337.394 138.187 338.37 138.488 339.199 139.047C340.028 139.606 340.672 140.398 341.051 141.324C341.554 142.562 341.548 143.949 341.032 145.182C340.517 146.416 339.534 147.395 338.299 147.906Z" fill="#383333"/>
<path d="M307.155 164.31C306.02 164.231 304.915 163.905 303.919 163.355C302.922 162.805 302.058 162.044 301.387 161.125" stroke="#383333" stroke-width="0.75" stroke-linecap="round" stroke-linejoin="round"/>
<path d="M320.781 156.604C312.899 155.077 305.546 151.535 299.44 146.323C299.336 148.053 299.497 149.79 299.918 151.472C300.086 152.171 301.608 157.046 305.872 159.337C310.137 161.629 316.277 160.62 320.781 156.604Z" fill="white"/>
<path d="M325.594 93.0597C327.974 97.7489 332.813 99.5981 337.414 101.518C353.048 108.03 361.17 100.969 369.567 106.933C375.645 111.242 378.485 119.974 378.105 126.707C377.379 139.51 364.134 154.303 364.966 161.346C365.638 167.123 370.398 153.878 376.53 153.144C382.661 152.41 388.598 157.418 385.289 165.628C381.98 173.839 373.636 182.872 363.028 172.565C361.807 175.591 360.011 179.802 357.569 184.704C352.889 194.091 350.801 195.852 351.526 196.913C353.933 200.452 384.811 192.852 401.569 168.203C404.824 163.416 414.84 147.216 412.38 125.212C411.858 120.567 409.788 104.305 396.862 90.4408C378.078 70.3123 346.129 65.6673 324.603 77.1693C320.272 79.4819 316.318 82.4416 312.88 85.9461C315.64 84.7252 319.418 83.575 321.948 85.2826C324.267 86.8486 323.895 89.786 325.594 93.0597Z" fill="#383333"/>
<path d="M345.333 197.701C345.333 197.701 329.31 199.621 315.702 195.931" stroke="#383333" stroke-linecap="round" stroke-linejoin="round"/>
<path d="M301.387 213.901C295.32 213.469 289.224 213.992 283.32 215.449C279.612 216.407 275.994 217.686 272.508 219.271C257.175 226.473 243.098 249.132 240.869 252.645C233.622 264.085 221.227 279.135 198.816 293.663L219.847 324.426C245.196 316.39 267.094 300.041 282.001 278.02C299.431 252.026 301.289 225.553 301.387 213.901Z" fill="#FFB08D"/>
<path d="M165.133 245.169C190.446 265.04 233.861 301.882 225.615 319.038C222.864 324.762 215.423 326.116 214.113 326.337C193.764 330.018 167.389 299.874 146.332 253.512L165.133 245.169Z" fill="#FFB08D"/>
<path d="M359.985 230.517C359.985 230.517 392.986 254.034 400.286 276.454C407.585 298.874 412.734 416.725 412.734 416.725C412.734 416.725 394.092 426.652 376.547 421.909L350.757 292.097C350.757 292.097 340.537 248.194 359.985 230.517Z" fill="#FFB08D"/>
<path d="M173.113 251.539C173.113 251.539 155.197 232.631 146.358 230.481C137.519 228.331 120.107 231.242 107.941 229.057C95.7759 226.872 105.791 240.028 118.196 243.364C130.6 246.699 144.217 249.707 149.331 259.882C149.331 259.882 171.264 263.289 173.113 251.539Z" fill="#FFB08D"/>
<path d="M412.734 359.064C412.734 359.064 395.49 377.193 364.293 375.282L360.984 351.588C360.796 359.598 360.743 367.815 360.825 376.238C360.967 390.712 361.533 404.612 362.409 417.901C347.827 423.61 332.271 426.42 316.613 426.174C273.614 425.386 244.107 401.188 234.87 392.933L248.947 313.021C248.947 313.021 236.728 319.055 229.827 320.781C229.827 320.781 228.261 297.671 213.114 283.355C213.114 283.355 235.825 256.007 250.141 235.02C264.456 214.034 295.379 212.379 308.659 212.848C308.659 212.848 312.03 238.506 330.54 240.426C335.807 241.045 341.145 240.368 346.09 238.452C351.036 236.537 355.438 233.442 358.914 229.437C358.914 229.437 389.447 248.451 400.578 269.093C411.708 289.734 412.734 359.064 412.734 359.064Z" fill="#FF535C"/>
<path d="M382.484 117.807C382.484 117.807 384.82 126.575 380.715 134.361" stroke="white" stroke-linecap="round" stroke-linejoin="round"/>
<path d="M386.076 137.82C386.076 137.82 381.785 150.136 389.615 157.196" stroke="white" stroke-linecap="round" stroke-linejoin="round"/>
<path d="M334.441 76.6915C334.441 76.6915 327.602 77.5763 324.267 82.823" stroke="white" stroke-linecap="round" stroke-linejoin="round"/>
<path d="M346.899 79.1689C346.899 79.1689 333.282 77.0985 326.479 84.9375" stroke="white" stroke-linecap="round" stroke-linejoin="round"/>
<path d="M370.973 297.679C370.973 297.679 362.595 324.09 360.984 351.588" stroke="#383333" stroke-linecap="round" stroke-linejoin="round"/>
<path d="M264.439 240.869C264.439 240.869 255.591 274.923 248.92 313.021" stroke="#383333" stroke-linecap="round" stroke-linejoin="round"/>
<path d="M219.342 316.127C219.342 316.127 222.404 297.963 210.247 285.602" stroke="#383333" stroke-linecap="round" stroke-linejoin="round"/>
<path d="M348.748 101.182C348.748 101.182 361.197 100.651 369.531 94.3249" stroke="white" stroke-linecap="round" stroke-linejoin="round"/>
<path d="M361.444 103.013C361.444 103.013 371.92 101.182 376.07 98.9345" stroke="white" stroke-linecap="round" stroke-linejoin="round"/>
</svg>
