<svg width="492" height="512" viewBox="0 0 492 512" fill="none" xmlns="http://www.w3.org/2000/svg">
<path d="M328.05 246.52C332.05 301.83 351.72 352.87 383.17 398.28L404.34 392.15C390.033 337.483 375.72 282.817 361.4 228.15L328.05 246.52Z" fill="#68003C"/>
<path d="M230.47 232.76L335.78 215.35L375.47 271.04L358.18 285.13L315.68 247.26L241.03 259.88L230.47 232.76Z" fill="#68003C"/>
<path d="M379.34 391.38L375.05 428.38L468.59 409.67C469.113 408.133 469.269 406.495 469.047 404.886C468.825 403.278 468.231 401.743 467.311 400.405C466.392 399.067 465.172 397.962 463.75 397.178C462.328 396.394 460.743 395.953 459.12 395.89C448.617 396.909 438.015 395.843 427.925 392.754C417.834 389.665 408.453 384.614 400.32 377.89L379.34 391.38Z" fill="#FDC500"/>
<path d="M371.87 380.87L378.17 396C378.17 396 390.99 397.11 392.82 390.36C394.65 383.61 401.82 379.06 401.82 379.06L396.91 363.76L371.87 380.87Z" fill="#2351FB"/>
<path d="M333.69 292.02L361.03 388.24L398.76 363.76L377.46 278.17L333.69 292.02Z" fill="#68003C"/>
<path d="M2.90002 452.2C58.3 371.4 113.693 290.617 169.08 209.85C178.66 246.103 188.243 282.353 197.83 318.6L356.57 194.86C368.663 220.687 380.747 246.517 392.82 272.35L166.58 419.84L137.33 334.1L2.90002 452.2Z" fill="#2351FB"/>
<path d="M307.81 173.41L402.92 346.34L447.11 183L307.81 173.41Z" fill="#2351FB"/>
<path d="M203.074 114.319L218.716 111.62L223.766 140.884L208.125 143.584L203.074 114.319Z" fill="#E87700"/>
<path d="M227.66 92C226.91 89.0317 225.435 86.2956 223.369 84.0364C221.302 81.7771 218.708 80.0651 215.818 79.0534C212.929 78.0417 209.833 77.7618 206.809 78.2388C203.785 78.7158 200.925 79.9347 198.487 81.7867C196.049 83.6386 194.108 86.0658 192.837 88.8514C191.566 91.6369 191.005 94.694 191.205 97.7492C191.404 100.804 192.358 103.763 193.98 106.359C195.602 108.956 197.842 111.111 200.5 112.63C201.14 113.43 201.74 114.12 202.27 114.7C206.86 119.64 212.35 124.7 219.22 123.38C225.14 122.53 228.96 116.85 228.75 111.17C228.12 93.82 228.25 94.28 227.66 92Z" fill="#E87700"/>
<path d="M222.6 103.7C223.473 103.7 224.18 102.993 224.18 102.12C224.18 101.247 223.473 100.54 222.6 100.54C221.727 100.54 221.02 101.247 221.02 102.12C221.02 102.993 221.727 103.7 222.6 103.7Z" fill="#262246"/>
<path d="M210.99 106.64C211.863 106.64 212.57 105.933 212.57 105.06C212.57 104.187 211.863 103.48 210.99 103.48C210.118 103.48 209.41 104.187 209.41 105.06C209.41 105.933 210.118 106.64 210.99 106.64Z" fill="#262246"/>
<path d="M217.42 112C217.287 112.015 217.154 111.976 217.05 111.892C216.946 111.809 216.88 111.688 216.865 111.555C216.85 111.422 216.889 111.289 216.973 111.185C217.056 111.081 217.177 111.015 217.31 111C219.65 110.44 219.59 110.5 219.67 110.33C219.75 110.16 219.93 110.62 216.87 104.47C216.813 104.351 216.805 104.216 216.846 104.091C216.887 103.966 216.974 103.862 217.09 103.8C217.149 103.771 217.213 103.754 217.279 103.75C217.345 103.746 217.411 103.755 217.473 103.776C217.535 103.797 217.592 103.831 217.642 103.874C217.691 103.918 217.731 103.971 217.76 104.03L220.56 109.64C220.647 109.813 220.693 110.003 220.696 110.196C220.699 110.389 220.658 110.581 220.576 110.756C220.494 110.931 220.374 111.085 220.224 111.207C220.074 111.329 219.898 111.416 219.71 111.46C217.43 112 217.53 112 217.42 112Z" fill="#262246"/>
<path d="M209.77 121.53C209.661 121.457 209.584 121.343 209.558 121.214C209.532 121.085 209.558 120.95 209.63 120.84C209.705 120.73 209.821 120.653 209.952 120.627C210.082 120.601 210.218 120.627 210.33 120.7C211.827 121.705 213.52 122.381 215.297 122.683C217.074 122.984 218.896 122.905 220.64 122.45C220.704 122.433 220.77 122.43 220.835 122.439C220.9 122.448 220.963 122.47 221.02 122.503C221.077 122.537 221.126 122.581 221.166 122.634C221.205 122.686 221.234 122.746 221.25 122.81C221.281 122.938 221.26 123.074 221.193 123.188C221.126 123.301 221.017 123.385 220.89 123.42C219.008 123.909 217.044 123.993 215.127 123.668C213.211 123.342 211.385 122.613 209.77 121.53Z" fill="#68003C"/>
<path d="M211 98C211.31 98 212.78 98.06 212.94 98.65C213.02 98.98 212.66 99.34 212.62 99.38C211.85 100.11 210.75 99.38 209.31 99.6C207.21 99.92 206.15 102 205.79 101.74C205.43 101.48 206.38 97.91 211 98Z" fill="#262246"/>
<path d="M220.18 96.13C219.92 96.29 218.66 97.04 218.8 97.63C218.88 97.96 219.37 98.1 219.43 98.12C220.43 98.4 221.06 97.22 222.43 96.73C224.43 96.01 226.36 97.34 226.55 96.93C226.74 96.52 224.17 93.82 220.18 96.13Z" fill="#262246"/>
<path d="M198.34 237.49C192.125 263.96 192.125 291.51 198.34 317.98L301.84 293.06C300.73 295.82 299.12 300.06 297.55 305.4C290.75 328.4 291.85 347.23 292.18 355.83C292.84 372.62 292.44 397.6 288.43 436.31L315.26 442.75C324.26 384.95 333.26 327.147 342.26 269.34C343.051 264.211 341.774 258.979 338.711 254.79C335.647 250.602 331.047 247.8 325.92 247L224.59 231.35L198.34 237.49Z" fill="#68003C"/>
<path d="M350.39 67.55C316.718 101.682 272.986 124.114 225.62 131.55L241.1 169.34C286.134 148.211 326.543 118.382 360 81.57L350.39 67.55Z" fill="#E87700"/>
<path d="M214.19 134C233.75 129.87 237.4 127.09 242.57 128.55C247.39 129.76 250.37 132.36 251.68 136.2L256.93 232.39C242.61 253.92 219.47 264.98 194.2 267.6C191.55 253.87 172.68 154.8 180.87 138.6C187 126.39 201.77 128.65 214.19 134Z" fill="#FDC500"/>
<path d="M233.93 130.12L282.31 114.76L294.57 143.62L248.63 169.32L233.93 130.12Z" fill="#FDC500"/>
<path d="M206.05 131.24C211.01 137.327 215.963 143.42 220.91 149.52L222.35 132.11C219.988 130.452 217.207 129.492 214.325 129.338C211.443 129.184 208.576 129.843 206.05 131.24Z" fill="#E87700"/>
<path d="M184.42 210.42C185.556 239.339 188.939 268.126 194.54 296.52C216.87 294.88 227.43 287.27 232.96 280.59C242.12 269.59 239.58 258.51 253.39 242.87C256.51 239.33 266.54 228.68 266.54 228.68C260.016 211.401 255.712 193.363 253.73 175L184.42 210.42Z" fill="#FDC500"/>
<path d="M201.24 139.31C215.24 161.197 229.24 183.08 243.24 204.96L315.65 221.96L313.46 236.28L232.64 230.45C230.431 230.289 228.293 229.599 226.406 228.438C224.519 227.277 222.94 225.68 221.8 223.78L182.62 158.53C181.331 156.385 180.674 153.918 180.725 151.416C180.777 148.913 181.535 146.476 182.911 144.386C184.288 142.295 186.227 140.636 188.506 139.6C190.785 138.564 193.31 138.193 195.79 138.53L201.24 139.31Z" fill="#E87700"/>
<path d="M209.57 140L194.07 138.46C191.642 138.218 189.195 138.642 186.99 139.687C184.785 140.731 182.907 142.356 181.556 144.387C180.205 146.419 179.433 148.78 179.323 151.217C179.213 153.654 179.768 156.075 180.93 158.22L209.85 211.64L237.54 192.24L209.57 140Z" fill="#FDC500"/>
<path d="M222.06 113.76C221.837 114.653 221.308 115.438 220.564 115.98C219.821 116.522 218.91 116.784 217.992 116.723C217.075 116.661 216.208 116.278 215.544 115.641C214.88 115.004 214.461 114.154 214.36 113.24L222.06 113.76Z" fill="#262246"/>
<path d="M201.47 98.16C202.384 97.8963 203.225 97.4265 203.929 96.7868C204.633 96.1471 205.181 95.3545 205.53 94.47C206.53 91.47 202.67 85.12 205.53 82.47C205.53 82.47 207.8 80.14 209.96 85.68C212.12 91.22 224.96 89.31 224.96 89.31C226.438 90.9946 227.524 92.9856 228.14 95.14C228.14 95.14 237.66 82.21 228.72 71.83C228.72 71.83 228.25 77.89 222.02 74.25C215.79 70.61 205.02 71.54 201.43 76.85C196.95 76.6 194.27 77.79 192.64 78.93C190.49 80.43 189.95 82.03 187.15 84.38C185.401 85.8601 183.448 87.0794 181.35 88C182.54 90.56 185.46 91.59 187.62 89.6C181.96 102.47 189.54 116.82 203.87 118.41C203.775 111.595 202.971 104.808 201.47 98.16Z" fill="#68003C"/>
<path d="M204.233 112.562C205.94 111.033 205.873 108.173 204.083 106.173C202.293 104.173 199.457 103.791 197.749 105.32C196.042 106.849 196.109 109.709 197.899 111.709C199.69 113.709 202.525 114.09 204.233 112.562Z" fill="#E87700"/>
<path d="M202.66 111.88C202.289 111.862 201.928 111.757 201.605 111.575C201.281 111.393 201.005 111.138 200.797 110.83C200.59 110.523 200.456 110.171 200.408 109.803C200.36 109.435 200.398 109.061 200.52 108.71L198.87 109.13C198.737 109.162 198.598 109.14 198.481 109.068C198.365 108.997 198.282 108.883 198.25 108.75C198.218 108.617 198.24 108.478 198.312 108.361C198.383 108.245 198.497 108.162 198.63 108.13L201.63 107.37C201.744 107.342 201.865 107.354 201.97 107.406C202.076 107.457 202.16 107.545 202.208 107.652C202.256 107.76 202.264 107.88 202.231 107.993C202.199 108.106 202.128 108.204 202.03 108.27C201.781 108.428 201.587 108.66 201.478 108.934C201.369 109.208 201.348 109.509 201.42 109.795C201.493 110.082 201.653 110.338 201.879 110.527C202.106 110.716 202.386 110.829 202.68 110.85C202.817 110.853 202.947 110.909 203.041 111.008C203.136 111.106 203.188 111.238 203.185 111.375C203.182 111.512 203.126 111.642 203.027 111.736C202.929 111.831 202.797 111.883 202.66 111.88Z" fill="#262246"/>
<path d="M293.19 242.42L263.25 240.6C263.117 240.592 262.993 240.532 262.905 240.432C262.817 240.333 262.772 240.203 262.78 240.07C262.788 239.937 262.848 239.813 262.948 239.725C263.047 239.637 263.177 239.592 263.31 239.6L293.25 241.42C293.383 241.428 293.507 241.488 293.595 241.588C293.683 241.687 293.728 241.817 293.72 241.95C293.712 242.083 293.652 242.207 293.552 242.295C293.453 242.383 293.323 242.428 293.19 242.42Z" fill="white"/>
<path d="M290.42 425.62L266.02 454.62L362.76 481C363.827 479.878 364.641 478.541 365.148 477.078C365.655 475.616 365.843 474.061 365.7 472.52C365.462 470.859 364.847 469.275 363.902 467.888C362.958 466.502 361.708 465.35 360.25 464.52C350.513 461.254 341.645 455.819 334.315 448.625C326.986 441.43 321.386 432.665 317.94 422.99L290.42 425.62Z" fill="#FDC500"/>
<path d="M289.37 426.87C289.37 426.87 297.56 432.28 304.7 429.82C311.84 427.36 314.15 424.82 318.9 425.46L321.82 400.7L290.68 410.7L289.37 426.87Z" fill="#2351FB"/>
<path d="M299.07 282.32C293.31 326.86 287.543 371.397 281.77 415.93L334 397.58L341.62 273.67L299.07 282.32Z" fill="#68003C"/>
<path d="M297.55 294.59C297.475 294.592 297.401 294.577 297.333 294.545C297.265 294.514 297.205 294.468 297.158 294.41C297.111 294.352 297.077 294.284 297.06 294.211C297.043 294.139 297.043 294.063 297.06 293.99L302.48 268.63C302.508 268.497 302.587 268.381 302.701 268.307C302.814 268.233 302.952 268.207 303.085 268.235C303.218 268.263 303.334 268.342 303.408 268.456C303.482 268.569 303.508 268.707 303.48 268.84L298 294.2C297.977 294.305 297.92 294.399 297.839 294.469C297.758 294.54 297.657 294.582 297.55 294.59Z" fill="white"/>
<path d="M205.06 125.31C204.172 125.821 203.395 126.504 202.775 127.32C202.155 128.136 201.704 129.067 201.45 130.06C201.45 130.16 200.82 128.85 214.2 156.51L220.91 149.51L206.31 131.66L205.06 125.31Z" fill="#FDC500"/>
<path d="M221.11 125C221.52 127.37 221.93 129.75 222.35 132.12L220.91 149.53L229.42 153.32L228.76 130.54C226.16 126.21 226.24 125.86 225.62 125.32C224.37 124.21 222.29 124.64 221.11 125Z" fill="#FDC500"/>
<path d="M252 163.84C251.887 163.841 251.778 163.804 251.689 163.735C251.6 163.666 251.537 163.569 251.51 163.46L245.8 139.54C245.769 139.407 245.793 139.268 245.865 139.153C245.937 139.037 246.052 138.955 246.185 138.925C246.318 138.894 246.457 138.918 246.572 138.99C246.687 139.062 246.769 139.177 246.8 139.31L252.51 163.23C252.527 163.305 252.526 163.383 252.508 163.458C252.49 163.533 252.455 163.602 252.406 163.661C252.357 163.72 252.294 163.767 252.224 163.798C252.153 163.829 252.077 163.843 252 163.84Z" fill="#68003C"/>
<path d="M209.85 212.09C209.757 212.092 209.665 212.068 209.586 212.02C209.506 211.973 209.442 211.903 209.4 211.82L184 161.87C183.939 161.752 183.928 161.614 183.967 161.487C184.006 161.36 184.093 161.254 184.21 161.19C184.33 161.133 184.467 161.124 184.594 161.165C184.72 161.206 184.826 161.293 184.89 161.41L210.31 211.41C210.342 211.485 210.354 211.567 210.346 211.648C210.338 211.729 210.31 211.807 210.264 211.875C210.219 211.942 210.157 211.997 210.084 212.035C210.012 212.072 209.932 212.091 209.85 212.09Z" fill="#68003C"/>
<path d="M217.44 161.87L202.73 133.94C202.7 133.882 202.681 133.818 202.676 133.752C202.67 133.687 202.678 133.621 202.698 133.558C202.718 133.495 202.75 133.437 202.792 133.387C202.835 133.337 202.887 133.295 202.945 133.265C203.003 133.235 203.067 133.216 203.133 133.211C203.198 133.205 203.264 133.213 203.327 133.233C203.39 133.253 203.448 133.285 203.498 133.327C203.548 133.37 203.59 133.422 203.62 133.48L217.75 160.32L220.44 151.24C220.453 151.171 220.48 151.105 220.52 151.046C220.56 150.988 220.612 150.939 220.672 150.903C220.732 150.866 220.799 150.842 220.869 150.834C220.939 150.825 221.01 150.831 221.078 150.851C221.145 150.872 221.208 150.907 221.261 150.953C221.314 150.999 221.357 151.057 221.386 151.121C221.416 151.185 221.431 151.254 221.432 151.325C221.433 151.395 221.418 151.465 221.39 151.53L218.39 161.78C218.368 161.884 218.313 161.979 218.234 162.049C218.154 162.12 218.054 162.164 217.948 162.174C217.842 162.184 217.736 162.16 217.644 162.105C217.553 162.051 217.481 161.968 217.44 161.87Z" fill="#68003C"/>
<path d="M229.42 153.81C229.26 153.81 229.8 154.02 220.71 149.98C220.588 149.926 220.493 149.825 220.445 149.7C220.397 149.576 220.401 149.437 220.455 149.315C220.509 149.193 220.61 149.098 220.735 149.05C220.859 149.002 220.998 149.006 221.12 149.06L228.89 152.53L228.26 130.53C228.257 130.399 228.306 130.272 228.396 130.177C228.486 130.082 228.609 130.025 228.74 130.02C228.873 130.02 229.001 130.07 229.097 130.162C229.194 130.253 229.252 130.377 229.26 130.51L229.92 153.28C229.923 153.348 229.912 153.415 229.888 153.479C229.864 153.543 229.828 153.601 229.781 153.65C229.735 153.699 229.679 153.739 229.617 153.766C229.555 153.794 229.488 153.809 229.42 153.81Z" fill="#68003C"/>
<path d="M235.39 192.14C234.97 192.14 236.23 193.81 216.18 163.62C216.108 163.51 216.082 163.375 216.108 163.246C216.134 163.117 216.21 163.003 216.32 162.93C216.374 162.893 216.435 162.867 216.5 162.854C216.564 162.841 216.63 162.841 216.695 162.854C216.759 162.867 216.82 162.893 216.874 162.93C216.928 162.967 216.975 163.015 217.01 163.07L235.8 191.36C235.851 191.435 235.88 191.522 235.885 191.612C235.89 191.703 235.87 191.793 235.828 191.873C235.786 191.953 235.723 192.02 235.646 192.067C235.569 192.114 235.48 192.139 235.39 192.14Z" fill="#68003C"/>
<path d="M308.75 220.61L329.41 212.69L344.94 222.45C345.355 222.729 345.662 223.141 345.811 223.618C345.961 224.095 345.943 224.609 345.761 225.074C345.58 225.54 345.245 225.93 344.812 226.18C344.379 226.43 343.874 226.525 343.38 226.45L331.38 220.65L342.56 230.17C342.813 230.577 342.931 231.054 342.896 231.532C342.86 232.01 342.674 232.464 342.363 232.829C342.053 233.194 341.634 233.451 341.168 233.563C340.702 233.674 340.212 233.635 339.77 233.45L328.08 225.93L336.92 236.34C337.085 236.784 337.1 237.27 336.964 237.724C336.828 238.177 336.547 238.575 336.165 238.855C335.783 239.135 335.321 239.283 334.847 239.277C334.373 239.271 333.914 239.11 333.54 238.82L325.15 230.17L329.65 240.17C329.79 240.584 329.799 241.03 329.675 241.449C329.552 241.868 329.302 242.238 328.96 242.51C328.488 242.813 327.917 242.92 327.368 242.808C326.819 242.696 326.335 242.374 326.02 241.91L320.56 234.12L314.46 237.81C313.676 238.28 312.772 238.513 311.858 238.481C310.945 238.449 310.06 238.154 309.31 237.63L304.81 234.46C306.123 229.847 307.437 225.23 308.75 220.61Z" fill="#E87700"/>
<path d="M347.19 71.71C347.137 66.6887 348.015 61.7011 349.78 57C350.98 53.89 352.2 52.09 354.11 50.9C355.454 50.0731 356.984 49.5953 358.56 49.51C363.367 43.51 368.17 37.51 372.97 31.51C373.372 31.1929 373.869 31.0197 374.38 31.018C374.892 31.0162 375.39 31.186 375.794 31.5003C376.198 31.8146 376.485 32.2552 376.61 32.7518C376.734 33.2484 376.688 33.7724 376.48 34.24L365.7 51.59C368.81 50.96 371.12 54.22 368.7 56.65C372.55 56.25 373.81 60.33 371.42 63.01C375.42 61.1 375.91 65.94 374.28 70.01L367.43 80.9C366.905 81.7394 366.176 82.4313 365.31 82.9107C364.444 83.3901 363.47 83.641 362.48 83.64H355.85L347.19 71.71Z" fill="#E87700"/>
<path d="M356.23 73.51C356.146 73.511 356.062 73.4907 355.988 73.4508C355.913 73.4109 355.85 73.3528 355.804 73.2819C355.758 73.211 355.731 73.1296 355.725 73.0453C355.719 72.9611 355.735 72.8767 355.77 72.8C356.534 71.0925 356.975 69.2582 357.07 67.39C357.206 65.0721 356.766 62.7566 355.79 60.65C355.739 60.5408 355.729 60.4168 355.762 60.301C355.796 60.1851 355.87 60.0851 355.971 60.0194C356.072 59.9537 356.193 59.9267 356.312 59.9433C356.432 59.9599 356.541 60.0191 356.62 60.11L360.39 64.91C360.664 65.2268 361.03 65.4497 361.437 65.5475C361.844 65.6453 362.271 65.613 362.659 65.4551C363.046 65.2972 363.374 65.0217 363.597 64.6673C363.82 64.313 363.926 63.8977 363.9 63.48L359.52 51C359.478 50.8739 359.487 50.7366 359.545 50.617C359.603 50.4975 359.705 50.4053 359.83 50.36C359.892 50.3381 359.957 50.3287 360.023 50.3325C360.088 50.3363 360.152 50.3531 360.211 50.382C360.269 50.4109 360.322 50.4513 360.364 50.5008C360.407 50.5502 360.44 50.6077 360.46 50.67C365.19 64.15 364.91 63.29 364.91 63.42C364.956 64.0514 364.802 64.6813 364.469 65.2195C364.135 65.7577 363.64 66.1766 363.054 66.4163C362.468 66.656 361.821 66.7042 361.206 66.554C360.591 66.4038 360.04 66.0628 359.63 65.58L357.69 63.11C358.466 66.5023 358.115 70.0552 356.69 73.23C356.649 73.3165 356.584 73.3891 356.502 73.4388C356.42 73.4886 356.326 73.5133 356.23 73.51Z" fill="#68003C"/>
<path d="M366.48 72.93C366.075 72.9378 365.674 72.8512 365.308 72.6772C364.942 72.5031 364.622 72.2464 364.373 71.9272C364.124 71.608 363.952 71.2352 363.872 70.8382C363.791 70.4412 363.804 70.031 363.91 69.64C363.457 69.6342 363.015 69.5014 362.634 69.2566C362.252 69.0118 361.947 68.6649 361.754 68.2554C361.56 67.8459 361.485 67.3903 361.537 66.9403C361.59 66.4903 361.767 66.064 362.05 65.71C362.085 65.6504 362.133 65.5987 362.189 65.5583C362.245 65.518 362.31 65.4898 362.377 65.4755C362.445 65.4612 362.515 65.4612 362.583 65.4755C362.651 65.4897 362.715 65.5179 362.771 65.5583C362.828 65.5986 362.875 65.6502 362.91 65.7099C362.946 65.7695 362.968 65.8358 362.977 65.9046C362.985 65.9734 362.979 66.0432 362.959 66.1096C362.939 66.1759 362.905 66.2373 362.86 66.29C361.86 67.7 363.18 68.92 364.59 68.6C364.686 68.5805 364.786 68.5898 364.877 68.6268C364.968 68.6637 365.046 68.7267 365.102 68.8077C365.157 68.8888 365.188 68.9844 365.189 69.0826C365.191 69.1808 365.163 69.2773 365.11 69.36C364.917 69.6329 364.812 69.9583 364.809 70.2927C364.806 70.627 364.905 70.9542 365.093 71.2306C365.281 71.5069 365.55 71.7191 365.862 71.8387C366.174 71.9584 366.515 71.9798 366.84 71.9L373.63 66.39C373.733 66.3216 373.858 66.2941 373.981 66.3126C374.103 66.3311 374.215 66.3945 374.293 66.4903C374.371 66.5862 374.411 66.7078 374.405 66.8315C374.399 66.9552 374.348 67.0723 374.26 67.16L367.38 72.75C367.098 72.8789 366.79 72.9406 366.48 72.93Z" fill="#68003C"/>
<path d="M362 57.12C361.908 57.1205 361.818 57.0956 361.739 57.048C361.66 57.0004 361.596 56.932 361.554 56.8503C361.511 56.7686 361.492 56.6768 361.499 56.585C361.505 56.4932 361.537 56.405 361.59 56.33L365.27 51.33C365.348 51.2226 365.466 51.1506 365.597 51.13C365.729 51.1094 365.863 51.1417 365.97 51.22C366.078 51.2982 366.15 51.4159 366.17 51.5472C366.191 51.6785 366.158 51.8126 366.08 51.92C362.2 57.24 362.39 57.12 362 57.12Z" fill="#68003C"/>
<path d="M363.87 61.5C363.767 61.501 363.667 61.4705 363.582 61.4124C363.498 61.3544 363.433 61.2717 363.397 61.1756C363.361 61.0795 363.355 60.9746 363.381 60.8752C363.406 60.7758 363.462 60.6867 363.54 60.62L368.76 56.24C368.81 56.1971 368.867 56.1646 368.929 56.1443C368.992 56.1241 369.057 56.1166 369.123 56.1222C369.188 56.1277 369.251 56.1464 369.309 56.1769C369.367 56.2075 369.419 56.2493 369.46 56.3C369.545 56.4028 369.586 56.5345 369.575 56.6672C369.563 56.7999 369.501 56.9229 369.4 57.01C363.72 61.77 364.12 61.5 363.87 61.5Z" fill="#68003C"/>
<path d="M364.7 69.59C364.599 69.5907 364.5 69.5607 364.416 69.5039C364.332 69.4472 364.267 69.3663 364.231 69.272C364.194 69.1777 364.186 69.0744 364.209 68.9759C364.233 68.8773 364.285 68.7881 364.36 68.72L371.08 62.64C371.126 62.5931 371.182 62.5559 371.243 62.5305C371.304 62.5051 371.369 62.4921 371.435 62.4921C371.501 62.4921 371.566 62.5051 371.627 62.5305C371.688 62.5559 371.744 62.5931 371.79 62.64C371.882 62.7334 371.933 62.8591 371.933 62.99C371.933 63.1208 371.882 63.2465 371.79 63.34C364.43 70 365 69.59 364.7 69.59Z" fill="#68003C"/>
<path d="M358.17 474.58C358.06 474.58 361.9 475.7 275.48 450.16C275.354 450.119 275.248 450.03 275.184 449.913C275.121 449.796 275.105 449.659 275.14 449.53C275.182 449.404 275.27 449.299 275.388 449.237C275.506 449.175 275.643 449.162 275.77 449.2L358.32 473.6C358.437 473.634 358.537 473.709 358.602 473.811C358.667 473.913 358.693 474.036 358.675 474.156C358.656 474.276 358.595 474.385 358.502 474.463C358.409 474.541 358.291 474.582 358.17 474.58Z" fill="#68003C"/>
<path d="M380.76 422.66C380.627 422.673 380.495 422.633 380.392 422.549C380.289 422.465 380.223 422.343 380.21 422.21C380.197 422.077 380.237 421.945 380.321 421.842C380.406 421.739 380.527 421.673 380.66 421.66L461.66 405.05C461.724 405.035 461.79 405.034 461.854 405.045C461.919 405.056 461.98 405.08 462.035 405.116C462.09 405.151 462.137 405.197 462.174 405.251C462.211 405.305 462.237 405.366 462.25 405.43C462.265 405.494 462.266 405.561 462.254 405.626C462.242 405.691 462.217 405.753 462.181 405.808C462.144 405.863 462.097 405.91 462.042 405.947C461.987 405.983 461.925 406.008 461.86 406.02C377.05 423.43 380.86 422.66 380.76 422.66Z" fill="#68003C"/>
<path d="M329.64 458.45C326.87 456.09 334.64 450.87 332.92 449.26C332.02 448.44 329.65 449.74 327.55 450.88C325.09 452.22 322.77 453.48 321.49 452.34C321.346 452.215 321.229 452.062 321.146 451.89C321.063 451.718 321.017 451.531 321.01 451.34C320.9 448.92 327.62 444.02 326.46 443.15C324.67 441.81 317.18 447.87 316.03 444.38C315.03 441.47 321.63 437.63 321.57 436.23C321.57 436.23 321.57 436.18 321.51 436.14C320.94 435.68 318.6 436.33 316.89 436.81C314.65 437.44 310.89 438.63 310.69 436.31C310.4 433.15 317.25 430.7 318.03 430.43C318.093 430.401 318.162 430.386 318.231 430.386C318.3 430.385 318.369 430.399 318.433 430.426C318.496 430.453 318.554 430.493 318.601 430.544C318.648 430.595 318.685 430.655 318.708 430.72C318.731 430.785 318.74 430.855 318.734 430.924C318.729 430.993 318.71 431.06 318.677 431.121C318.644 431.183 318.599 431.236 318.545 431.279C318.49 431.322 318.427 431.353 318.36 431.37C315.69 432.29 311.52 434.42 311.69 436.22C311.687 436.283 311.699 436.345 311.728 436.401C311.756 436.457 311.798 436.505 311.85 436.54C312.52 437 314.79 436.36 316.62 435.85C319.05 435.17 321.16 434.58 322.13 435.35C324.55 437.28 316.13 441.64 316.98 444.07C317.65 446.07 324.7 440.58 327.06 442.35C329.58 444.24 321.91 449.22 322.01 451.3C322.011 451.357 322.024 451.413 322.048 451.465C322.073 451.516 322.107 451.562 322.15 451.6C322.9 452.27 325.15 451.07 327.07 450C329.58 448.64 332.18 447.22 333.59 448.53C335 449.84 333.49 451.88 331.98 453.82C330.47 455.76 329.54 457.05 330.29 457.69C331.83 459 335.17 455.54 336.41 453.96C336.448 453.903 336.498 453.855 336.555 453.819C336.613 453.782 336.678 453.758 336.745 453.747C336.812 453.736 336.881 453.739 336.947 453.756C337.014 453.773 337.075 453.803 337.13 453.845C337.184 453.887 337.228 453.939 337.261 453.999C337.295 454.058 337.315 454.124 337.322 454.192C337.328 454.26 337.321 454.329 337.3 454.394C337.279 454.459 337.245 454.519 337.2 454.57C335.45 456.83 331.83 460.31 329.64 458.45Z" fill="#68003C"/>
<path d="M431.45 404.88C431.214 404.892 430.979 404.847 430.764 404.748C430.55 404.648 430.363 404.498 430.22 404.31C429.57 403.37 430.14 401.63 430.8 399.62C431.28 398.15 431.88 396.32 431.53 395.7C431.502 395.651 431.463 395.61 431.416 395.579C431.369 395.548 431.316 395.527 431.26 395.52C430.26 395.27 428.66 397.22 427.26 398.94C425.45 401.19 423.75 403.32 421.95 402.94C418.36 402.15 422.12 394.36 420.82 392.48C420.39 391.84 417.35 394.62 416.76 395.15C414.43 397.2 412.01 399.32 410.31 398.77C408.14 398.08 409.8 394.87 410.77 392.82C413.08 387.97 412.77 387.43 407.66 390.47C404.91 392.1 401.8 393.94 400.44 391.96C398.33 388.86 404.35 382.17 405.04 381.42C405.13 381.322 405.256 381.264 405.389 381.258C405.522 381.252 405.652 381.3 405.75 381.39C405.848 381.48 405.907 381.606 405.912 381.739C405.918 381.872 405.87 382.002 405.78 382.1C404.05 383.98 399.86 389.32 401.27 391.4C402.1 392.61 404.78 391.01 407.15 389.61C409.52 388.21 411.44 387.07 412.56 387.85C413.83 388.72 412.78 390.92 411.67 393.25C410.92 394.84 409.98 396.82 410.3 397.56C410.326 397.626 410.368 397.684 410.422 397.73C410.476 397.775 410.541 397.806 410.61 397.82C411.78 398.19 414.17 396.09 416.1 394.4C418.31 392.45 419.7 391.26 420.81 391.4C424.11 391.81 419.63 401.4 422.16 401.96C423.37 402.22 425.02 400.16 426.48 398.34C428.2 396.2 429.82 394.17 431.48 394.56C434.84 395.37 429.25 403.81 431.38 403.9C433.51 403.99 435.88 399.05 436.99 395.9C437.038 395.779 437.131 395.681 437.25 395.628C437.368 395.574 437.503 395.569 437.625 395.613C437.748 395.657 437.848 395.748 437.905 395.865C437.962 395.982 437.971 396.116 437.93 396.24C437.64 397.13 434.8 404.88 431.45 404.88Z" fill="#68003C"/>
</svg>
