<svg width="404" height="404" viewBox="0 0 404 404" fill="none" xmlns="http://www.w3.org/2000/svg">
<path d="M97.0775 284.156C97.0775 284.156 85.8486 292.251 87.8007 302.072C89.7527 311.894 89.8015 327.906 101.543 330.273C113.284 332.64 119.178 318.555 113.155 310.629C107.132 302.703 97.0775 284.156 97.0775 284.156Z" fill="#7738C7"/>
<path d="M89.1464 192.237C89.1464 192.237 125.431 236.425 135.95 235.406C146.469 234.388 156.254 231.736 167.135 227.143C178.016 222.55 194.666 233.679 194.666 233.679L177.842 255.128C177.842 255.128 228.863 273.977 233.976 275.605C239.089 277.234 278.928 310.528 283.611 315.03C288.294 319.531 292.347 335.592 267.249 334.471C271.476 356.189 247.221 347.164 247.221 347.164C250.146 353.061 247.551 361.777 231.264 360.296C231.809 369.539 220.972 378.872 205.384 374.934C180.137 366.407 138.37 355.243 121.493 327.147C113.326 313.553 100.07 300.451 88.5613 290.548C76.2855 279.984 37.8035 255.971 37.8035 255.971L89.1464 192.237Z" fill="#FEAC7C"/>
<path d="M263.337 235.246C263.337 235.246 226.236 209.555 190.278 228.963C154.319 248.371 147.119 249.705 143.872 257.527C140.625 265.349 159.149 270.563 170.17 265.492C181.191 260.42 194.476 260.636 198.187 262.779C201.898 264.922 224.695 283.101 230.582 287.035C236.469 290.97 283.833 315.05 283.833 315.05C283.833 315.05 293.559 312.106 301.572 301.821C309.586 291.535 308.659 286.983 308.659 286.983L358.94 265.275L317.25 199.424L263.337 235.246Z" fill="#7738C7"/>
<path d="M122.526 328.629L128.759 336.343C128.759 336.343 139.76 333.665 144.024 337.499C148.289 341.333 145.853 348.506 145.853 348.506C145.853 348.506 155.594 340.556 162.713 346.874C169.831 353.192 163.913 359.271 163.913 359.271C163.913 359.271 170.839 355.847 175.614 358.639C180.389 361.43 180.917 366.884 180.917 366.884C180.917 366.884 172.722 384.645 160.664 384.396C148.607 384.148 149.794 374.477 149.794 374.477C149.794 374.477 139.348 379.913 132.793 374.354C126.238 368.795 128.432 362.212 128.432 362.212C128.432 362.212 114.984 364.045 113.858 348.758C112.731 333.471 122.526 328.629 122.526 328.629Z" fill="#7738C7"/>
<path d="M23.2763 254.318C21.7285 260.095 62.6974 293.075 75.1378 286.579C87.5782 280.082 125.591 228.523 126.005 221.612C126.42 214.701 94.5633 177.469 85.0638 178.293C75.5903 179.114 23.2763 226.834 23.2763 254.318Z" fill="#7738C7"/>
<path d="M298.516 204.978C298.516 204.978 284.442 211.82 286.006 219.835C287.569 227.849 314.155 285.321 320.02 287.276C325.884 289.231 341.327 281.607 341.327 281.607L298.516 204.978Z" fill="white"/>
<path d="M345.621 155.9C345.621 155.9 291.436 198.474 291.989 204.556C292.542 210.638 325.717 281.963 335.116 285.833C344.516 289.704 380.897 272.011 380.897 263.717C380.897 255.424 365.526 138.207 345.621 155.9Z" fill="#FF4B3D"/>
<path d="M113.808 47.0413C128.555 47.1379 142.665 53.0641 153.059 63.5263C163.452 73.9885 169.286 88.1373 169.285 102.885C169.285 116.845 164.056 130.299 154.628 140.595C145.201 150.891 132.259 157.283 118.353 158.51C113.906 164.455 107.336 169.94 98.4959 169C84.6177 167.523 97.2732 166.042 103.459 157.829C90.5909 155.49 78.9514 148.71 70.5704 138.669C62.1894 128.628 57.5987 115.964 57.5986 102.885C57.5987 88.0741 63.4822 73.8702 73.9549 63.3975C84.4275 52.9248 98.6315 47.0413 113.442 47.0413C113.564 47.0409 113.686 47.0409 113.808 47.0413Z" fill="#FFC517"/>
<path d="M137.555 77.4038C136.641 77.4351 135.621 77.7312 134.617 78.3218C130.819 80.556 112.981 95.5682 102.563 106.683C98.6632 102.977 92.6159 97.648 89.199 95.6381C85.1832 93.2758 80.9316 95.6376 84.1206 100.716C84.1206 100.716 89.051 114.819 97.2008 122.26C97.5578 122.586 97.9194 122.865 98.2809 123.123C99.5945 124.48 101.493 125.12 103.595 124.72C103.597 124.72 103.598 124.72 103.599 124.72C104.946 124.577 106.158 124.01 107.106 123.113C107.458 122.856 107.811 122.58 108.161 122.26C116.311 114.819 139.698 83.4002 139.698 83.4002C142.089 79.5911 140.295 77.3096 137.555 77.4038Z" fill="white"/>
<path d="M278.625 19.7305C269.853 19.7305 261.167 21.4583 253.063 24.8153C244.959 28.1722 237.596 33.0925 231.393 39.2952C225.191 45.498 220.271 52.8617 216.914 60.9659C213.558 69.0701 211.83 77.7561 211.83 86.5279C211.831 100.526 216.23 114.171 224.405 125.534C232.581 136.897 244.12 145.405 257.392 149.855C262.45 170.069 283.571 174.87 291.949 174.87C305.501 174.87 288.354 171.358 282.408 153.213C299.44 152.247 315.458 144.8 327.174 132.401C338.891 120.001 345.419 103.588 345.42 86.5279C345.42 77.7561 343.693 69.0701 340.336 60.9659C336.98 52.8617 332.06 45.498 325.857 39.2952C319.655 33.0925 312.291 28.1722 304.187 24.8153C296.083 21.4583 287.397 19.7305 278.625 19.7305Z" fill="#FFC517"/>
<path d="M211.885 89.2389C212.435 102.764 217.081 115.802 225.208 126.627C233.335 137.451 244.559 145.552 257.392 149.855C262.45 170.069 283.571 174.87 291.949 174.87C305.502 174.87 288.354 171.358 282.408 153.213C297.783 152.341 312.384 146.183 323.74 135.782C312.395 136.584 300.012 136.525 286.568 135.175C249.632 131.466 226.353 110.999 211.885 89.2389Z" fill="#FFAC17"/>
<path d="M276.829 43.5421C276.167 43.5418 275.512 43.6718 274.901 43.9247C274.29 44.1775 273.735 44.5483 273.267 45.0158C272.799 45.4833 272.428 46.0384 272.175 46.6494C271.922 47.2603 271.792 47.9152 271.792 48.5765V53.4184C269.946 54.2179 268.122 55.3461 266.39 56.8266C262.1 60.4958 259.637 64.733 259.035 68.9456C258.433 73.1582 259.646 76.9632 261.268 79.8938C264.328 85.4261 268.923 88.6418 269.445 88.9973C269.592 89.1116 269.746 89.2176 269.905 89.3149C269.905 89.3149 277.769 94.1471 283.203 99.8702C285.92 102.732 287.796 105.802 288.157 107.652C288.517 109.502 288.629 110.245 285.519 112.356C278.427 117.17 274.983 115.724 271.849 113.633C268.715 111.543 266.859 108.214 266.859 108.214C266.552 107.627 266.133 107.107 265.626 106.682C265.118 106.258 264.531 105.937 263.9 105.74C263.268 105.542 262.604 105.471 261.944 105.53C261.285 105.59 260.644 105.778 260.058 106.086C258.876 106.705 257.989 107.767 257.59 109.04C257.191 110.312 257.313 111.691 257.93 112.874C257.93 112.874 260.628 118.254 266.26 122.011C267.827 123.056 269.702 123.916 271.792 124.491V129.156C271.791 129.817 271.922 130.472 272.175 131.083C272.428 131.695 272.799 132.25 273.266 132.718C273.734 133.186 274.29 133.557 274.901 133.81C275.512 134.063 276.167 134.193 276.829 134.193C277.49 134.192 278.145 134.062 278.756 133.809C279.367 133.556 279.922 133.185 280.389 132.717C280.857 132.249 281.228 131.694 281.481 131.083C281.733 130.472 281.863 129.817 281.863 129.156V124.751C284.861 124.119 288.006 122.842 291.177 120.689C296.632 116.986 299.052 110.878 298.049 105.729C297.046 100.581 293.882 96.4944 290.498 92.9313C284.035 86.1245 276.09 81.2933 275.372 80.8618C275.316 80.8192 271.857 78.2207 270.082 75.0131C269.188 73.3961 268.784 71.88 269 70.3689C269.216 68.8578 270.014 66.975 272.937 64.476C275.516 62.2707 277.191 61.9565 278.702 62.0589C280.213 62.1616 281.864 62.9236 283.481 64.2028C286.716 66.7611 289.06 70.8476 289.06 70.8476C289.374 71.4295 289.799 71.9438 290.312 72.3612C290.825 72.7787 291.415 73.091 292.048 73.2804C292.682 73.4698 293.346 73.5326 294.004 73.4652C294.662 73.3977 295.3 73.2014 295.881 72.8874C296.463 72.5732 296.978 72.1474 297.395 71.6344C297.813 71.1213 298.125 70.531 298.314 69.8973C298.503 69.2635 298.566 68.5987 298.498 67.9408C298.43 67.2829 298.233 66.6448 297.919 66.063C297.919 66.063 295.055 60.514 289.731 56.3039C287.612 54.628 284.974 53.0918 281.863 52.3856V48.5766C281.863 47.2414 281.333 45.961 280.389 45.0169C279.444 44.0728 278.164 43.5422 276.829 43.5421Z" fill="white"/>
<path d="M57.6228 104.527C57.9994 117.319 62.7578 129.593 71.1017 139.295C79.4455 148.998 90.8685 155.54 103.459 157.828C97.2731 166.042 84.6177 167.523 98.4958 168.999C107.336 169.939 113.906 164.454 118.353 158.51C129.523 157.524 140.137 153.198 148.814 146.095C157.491 138.992 163.829 129.441 167.003 118.686C158.118 126.902 142.149 134.514 113.4 134.514C85.5691 134.514 68.2645 120.296 57.6228 104.527Z" fill="#FFAC17"/>
<path d="M71.6558 268.179C71.6558 269.214 71.452 270.239 71.0561 271.195C70.6601 272.15 70.0798 273.019 69.3481 273.751C68.6165 274.482 67.7479 275.063 66.792 275.459C65.8361 275.855 64.8116 276.058 63.7769 276.058C62.7422 276.058 61.7177 275.855 60.7617 275.459C59.8058 275.063 58.9373 274.482 58.2056 273.751C57.474 273.019 56.8937 272.15 56.4977 271.195C56.1017 270.239 55.8979 269.214 55.8979 268.179C55.898 266.09 56.7281 264.086 58.2056 262.608C59.6832 261.131 61.6873 260.3 63.7769 260.3C65.8665 260.3 67.8705 261.131 69.3481 262.608C70.8257 264.086 71.6558 266.09 71.6558 268.179Z" fill="white"/>
<path d="M163.913 359.271L149.794 374.477C149.794 374.477 152.38 367.979 155.974 365.076C159.568 362.174 163.913 359.271 163.913 359.271Z" fill="#171D8F"/>
<path d="M145.853 348.506C145.853 348.506 131.785 361.697 128.433 362.212C125.08 362.727 132.614 353.189 137.936 351.599C143.257 350.01 145.853 348.506 145.853 348.506Z" fill="#171D8F"/>
<path d="M128.759 336.343C128.759 336.343 123.629 340.196 120.865 338.33C118.1 336.463 122.527 328.63 122.527 328.63L128.759 336.343Z" fill="#171D8F"/>
<path d="M195.809 261.807C195.809 261.807 196.132 262.247 196.221 262.37C197.157 262.593 197.942 262.863 198.494 263.182C202.211 265.328 225.043 283.535 230.939 287.476C233.592 289.249 244.677 295.112 256.044 301.02C258.362 297.389 259.448 292.412 261.154 287.556C264.754 277.312 281.368 269.006 259.77 271.775C238.173 274.544 195.809 261.807 195.809 261.807Z" fill="#171D8F"/>
</svg>
