<svg width="441" height="441" viewBox="0 0 441 441" fill="none" xmlns="http://www.w3.org/2000/svg">
<path d="M177.744 248.054L388.778 248.054C395.361 248.054 400.698 242.717 400.698 236.133V79.7245C400.698 73.1408 395.361 67.8037 388.778 67.8037L177.744 67.8037C171.16 67.8037 165.823 73.1408 165.823 79.7245L165.823 236.133C165.823 242.717 171.16 248.054 177.744 248.054Z" fill="#AAEEEA"/>
<path d="M382.464 86.5549C385.218 86.5549 387.451 84.3221 387.451 81.5678C387.451 78.8135 385.218 76.5807 382.464 76.5807C379.71 76.5807 377.477 78.8135 377.477 81.5678C377.477 84.3221 379.71 86.5549 382.464 86.5549Z" fill="#00CCC1"/>
<path d="M357.856 86.5549C360.61 86.5549 362.843 84.3221 362.843 81.5678C362.843 78.8135 360.61 76.5807 357.856 76.5807C355.102 76.5807 352.869 78.8135 352.869 81.5678C352.869 84.3221 355.102 86.5549 357.856 86.5549Z" fill="#00CCC1"/>
<path d="M333.248 86.5549C336.002 86.5549 338.235 84.3221 338.235 81.5678C338.235 78.8135 336.002 76.5807 333.248 76.5807C330.494 76.5807 328.261 78.8135 328.261 81.5678C328.261 84.3221 330.494 86.5549 333.248 86.5549Z" fill="#00CCC1"/>
<path fill-rule="evenodd" clip-rule="evenodd" d="M248.743 200.689C248.126 200.347 247.596 199.868 247.194 199.288C246.792 198.708 246.529 198.044 246.425 197.346C246.321 196.648 246.379 195.936 246.594 195.264C246.809 194.592 247.176 193.979 247.666 193.472C250.81 190.242 254.557 184.41 255.883 174.419C258.252 156.142 254.411 127.856 279.182 119.156C303.954 110.457 319.751 121.637 325.298 135.685C330.294 148.321 319.76 179.949 336.788 195.211C337.386 195.745 337.834 196.426 338.086 197.187C338.338 197.948 338.386 198.761 338.225 199.546C338.063 200.332 337.698 201.061 337.167 201.66C336.635 202.26 335.955 202.709 335.195 202.963C318.502 208.665 280.216 218.286 248.743 200.689Z" fill="#FFB833"/>
<path d="M292.335 223.954C298.49 223.954 303.48 218.964 303.48 212.808C303.48 206.653 298.49 201.663 292.335 201.663C286.179 201.663 281.189 206.653 281.189 212.808C281.189 218.964 286.179 223.954 292.335 223.954Z" fill="#FFB833"/>
<path d="M292.335 130.336C298.49 130.336 303.48 125.346 303.48 119.191C303.48 113.035 298.49 108.045 292.335 108.045C286.179 108.045 281.189 113.035 281.189 119.191C281.189 125.346 286.179 130.336 292.335 130.336Z" fill="#FFB833"/>
<path d="M333.248 155.513C347.219 155.513 358.545 144.187 358.545 130.216C358.545 116.244 347.219 104.918 333.248 104.918C319.277 104.918 307.951 116.244 307.951 130.216C307.951 144.187 319.277 155.513 333.248 155.513Z" fill="#FFF3E3"/>
<path fill-rule="evenodd" clip-rule="evenodd" d="M323.162 123.101C323.162 123.101 324.764 126.624 326.047 126.546C327.33 126.469 329.251 123.446 329.889 123.101C330.526 122.756 328.166 144.135 329.027 144.634C329.889 145.134 336.504 143.566 337.141 142.817C337.778 142.067 338.209 116.116 337.141 115.254C336.073 114.393 332.128 114.083 331.379 114.083C330.629 114.083 323.162 123.101 323.162 123.101Z" fill="#00CCC1"/>
<path fill-rule="evenodd" clip-rule="evenodd" d="M244.54 103.032L259.277 126.943L236.004 110.93L244.54 103.032Z" fill="#FFB833"/>
<path fill-rule="evenodd" clip-rule="evenodd" d="M251.379 137.408L223.609 136.727L226.142 144.772L251.379 137.408Z" fill="#FFB833"/>
<path fill-rule="evenodd" clip-rule="evenodd" d="M246.366 152.352L227.597 163.446L233.437 172.636L246.366 152.352Z" fill="#FFB833"/>
<path d="M88.958 146.426C88.958 146.426 85.8572 164.85 96.977 180.224C108.097 195.599 50.5514 225.875 89.5781 249.372C128.605 272.869 210.629 241.172 218.941 217.744C227.253 194.316 210.767 189.26 209.69 171.232C208.614 153.204 217.752 137.795 209.69 114.798C201.628 91.8003 88.958 146.426 88.958 146.426Z" fill="#383333"/>
<path d="M97.7866 150.293C97.7866 150.293 93.945 163.213 102.955 173.919C111.964 184.626 113.489 213.205 93.2732 226.46" stroke="white" stroke-linecap="round" stroke-linejoin="round"/>
<path d="M117.287 169.621C122.751 176.868 125.487 185.808 125.014 194.872C124.542 203.935 120.891 212.543 114.703 219.182" stroke="white" stroke-linecap="round" stroke-linejoin="round"/>
<path d="M197.511 152.748C197.511 152.748 187.175 169.01 197.511 179.897C207.847 190.784 209.096 210.147 199.277 219.044" stroke="white" stroke-linecap="round" stroke-linejoin="round"/>
<path d="M178.295 168.502C178.295 168.502 167.787 209.303 192.937 219.044" stroke="white" stroke-linecap="round" stroke-linejoin="round"/>
<path d="M234.006 36.4255H233.403C232.889 36.4255 232.472 36.842 232.472 37.3558V50.3015C232.472 50.8153 232.889 51.2318 233.403 51.2318H234.006C234.519 51.2318 234.936 50.8153 234.936 50.3015V37.3558C234.936 36.842 234.519 36.4255 234.006 36.4255Z" fill="#FFB833"/>
<path d="M226.305 43.5229V44.1258C226.305 44.6395 226.722 45.056 227.236 45.056H240.181C240.695 45.056 241.112 44.6395 241.112 44.1258V43.5229C241.112 43.0091 240.695 42.5926 240.181 42.5926H227.236C226.722 42.5926 226.305 43.0091 226.305 43.5229Z" fill="#FFB833"/>
<path d="M262.955 269.208H262.352C261.838 269.208 261.422 269.625 261.422 270.138V283.084C261.422 283.598 261.838 284.014 262.352 284.014H262.955C263.469 284.014 263.885 283.598 263.885 283.084V270.138C263.885 269.625 263.469 269.208 262.955 269.208Z" fill="#FFB833"/>
<path d="M255.255 276.314V276.917C255.255 277.431 255.671 277.847 256.185 277.847H269.131C269.644 277.847 270.061 277.431 270.061 276.917V276.314C270.061 275.8 269.644 275.384 269.131 275.384H256.185C255.671 275.384 255.255 275.8 255.255 276.314Z" fill="#FFB833"/>
<path d="M64.772 179.294H63.6092C63.0954 179.294 62.679 179.711 62.679 180.224V196.512C62.679 197.026 63.0954 197.442 63.6092 197.442H64.772C65.2857 197.442 65.7022 197.026 65.7022 196.512V180.224C65.7022 179.711 65.2857 179.294 64.772 179.294Z" fill="#FFB833"/>
<path d="M55.1165 187.787V188.95C55.1165 189.463 55.5329 189.88 56.0467 189.88H72.3344C72.8482 189.88 73.2646 189.463 73.2646 188.95V187.787C73.2646 187.273 72.8482 186.856 72.3344 186.856H56.0467C55.5329 186.856 55.1165 187.273 55.1165 187.787Z" fill="#FFB833"/>
<path d="M195.642 210.095C202.531 210.382 209.264 212.231 215.332 215.504C236.262 227.081 242.188 254.376 250.354 294.505C252.464 304.919 254.876 318.735 256.616 335.22L215.194 332.473C213.11 326.745 211.086 320.707 209.165 314.385C209.165 314.385 206.176 304.436 203.833 294.419C200.689 280.793 196.521 250.414 195.642 210.095Z" fill="#FFDB99"/>
<path d="M100.827 132.386C99.6711 131.284 98.3005 130.433 96.8008 129.885C95.3011 129.336 93.7044 129.103 92.1105 129.199C90.1746 129.31 88.3274 130.048 86.8477 131.301C82.1363 135.909 84.2638 150.095 92.6789 153.575C97.3732 155.513 102.266 153.394 103.919 152.584C102.886 145.86 101.855 139.127 100.827 132.386Z" fill="#FFC871"/>
<path d="M88.958 136.46L96.977 135.918C96.977 135.918 88.9149 141.18 95.9003 147.632" stroke="#383333" stroke-width="0.75" stroke-linecap="round" stroke-linejoin="round"/>
<path d="M199.699 132.722C200.791 131.592 202.104 130.7 203.557 130.1C205.009 129.499 206.569 129.205 208.14 129.234C210.052 129.259 211.903 129.909 213.411 131.086C218.252 135.392 216.736 149.475 208.614 153.247C204.075 155.358 199.139 153.471 197.511 152.748C198.235 146.075 198.964 139.4 199.699 132.722Z" fill="#FFC871"/>
<path d="M211.602 136.167L203.687 135.978C203.687 135.978 211.844 140.81 205.246 147.459" stroke="#383333" stroke-width="0.75" stroke-linecap="round" stroke-linejoin="round"/>
<path d="M151.353 175.074C183.591 175.074 209.725 148.939 209.725 116.701C209.725 84.4632 183.591 58.3291 151.353 58.3291C119.115 58.3291 92.9805 84.4632 92.9805 116.701C92.9805 148.939 119.115 175.074 151.353 175.074Z" fill="#FFDB99"/>
<path d="M134.522 170.457C136.624 190.095 131.654 199.484 126.77 204.436C117.623 213.704 104.806 211.396 95.2974 223.799C93.9882 225.522 90.7324 230.095 88.6738 239.535C82.5412 267.658 96.2191 293.282 100.612 317.718C103.385 333.119 103.937 356.28 91.5076 387.176C106.098 394.043 121.647 398.652 137.623 400.845C176.667 406.168 208.071 395.479 223.601 388.89C214.023 357.572 211.827 331.758 211.646 313.73C211.137 264.393 225.427 229.63 207.632 215.814C197.106 207.632 184.789 214.178 174.221 203.222C164.746 193.403 164.497 178.028 165.987 165.935C165.995 165.935 141.878 160.448 134.522 170.457Z" fill="#FFDB99"/>
<path d="M92.9372 111.361C92.7994 115.806 92.0759 157.011 120.836 176.865C124.643 179.501 135.134 186.762 150.164 186.977C166.322 187.201 177.726 179.139 181.904 176.159C209.303 156.762 209.707 119.673 209.69 114.824C185.702 90.9562 153.463 80.8098 125.521 89.5781L92.9372 111.361Z" fill="#FFDB99"/>
<path d="M115.418 122.309C118.383 119.68 122.091 118.036 126.029 117.606C128.7 117.27 132.3 116.813 133.626 118.794C133.923 119.222 134.1 119.722 134.14 120.241C134.179 120.76 134.079 121.281 133.85 121.749C132.765 123.549 129.466 122.352 124.376 122.825C117.675 123.445 113.583 126.417 113.041 125.504C112.67 124.893 114.66 123.049 115.418 122.309Z" fill="#383333"/>
<path d="M186.047 120.818C182.996 118.292 179.238 116.769 175.289 116.46C172.619 116.21 169.001 115.874 167.735 117.89C167.455 118.329 167.296 118.834 167.273 119.354C167.25 119.874 167.365 120.391 167.606 120.853C168.751 122.619 172.007 121.318 177.08 121.628C183.799 122.024 187.994 124.875 188.502 123.937C188.915 123.265 186.908 121.508 186.047 120.818Z" fill="#383333"/>
<path d="M150.853 130.155C150.853 130.155 145.918 140.939 146.736 143.032C147.554 145.125 156.047 144.6 156.047 144.6" stroke="#383333" stroke-linecap="round" stroke-linejoin="round"/>
<path d="M115.86 151.073C119.98 151.056 123.311 148.963 123.3 146.399C123.289 143.835 119.941 141.77 115.821 141.788C111.702 141.805 108.371 143.897 108.382 146.461C108.392 149.025 111.741 151.09 115.86 151.073Z" fill="#FFC871"/>
<path d="M185.748 151.073C189.867 151.056 193.198 148.963 193.187 146.399C193.177 143.835 189.828 141.771 185.709 141.788C181.589 141.805 178.258 143.898 178.269 146.462C178.28 149.026 181.628 151.09 185.748 151.073Z" fill="#FFC871"/>
<path d="M134.824 184.212C134.824 184.212 152.145 190.603 165.832 184.212" stroke="#383333" stroke-linecap="round" stroke-linejoin="round"/>
<path d="M122.24 213.739C122.24 213.739 86.8391 213.489 74.2896 241.766C61.74 270.044 42.1104 331.172 42.1104 331.172L83.5488 332.516C89.9538 320.913 95.6574 308.936 100.629 296.65C111.361 270.055 118.624 242.189 122.24 213.739Z" fill="#FFDB99"/>
<path d="M119.07 209.751C119.07 209.751 148.355 233.799 183.601 209.131C186.185 208.984 188.295 209.01 189.811 209.062C196.25 209.232 202.624 210.394 208.708 212.507C210.862 213.291 212.593 214.075 213.721 214.617C213.917 224.274 214.844 233.903 216.495 243.42C219.286 259.57 222.369 264.893 223.041 276.297C223.816 289.492 220.302 290.939 217.485 310.035C214.611 330.003 215.141 350.313 219.053 370.104C221.025 379.834 223.885 389.363 227.597 398.571C213.329 405.977 197.937 410.979 182.042 413.377C135.582 420.328 98.691 402.49 84.4102 394.557C93.2474 363.369 92.5066 339.699 90.1035 323.696C88.0105 309.673 81.3869 279.88 86.6582 260.207C87.5712 256.814 88.8374 253.704 89.5609 249.372C89.8326 247.681 90.0023 245.975 90.0691 244.264C90.5342 236.305 90.8098 227.261 90.9304 222.731C92.9287 221.448 95.0389 220.147 97.287 218.941C104.199 215.109 111.502 212.028 119.07 209.751Z" fill="#FF535C"/>
<path fill-rule="evenodd" clip-rule="evenodd" d="M130.5 137.606C129.774 138.357 128.842 138.875 127.822 139.097C126.801 139.318 125.738 139.231 124.767 138.848C123.795 138.465 122.959 137.803 122.364 136.945C121.769 136.087 121.442 135.072 121.424 134.028C121.406 132.984 121.698 131.958 122.263 131.08C122.828 130.202 123.64 129.511 124.598 129.094C125.556 128.678 126.615 128.555 127.643 128.741C128.67 128.926 129.619 129.413 130.371 130.138C131.374 131.113 131.951 132.446 131.975 133.845C132 135.244 131.469 136.596 130.5 137.606Z" fill="#383333"/>
<path fill-rule="evenodd" clip-rule="evenodd" d="M117.683 131.111C117.795 130.999 118.967 132.705 120.267 132.472C121.232 132.3 121.404 131.206 122.576 130.164C123.595 129.301 124.861 128.783 126.193 128.682C125.72 129.844 125.088 130.933 124.315 131.921C123.213 133.325 122.507 134.229 121.456 134.324C119.337 134.522 117.545 131.249 117.683 131.111Z" fill="#383333"/>
<path fill-rule="evenodd" clip-rule="evenodd" d="M180.207 137.382C179.526 138.174 178.626 138.747 177.62 139.027C176.614 139.308 175.547 139.283 174.555 138.957C173.562 138.631 172.689 138.019 172.045 137.196C171.401 136.374 171.015 135.379 170.937 134.337C170.859 133.296 171.091 132.254 171.605 131.345C172.118 130.435 172.89 129.698 173.823 129.228C174.755 128.757 175.806 128.573 176.843 128.7C177.88 128.827 178.856 129.258 179.647 129.94C180.702 130.857 181.352 132.152 181.457 133.546C181.561 134.939 181.112 136.318 180.207 137.382Z" fill="#383333"/>
<path fill-rule="evenodd" clip-rule="evenodd" d="M184.91 130.293C184.798 130.19 183.79 132.016 182.455 131.886C181.473 131.809 181.206 130.732 179.94 129.802C178.845 129.038 177.537 128.641 176.202 128.665C176.781 129.777 177.511 130.803 178.372 131.714C179.596 133.006 180.388 133.842 181.439 133.842C183.583 133.842 185.074 130.422 184.91 130.293Z" fill="#383333"/>
<path d="M131.31 197.968C130.908 197.895 130.495 197.938 130.117 198.09C129.739 198.243 129.412 198.499 129.173 198.829C123.463 206.796 118.424 209.863 114.695 211.12C113.73 211.447 112.266 211.895 111.628 213.161C109.613 217.21 118.019 224.962 120.095 226.796C120.391 227.054 120.751 227.226 121.137 227.296C125.771 228.157 156.805 233.411 166.676 227.192C177.348 220.465 187.279 209.105 187.279 209.105C187.279 209.105 176.262 207.236 171.835 198.863C171.618 198.448 171.273 198.113 170.851 197.908C170.429 197.704 169.953 197.64 169.492 197.726C165.181 198.542 160.823 199.089 156.443 199.363C148.04 199.89 139.603 199.422 131.31 197.968Z" fill="#FF535C"/>
<path d="M169.492 216.503H131.154C128.072 216.503 125.573 219.002 125.573 222.085V292.188C125.573 295.271 128.072 297.77 131.154 297.77H169.492C172.575 297.77 175.074 295.271 175.074 292.188V222.085C175.074 219.002 172.575 216.503 169.492 216.503Z" fill="#383333"/>
<path d="M114.557 267.606C106.185 271.697 82.0674 283.851 62.1708 299.475C59.9744 301.198 49.2078 309.811 43.6694 323.679C42.3085 327.081 41.5075 330.173 42.3602 333.506C44.169 340.595 52.4894 345.272 59.6901 345.565C64.5997 345.797 68.8977 343.989 74.9873 339.872C88.2173 330.896 94.7979 321.232 104.875 308.864C109.311 303.429 116.073 295.444 125.091 286.09L114.557 267.606Z" fill="#FFDB99"/>
<path d="M109.07 270.354C114.728 266.543 120.795 263.379 127.158 260.922C136.762 257.399 144.91 255.418 148.183 256.779C151.456 258.14 137.726 264.014 137.726 264.014C137.726 264.014 148.648 259.208 151.456 260.569C154.264 261.93 140.603 269.294 140.603 269.294C140.603 269.294 149.604 265.625 150.534 267.572C151.465 269.518 139.001 275.832 139.001 275.832C139.001 275.832 145.625 273.162 146.374 274.867C147.124 276.572 129.819 288.002 120 288.958C110.181 289.914 104.643 274.023 109.07 270.354Z" fill="#FFDB99"/>
<path d="M194.54 263.566C202.18 268.898 224.135 284.617 241.379 303.144C242.386 304.23 252.214 315.005 255.935 329.906C256.781 332.629 256.802 335.543 255.995 338.278C253.592 345.401 244.419 349.716 236.727 349.105C232.369 348.76 228.502 346.719 222.49 341.112C210.801 330.173 205.857 319.613 197.735 305.771C194.195 299.742 188.726 290.784 181.275 280.156L194.54 263.566Z" fill="#FFDB99"/>
<path d="M199.544 267.089C194.541 262.441 189.031 258.37 183.118 254.953C174.169 249.992 166.426 246.779 162.98 247.623C159.535 248.467 172.197 256.383 172.197 256.383C172.197 256.383 162.145 249.949 159.156 250.888C156.167 251.827 168.536 261.172 168.536 261.172C168.536 261.172 160.207 256.168 158.984 257.959C157.761 259.751 169.104 267.89 169.104 267.89C169.104 267.89 162.98 264.238 161.981 265.806C160.982 267.373 176.305 281.31 185.857 283.79C195.409 286.271 203.359 271.396 199.544 267.089Z" fill="#FFDB99"/>
<path d="M145.048 78.5876C145.048 78.5876 140.862 97.1665 123.308 102.507C105.754 107.847 115.556 130.241 86.8476 131.318C86.8476 131.318 83.2042 90.9821 109.983 67.9071C114.074 64.3843 128.734 52.3257 150.319 52.5411C168.949 52.7219 181.8 61.9468 185.823 64.927C215.349 86.753 213.644 127.029 213.385 131.086C213.385 131.086 195.625 128.338 191.137 111.895C186.65 95.4524 181.103 94.393 168.932 89.9055C156.762 85.4179 148.889 87.9847 145.048 78.5876Z" fill="#383333"/>
<path d="M181.344 68.7684C192.785 68.7684 202.059 59.494 202.059 48.0534C202.059 36.6129 192.785 27.3385 181.344 27.3385C169.904 27.3385 160.629 36.6129 160.629 48.0534C160.629 59.494 169.904 68.7684 181.344 68.7684Z" fill="#383333"/>
<path d="M135.229 277.511C135.229 277.511 138.114 276.374 139.992 275.367" stroke="#383333" stroke-width="0.75" stroke-linecap="round" stroke-linejoin="round"/>
<path d="M135.229 271.318C137.294 270.69 139.31 269.907 141.258 268.976" stroke="#383333" stroke-width="0.75" stroke-linecap="round" stroke-linejoin="round"/>
<path d="M131.947 265.806C134.476 265.24 136.939 264.408 139.294 263.325" stroke="#383333" stroke-width="0.75" stroke-linecap="round" stroke-linejoin="round"/>
<path d="M168.226 267.27C169.696 268.316 171.223 269.28 172.8 270.156" stroke="#383333" stroke-width="0.75" stroke-linecap="round" stroke-linejoin="round"/>
<path d="M167.752 260.595C167.752 260.595 171.783 263.971 174.247 264.772" stroke="#383333" stroke-width="0.75" stroke-linecap="round" stroke-linejoin="round"/>
<path d="M169.682 254.746C169.682 254.746 174.367 258.373 177.037 259.277" stroke="#383333" stroke-width="0.75" stroke-linecap="round" stroke-linejoin="round"/>
<path d="M52.4722 309.303C52.4722 309.303 62.0674 294.169 84.815 284.092" stroke="#383333" stroke-linecap="round" stroke-linejoin="round"/>
<path d="M222.774 285.367C222.774 285.367 245.556 305.53 253.696 322.946" stroke="#383333" stroke-linecap="round" stroke-linejoin="round"/>
<path d="M150.87 166.564C153.734 166.564 156.055 163.382 156.055 159.458C156.055 155.533 153.734 152.352 150.87 152.352C148.007 152.352 145.685 155.533 145.685 159.458C145.685 163.382 148.007 166.564 150.87 166.564Z" fill="white"/>
<path d="M147.606 169.621C148.596 170.133 149.695 170.401 150.81 170.401C151.925 170.401 153.024 170.133 154.014 169.621" stroke="#383333" stroke-width="0.75" stroke-linecap="round" stroke-linejoin="round"/>
<path d="M169.38 51.7917C169.38 51.7917 169.242 29.156 189.88 34.4187" stroke="white" stroke-linecap="round" stroke-linejoin="round"/>
<path d="M189.88 39.9742C189.88 39.9742 197.425 50.0776 185.186 56.2017" stroke="white" stroke-linecap="round" stroke-linejoin="round"/>
<path d="M150.095 70.7236C150.095 70.7236 151.37 79.8279 170.913 84.1001C190.457 88.3722 191.241 119.259 207.64 118.975" stroke="white" stroke-linecap="round" stroke-linejoin="round"/>
<path d="M190.026 85.6677C190.026 85.6677 197.141 111.18 208.527 109.173" stroke="white" stroke-linecap="round" stroke-linejoin="round"/>
<path d="M135.935 74.9872C135.935 74.9872 130.095 93.3507 118.708 97.3817C107.321 101.413 108.82 120.543 93.2732 121.559" stroke="white" stroke-linecap="round" stroke-linejoin="round"/>
<path d="M108.39 94.8495C108.39 94.8495 107.321 109.578 94.1604 112.429" stroke="white" stroke-linecap="round" stroke-linejoin="round"/>
<path d="M337.787 276.486C337.787 276.486 340.793 272.869 344.428 273.144C347.089 273.351 357.71 277.503 363.188 279.699C363.398 279.781 363.577 279.928 363.698 280.119C363.818 280.31 363.874 280.535 363.857 280.76C363.839 280.985 363.75 281.199 363.601 281.37C363.453 281.54 363.253 281.658 363.033 281.706C358.404 282.724 353.949 284.416 349.811 286.728L337.787 276.486Z" fill="#FF535C"/>
<path d="M330.612 301.094C330.612 301.094 331.198 305.754 334.411 307.468C336.771 308.734 347.959 310.914 353.756 312.025C353.977 312.065 354.206 312.034 354.408 311.936C354.61 311.838 354.776 311.678 354.882 311.48C354.987 311.281 355.027 311.054 354.995 310.832C354.963 310.609 354.861 310.403 354.704 310.242C351.341 306.893 348.493 303.065 346.254 298.881L330.612 301.094Z" fill="#FF535C"/>
<mask id="mask0_412_955" style="mask-type:luminance" maskUnits="userSpaceOnUse" x="290" y="269" width="63" height="35">
<path d="M347.546 301.844C339.794 303.825 328.511 303.566 319.122 300.621C303.222 295.591 294.333 283.282 290.776 277.477C290.679 277.318 290.616 277.141 290.592 276.957C290.567 276.773 290.581 276.586 290.633 276.408C290.685 276.229 290.773 276.064 290.893 275.922C291.012 275.779 291.16 275.664 291.327 275.582C297.442 272.602 311.56 266.969 327.666 271.275C337.201 273.816 346.822 279.673 352.318 285.522C352.024 288.41 351.461 291.265 350.638 294.049C349.84 296.733 348.805 299.342 347.546 301.844Z" fill="white"/>
</mask>
<g mask="url(#mask0_412_955)">
<path d="M347.546 301.844C339.794 303.825 328.511 303.566 319.122 300.621C303.222 295.591 294.333 283.282 290.776 277.477C290.679 277.318 290.616 277.141 290.592 276.957C290.567 276.773 290.581 276.586 290.633 276.408C290.685 276.229 290.773 276.064 290.893 275.922C291.012 275.779 291.16 275.664 291.327 275.582C297.442 272.602 311.56 266.969 327.666 271.275C337.201 273.816 346.822 279.673 352.318 285.522C352.024 288.41 351.461 291.265 350.638 294.049C349.84 296.733 348.805 299.342 347.546 301.844Z" fill="#FFB833"/>
<path d="M302.111 295.677C300.962 285.148 304.038 274.594 310.664 266.331L290.268 260.38L281.654 289.725L302.111 295.677Z" fill="#FF535C"/>
</g>
<path d="M348.838 302.817C349.367 302.953 349.927 302.895 350.417 302.653C350.907 302.412 351.294 302.002 351.508 301.499C352.352 299.72 353.077 297.887 353.679 296.013C354.551 293.32 355.168 290.552 355.522 287.744C355.608 287.205 355.5 286.653 355.215 286.187C354.931 285.721 354.49 285.372 353.971 285.203L353.687 285.117C353.084 284.971 352.448 285.071 351.918 285.394C351.389 285.717 351.009 286.237 350.862 286.839L347.115 299.742C346.918 300.329 346.961 300.971 347.236 301.526C347.51 302.081 347.993 302.505 348.58 302.705L348.838 302.817Z" fill="#FF535C"/>
<path d="M352.533 303.902C353.063 304.037 353.624 303.979 354.115 303.737C354.606 303.496 354.995 303.087 355.212 302.585C356.055 300.806 356.78 298.973 357.382 297.098C358.247 294.404 358.861 291.636 359.217 288.829C359.305 288.29 359.197 287.737 358.913 287.271C358.628 286.805 358.186 286.456 357.666 286.288L357.391 286.202C356.787 286.057 356.15 286.156 355.619 286.479C355.088 286.802 354.706 287.322 354.557 287.925L350.793 300.845C350.694 301.135 350.654 301.443 350.674 301.749C350.694 302.055 350.775 302.355 350.911 302.63C351.047 302.905 351.236 303.151 351.467 303.353C351.698 303.555 351.966 303.71 352.257 303.808L352.533 303.902Z" fill="#FF535C"/>
<path d="M321.491 294.195C326.343 294.195 330.276 290.262 330.276 285.41C330.276 280.558 326.343 276.624 321.491 276.624C316.639 276.624 312.705 280.558 312.705 285.41C312.705 290.262 316.639 294.195 321.491 294.195Z" fill="#FFF3E3"/>
<path d="M327.77 287.236C328.132 285.995 328.117 284.674 327.729 283.441C327.34 282.209 326.595 281.118 325.587 280.309C324.579 279.5 323.354 279.007 322.067 278.894C320.779 278.781 319.487 279.051 318.353 279.673C317.219 280.294 316.295 281.237 315.697 282.383C315.099 283.529 314.855 284.826 314.994 286.112C315.134 287.397 315.651 288.612 316.481 289.603C317.311 290.594 318.416 291.317 319.656 291.68C321.321 292.165 323.111 291.97 324.633 291.137C326.154 290.303 327.282 288.9 327.77 287.236Z" fill="#FF535C"/>
<path d="M359.975 291.99C359.974 291.953 359.985 291.916 360.004 291.884C360.024 291.851 360.053 291.826 360.087 291.809C361.025 291.411 362.031 291.195 363.05 291.172C364.306 291.155 365.549 291.435 366.676 291.99C366.717 292.008 366.75 292.039 366.771 292.079C366.792 292.118 366.799 292.163 366.791 292.207C366.783 292.251 366.76 292.29 366.727 292.32C366.694 292.349 366.651 292.367 366.607 292.369C366.275 292.405 365.946 292.468 365.625 292.559C365.218 292.675 364.825 292.836 364.454 293.041C364.416 293.062 364.387 293.095 364.37 293.134C364.352 293.173 364.348 293.217 364.358 293.259C364.368 293.3 364.391 293.338 364.423 293.365C364.456 293.393 364.497 293.409 364.54 293.411C365.659 293.496 366.738 293.867 367.673 294.488C368.609 295.11 369.368 295.961 369.88 296.96C370.461 298.249 370.592 299.696 370.25 301.069C370.241 301.101 370.225 301.13 370.202 301.154C370.179 301.178 370.151 301.196 370.12 301.207C370.089 301.218 370.055 301.222 370.023 301.217C369.99 301.212 369.959 301.2 369.932 301.181C369.551 300.897 369.113 300.7 368.648 300.604C367.871 300.478 367.074 300.573 366.349 300.879C365.056 301.267 363.679 301.267 362.386 300.879C362.343 300.863 362.295 300.863 362.251 300.878C362.207 300.894 362.171 300.924 362.147 300.964C362.123 301.004 362.115 301.051 362.122 301.097C362.13 301.143 362.153 301.185 362.188 301.215C362.77 301.787 363.512 302.169 364.316 302.309C364.353 302.317 364.388 302.335 364.415 302.362C364.442 302.389 364.461 302.423 364.469 302.46C364.477 302.498 364.474 302.537 364.461 302.572C364.448 302.608 364.424 302.639 364.393 302.662C363.851 303.085 363.223 303.383 362.553 303.535C361.883 303.688 361.187 303.691 360.516 303.545C359.844 303.398 359.213 303.106 358.667 302.689C358.121 302.271 357.674 301.739 357.356 301.129C357.34 301.099 357.331 301.065 357.331 301.03C357.331 300.995 357.34 300.961 357.356 300.931C357.934 300 358.421 299.017 358.812 297.994C359.542 296.074 359.936 294.043 359.975 291.99Z" fill="#FFB833"/>
<path d="M377.667 305.479C377.667 305.479 399.088 317.804 393.239 334.6C387.391 351.396 358.14 345.134 361.37 336.021C364.6 326.908 399.915 335.16 391.086 349.975C382.257 364.79 309.01 332.654 290.552 340.604C272.094 348.554 290.552 376.168 290.552 376.168" stroke="#383333" stroke-linecap="round" stroke-linejoin="round" stroke-dasharray="12 12"/>
</svg>
