<svg width="290" height="290" viewBox="0 0 290 290" fill="none" xmlns="http://www.w3.org/2000/svg">
<g clip-path="url(#clip0_377_82)">
<path d="M145 275.554C219.575 275.554 280.03 215.099 280.03 140.524C280.03 65.9492 219.575 5.49414 145 5.49414C70.425 5.49414 9.96991 65.9492 9.96991 140.524C9.96991 215.099 70.425 275.554 145 275.554Z" fill="#514BDB"/>
<path d="M207.001 116.529C207.001 147.74 186.236 174.096 157.765 182.535L154.3 182.064L150.293 184.3C146.358 184.998 142.307 185.363 138.171 185.363C135.899 185.363 133.653 185.253 131.438 185.038L115.233 177.641L98.7932 172.992C96.608 171.465 94.5163 169.814 92.5271 168.049L85.2448 154.12L77.8367 149.672C72.4276 139.841 69.3503 128.545 69.3503 116.528C69.3503 89.9362 84.428 66.866 106.504 55.4047L116.339 55.2093L128.944 48.3156C131.552 47.9661 134.207 47.7628 136.899 47.7141L153.564 53.8692L170.727 55.872C176.316 58.8774 181.442 62.6326 185.969 67.0025L187.505 72.632L191.187 72.6291C201.064 84.5446 207.001 99.8438 207.001 116.529Z" fill="#B8CBFE"/>
<path d="M106.512 55.4223L77.8436 149.669C81.664 156.612 86.65 162.817 92.5344 168.036L128.946 48.3365C120.949 49.4082 113.392 51.85 106.512 55.4223Z" fill="white"/>
<path d="M138.17 47.7033C137.743 47.7033 137.322 47.7277 136.897 47.7356L98.8018 172.977C108.227 179.566 119.372 183.859 131.438 185.031L170.723 55.8782C161.031 50.6656 149.948 47.7033 138.17 47.7033Z" fill="white"/>
<path d="M185.956 67.0166L150.288 184.277C152.83 183.826 155.323 183.24 157.76 182.518L191.185 72.6348C189.551 70.6631 187.798 68.7946 185.956 67.0166Z" fill="white"/>
<path d="M170.611 41.6071C129.136 23.6928 80.9922 42.792 63.0784 84.266C45.1641 125.741 64.2634 173.886 105.738 191.8C121.812 198.743 138.882 200.104 154.812 196.78L170.316 235.057L193.799 225.545L178.531 187.851C193.496 179.378 205.927 166.143 213.271 149.139C231.186 107.665 212.086 59.5214 170.611 41.6071ZM197.841 142.474C183.607 175.426 145.356 190.601 112.403 176.369C79.4515 162.135 64.277 123.884 78.5096 90.932C92.7428 57.9802 130.994 42.805 163.946 57.0377C196.898 71.2709 212.073 109.523 197.841 142.474Z" fill="#FEC900"/>
<path d="M164.108 229.247L185.131 281.148C188.067 288.401 196.327 291.896 203.576 288.961L207.426 287.402C214.676 284.466 218.173 276.207 215.236 268.955L194.215 217.054L164.108 229.247Z" fill="#1D1D1B"/>
<path d="M61.4675 192.284C66.1597 204.096 60.3676 217.527 48.5569 222.22C36.745 226.915 23.3139 221.124 18.6195 209.31C13.9234 197.499 19.7172 184.068 31.5279 179.375C43.3403 174.68 56.7703 180.47 61.4675 192.284ZM24.6313 206.923C28.0071 215.42 37.6689 219.587 46.1661 216.208C54.6656 212.832 58.8287 203.17 55.4529 194.673C52.0748 186.174 42.4142 182.008 33.917 185.385C25.4197 188.764 21.2544 198.425 24.6313 206.923Z" fill="#FE5D0D"/>
<path fill-rule="evenodd" clip-rule="evenodd" d="M239.493 146.222L222.294 202.135L252.061 199.73L240.533 185.412L261.12 178.788L246.546 165.736L263.18 158.544L239.493 146.222Z" fill="white"/>
<path d="M120.522 228.5L110.036 277.246L116.195 278.571L126.681 229.825L120.522 228.5Z" fill="#79BB35"/>
<path d="M98.7712 239.319L72.7695 262.755L76.9878 267.435L102.99 243.999L98.7712 239.319Z" fill="#79BB35"/>
<path d="M253.317 86.7519L241.114 96.6223L250.983 108.823L263.185 98.9527L253.317 86.7519Z" fill="#FEC900"/>
<path d="M40.3571 143.66C42.0899 139.313 39.9699 134.383 35.622 132.65C31.2741 130.918 26.3448 133.038 24.612 137.386C22.8792 141.733 24.9992 146.663 29.347 148.396C33.6949 150.128 38.6243 148.008 40.3571 143.66Z" fill="white"/>
<path d="M46.012 54.3059C49.3088 54.3059 51.9814 51.6333 51.9814 48.3365C51.9814 45.0398 49.3088 42.3672 46.012 42.3672C42.7152 42.3672 40.0427 45.0398 40.0427 48.3365C40.0427 51.6333 42.7152 54.3059 46.012 54.3059Z" fill="#FE5D0D"/>
<path fill-rule="evenodd" clip-rule="evenodd" d="M185.827 2.88697L196.079 5.77678L188.451 13.2143L180.822 20.6483L178.198 10.3245L175.575 0L185.827 2.88697Z" fill="#79BB35"/>
</g>
<defs>
<clipPath id="clip0_377_82">
<rect width="290" height="290" fill="white"/>
</clipPath>
</defs>
</svg>
