<svg width="435" height="435" viewBox="0 0 435 435" fill="none" xmlns="http://www.w3.org/2000/svg">
<path d="M295.35 198.137C299.386 199.599 300.804 189.403 299.046 187.449C297.287 185.495 291.297 196.685 295.35 198.137Z" fill="black"/>
<path d="M312.257 201.799C312.298 201.187 312.249 200.571 312.112 199.973C318.297 197.424 325.706 192.454 323.157 190.143C321.806 188.902 317.21 190.763 312.962 193.312C315.868 190.168 317.975 187.067 317.21 185.886C315.936 183.796 304.729 189.149 301.815 196.829C300.106 199.117 298.213 201.262 296.157 203.244C286.318 204.425 268.544 207.551 265.469 207.806C261.518 208.146 260.286 211.145 259.963 215.036C259.64 218.927 260.337 224.382 262.334 223.855C264.33 223.328 294.024 211.629 294.024 211.629C294.024 211.629 294.687 211.782 295.655 211.901C297.04 212.547 299.156 212.887 302.282 212.674C305.409 212.462 308.476 210.176 310.345 207.135C314.687 207.984 322.86 203.651 322.35 201.867C321.866 199.905 316.292 200.346 312.257 201.799Z" fill="black"/>
<path d="M247.483 98.6651C241.102 88.9796 230.134 79.2686 214.628 78.198C213.218 76.4309 210.38 75.0715 204.994 74.9016C195.24 74.5957 195.308 81.9788 195.308 81.9788C195.42 82.6322 195.746 83.2299 196.234 83.678C188.477 89.9906 184.34 100.891 184.416 112.48C184.484 120.33 182.666 126.923 199.752 131.384C214.28 135.156 251.136 133.023 254.042 117.093C254.653 113.754 252.461 106.201 247.483 98.6651Z" fill="#FFCD00"/>
<path d="M284.067 209.471C284.067 209.471 264.475 186.064 260.83 184.051C257.185 182.037 251.212 182.352 251.212 182.352C251.212 182.352 246.319 187.449 249.224 193.252C251.714 198.231 265.962 214.187 270.974 215.758C275.987 217.33 284.763 212.912 284.067 209.471Z" fill="black"/>
<path d="M189.947 121.018C187.645 113.712 199.803 101.333 218.936 100.679C238.435 100.016 248.672 104.587 248.672 114.035C248.672 120.245 235.928 125.853 220.958 127.985C196.438 131.477 191.604 126.294 189.947 121.018Z" fill="#E9A900"/>
<path d="M210.04 283.438C198.995 284.288 153.252 269.071 141.061 221.128C131.902 185.113 144.306 148.495 157.016 139.327C177.585 124.493 206.684 116.906 215.996 113.839C239.258 106.133 268.477 135.003 277.822 178.469C287.338 222.462 272.113 253.421 255.673 264.526C255.732 264.517 224.662 282.351 210.04 283.438Z" fill="#FF1900"/>
<path d="M224.773 123.814C251.518 123.049 267.788 162.573 272.478 183.227C280.736 219.539 265.902 247.704 253.787 253.226C231.739 263.302 206.277 231.281 198.375 204.501C190.839 178.885 199.267 124.553 224.773 123.814Z" fill="white"/>
<path d="M219.004 331.008C221.102 329.062 224.195 326.437 224.186 329.64C224.178 332.843 220.966 338.671 219.547 338.416C218.129 338.162 219.004 331.008 219.004 331.008Z" fill="black"/>
<path d="M223.541 279.904C223.184 276.301 239.573 268.307 242.292 269.377C245.011 270.448 223.957 284.033 223.541 279.904Z" fill="black"/>
<path d="M355.834 321.348C353.081 322.384 334.848 330.532 329.649 330.175C325.078 329.852 321.093 323.004 321.093 323.004V323.055C316.429 302.359 300.702 249.887 300.218 246.523C299.649 242.504 299.02 235.571 296.497 235.112C293.974 234.654 280.881 244.042 277.245 247.304C273.608 250.567 238.103 270.94 238.103 270.94C238.103 270.94 227.466 277.559 227.432 280.167C227.398 282.775 232.215 293.922 240.032 291.263C238.137 299.258 235.019 309.598 230.491 315.978C222.3 327.55 229.199 327.932 216.481 330.838C203.762 333.744 158.248 336.496 151.231 339.844C149.915 340.476 148.766 341.407 147.875 342.563C145.122 341.534 142.607 340.863 141.791 341.602C139.727 343.404 136.906 356.386 136.065 361.016C135.224 365.646 130.118 380.888 130.602 383.148C131.086 385.408 133.635 388.051 134.782 381.729C135.929 375.408 140.814 368.603 143.278 364.491C147.102 358.11 153.193 354.542 156.728 352.911C172.709 349.512 207.322 340.642 221.791 340.523C240.091 340.37 233.685 337.456 237.712 329.479C240.941 323.157 251.221 303.141 254.569 294.245C255.894 290.728 258.315 280.702 258.392 275.749C267.177 268.731 284.73 260.533 286.234 258.757C287.317 257.419 288.294 255.999 289.156 254.509C292.47 250.261 292.912 253.014 292.912 253.014C292.912 253.014 301.314 291.492 306.42 315.265C306.046 317.618 305.681 326.743 307.516 328.357C307.757 328.561 308.045 328.7 308.355 328.76C308.664 328.821 308.984 328.802 309.283 328.705C309.785 331.11 310.133 332.741 310.218 333.344C310.498 334.975 311.832 335.944 313.523 336.301C312.495 338.688 311.824 340.889 312.011 342.376C312.597 347.618 314.211 349.121 317.108 347.082C320.006 345.043 355.986 326.25 359.037 323.752C362.087 321.254 359.903 319.818 355.834 321.348Z" fill="black"/>
<path d="M156.277 338.612C156.957 334.814 165.393 336.343 172.369 336.309C179.344 336.275 155.207 344.508 155.207 344.508L156.277 338.612Z" fill="black"/>
<path d="M146.362 197.908C147.603 191.06 175.597 182.904 179.251 187.092C182.904 191.281 145.419 203.057 146.362 197.908Z" fill="white"/>
<path d="M151.918 184.365C150.924 179.268 170.771 173.439 171.51 178.647C172.088 182.708 152.717 188.46 151.918 184.365Z" fill="white"/>
<path d="M206.931 214.671C205.911 205.189 220.975 154.501 235.469 154.918C249.964 155.334 264.662 191.145 264.849 207.092C265.036 223.039 259.207 250.235 246.846 250.201C234.484 250.167 209.063 234.492 206.931 214.671Z" fill="#FBF4CB"/>
<path d="M238.299 175.759C242.547 175.079 246.676 182.505 247.559 186.472C248.443 190.44 248.205 195.342 244.662 196.404C241.977 197.254 237.814 194.433 236.107 188.894C234.926 185.002 234.764 176.328 238.299 175.759Z" fill="black"/>
<path d="M225.146 129.183C231.094 128.053 235.214 142.777 231.145 143.525C224.968 144.62 221.017 129.99 225.146 129.183Z" fill="black"/>
<path d="M248.086 231.425C252.513 231.34 253.838 245.936 250.397 246.633C246.956 247.33 242.037 231.527 248.086 231.425Z" fill="black"/>
<path d="M202.207 194.484C201.587 188.07 212.054 188.911 215.087 192.403C218.12 195.894 202.98 202.343 202.207 194.484Z" fill="black"/>
<path d="M268.655 181.264C272.147 186.362 262.003 188.673 260.55 185.759C259.097 182.844 266.31 177.874 268.655 181.264Z" fill="black"/>
<path d="M202.496 166.158C201.646 163.779 204.356 155.895 206.073 156.201C207.789 156.507 240.592 180.151 243.455 181.545C246.319 182.938 244.747 191.502 241.476 190.041C238.205 188.579 203.379 168.537 202.496 166.158Z" fill="black"/>
<path d="M251.263 157.823C252.427 156.269 257.287 161.128 256.743 164.128C256.2 167.127 244.628 191.927 244.628 191.927L238.681 185.546L251.263 157.823Z" fill="black"/>
<path d="M222.598 230.516C221.434 229.598 218.817 231.102 216.132 233.379C220.448 227.033 223.447 219.361 221.086 218.256C220.236 217.84 218.647 218.562 216.837 219.955C217.203 218.842 217.211 217.967 216.744 217.475C214.849 215.503 210.72 218.698 207.305 222.096C205.239 224.172 203.386 226.449 201.774 228.893C201.409 225.75 200.559 223.481 199.386 223.736C196.608 224.356 193.89 233.592 194.068 239.683C194.068 239.785 193.974 239.896 193.932 239.998L193.991 242.062C188.894 243.88 161.766 251.06 151.035 253.294C155.988 247.066 162.462 238.902 168.027 231.085C171.536 226.175 173.975 227.925 173.388 222.309C173.032 218.91 161.239 215.138 156.464 217.525C148.996 221.255 152.378 225.435 152.378 225.435C152.378 225.435 138.971 245.716 137.085 250.125C135.385 254.118 132.582 256.769 131.027 260.72C130.007 263.268 130.849 265.469 132.276 266.59C132.241 267.221 132.278 267.854 132.386 268.477C133.057 271.748 135.64 272.725 145.258 268.714C148.121 267.525 196.234 251.552 196.234 251.552L197.407 251.145C198.392 251.867 199.429 252.376 200.236 252.173C204.943 251 208.647 247.075 210.933 243.481C216.566 241.909 224.34 231.858 222.598 230.516Z" fill="black"/>
<path d="M170.253 127.62C179.599 123.89 198.537 119.353 199.14 128.869C199.828 140.22 191.332 151.885 173.32 161.519C140.245 179.217 140.44 165.02 140.44 165.02C141.609 159.933 143.619 155.077 146.388 150.653C149.633 145.283 155.045 133.703 170.253 127.62Z" fill="#C91700"/>
<path d="M185.886 108.13C173.6 95.8444 152.53 88.8182 137.05 94.604C137.355 94.0151 137.493 93.3541 137.45 92.6924C137.237 90.3305 126.405 84.0603 121.825 87.5267C117.246 90.9932 116.855 100.211 122.318 101.205C124.027 101.421 125.763 101.283 127.416 100.798C113.881 115.02 117.637 150.228 125.886 156.26C132.683 161.23 153.473 156.812 162.547 153.168C183.345 144.782 193.074 134.825 194.781 124.978C195.75 119.387 190.372 112.624 185.886 108.13Z" fill="#FFCD00"/>
<path d="M140.398 106.261C146.209 107.96 136.932 122.063 132.208 118.155C128.588 115.216 136.447 105.08 140.398 106.261Z" fill="white"/>
<path d="M137.637 126.957C135.776 122.641 146.821 120.041 146.617 123.737C146.413 127.238 139.106 130.373 137.637 126.957Z" fill="white"/>
<path d="M199.318 91.3585C196.515 87.3229 202.819 83.5931 204.841 85.2923C207.526 87.5098 202.131 95.4366 199.318 91.3585Z" fill="white"/>
</svg>
