<svg width="100" height="101" viewBox="0 0 100 101" fill="none" xmlns="http://www.w3.org/2000/svg">
<g id="cilindro">
<g id="Group">
<path id="Vector" d="M75 75.1079C88.8071 61.2809 88.8071 38.863 75 25.036C61.1929 11.209 38.8071 11.209 25 25.036C11.1929 38.863 11.1929 61.2809 25 75.1079C38.8071 88.9349 61.1929 88.9349 75 75.1079Z" fill="#CFCB88"/>
<g id="Group_2">
<path id="Vector_2" fill-rule="evenodd" clip-rule="evenodd" d="M22.603 27.9907L22.5088 27.8114C22.5893 27.712 22.6687 27.6117 22.7503 27.5132L22.603 27.9907Z" fill="#D8D277"/>
<path id="Vector_3" fill-rule="evenodd" clip-rule="evenodd" d="M14.6484 50.1827L15.4344 51.5629L14.834 53.7276C14.7143 52.562 14.652 51.3792 14.6484 50.1827Z" fill="#E4E0A2"/>
<path id="Vector_4" fill-rule="evenodd" clip-rule="evenodd" d="M15.4338 51.563L14.6478 50.1828C14.6477 50.1457 14.6465 50.109 14.6465 50.0719C14.6465 49.5152 14.6609 48.9619 14.6864 48.4114L15.4338 51.563Z" fill="#E3DD99"/>
<path id="Vector_5" fill-rule="evenodd" clip-rule="evenodd" d="M26.2295 76.2821L34.5213 74.7422L33.5647 81.4275C30.9012 80.0238 28.4373 78.292 26.2295 76.2821Z" fill="#EDEABE"/>
<path id="Vector_6" fill-rule="evenodd" clip-rule="evenodd" d="M22.9189 72.8307L29.0035 48.9431L34.5216 74.742L26.2298 76.282C25.0501 75.2081 23.9448 74.0539 22.9189 72.8307Z" fill="#EBE7B7"/>
<path id="Vector_7" fill-rule="evenodd" clip-rule="evenodd" d="M29.0026 48.9431L15.6748 41.5691C15.8818 40.7284 16.1187 39.8994 16.3843 39.0835L29.7753 36.11L29.0026 48.9431Z" fill="#E4E0A1"/>
<path id="Vector_8" fill-rule="evenodd" clip-rule="evenodd" d="M22.5085 27.8114L22.6027 27.9906L22.332 28.0304C22.3905 27.957 22.4496 27.8841 22.5085 27.8114Z" fill="#D9D37A"/>
<path id="Vector_9" fill-rule="evenodd" clip-rule="evenodd" d="M22.3328 28.0304L22.603 27.9907L20.6289 30.3598C21.1655 29.5594 21.7344 28.7828 22.3328 28.0304Z" fill="#DDD889"/>
<path id="Vector_10" fill-rule="evenodd" clip-rule="evenodd" d="M20.6286 30.3598L22.6027 27.9907L29.7758 36.11L16.3848 39.0835C17.4014 35.9629 18.8371 33.0321 20.6286 30.3598Z" fill="#E0DB93"/>
<path id="Vector_11" fill-rule="evenodd" clip-rule="evenodd" d="M15.4329 51.563L14.6865 48.4114C14.7948 46.0636 15.1322 43.7758 15.6754 41.5691L29.0032 48.9431L15.4329 51.563Z" fill="#E4E0A2"/>
<path id="Vector_12" fill-rule="evenodd" clip-rule="evenodd" d="M15.7529 58.8936L29.003 48.9431L22.9185 72.8307C19.571 68.839 17.0854 64.098 15.7529 58.8936Z" fill="#EAE5B4"/>
<path id="Vector_13" fill-rule="evenodd" clip-rule="evenodd" d="M14.833 53.7276L15.4326 51.5629L29.0029 48.9431L15.7528 58.8936C15.3234 57.2165 15.0137 55.4913 14.833 53.7276Z" fill="#E8E4AC"/>
<path id="Vector_14" fill-rule="evenodd" clip-rule="evenodd" d="M43.346 63.2173L29.0029 48.9431L38.4905 46.193L43.346 63.2173Z" fill="#EBE7B6"/>
<path id="Vector_15" fill-rule="evenodd" clip-rule="evenodd" d="M38.4911 46.193L29.7764 36.11L35.8459 25.6333L38.4911 46.193Z" fill="#E4DF9E"/>
<path id="Vector_16" fill-rule="evenodd" clip-rule="evenodd" d="M29.0029 48.9431L29.7758 36.11L38.4905 46.193L29.0029 48.9431Z" fill="#E7E3AB"/>
<path id="Vector_17" fill-rule="evenodd" clip-rule="evenodd" d="M63.4283 41.6099L56.3672 28.9074L68.5556 19.9198C69.0645 20.2343 69.5645 20.5616 70.0558 20.901L63.4283 41.6099Z" fill="#E0DB91"/>
<path id="Vector_18" fill-rule="evenodd" clip-rule="evenodd" d="M22.6035 27.9907L22.7504 27.5132C24.5277 25.3619 26.5543 23.4251 28.7855 21.7459L35.8462 25.6333L22.6035 27.9907Z" fill="#DBD580"/>
<path id="Vector_19" fill-rule="evenodd" clip-rule="evenodd" d="M29.7765 36.11L22.6035 27.9906L35.846 25.6333L29.7765 36.11Z" fill="#DFDA8E"/>
<path id="Vector_20" fill-rule="evenodd" clip-rule="evenodd" d="M35.8458 25.6333L28.7852 21.7459C30.9328 20.1296 33.271 18.7541 35.7586 17.6557L35.8458 25.6333Z" fill="#D9D37A"/>
<path id="Vector_21" fill-rule="evenodd" clip-rule="evenodd" d="M34.521 74.7422L29.0029 48.9431L43.346 63.2173L34.521 74.7422Z" fill="#ECE8BB"/>
<path id="Vector_22" fill-rule="evenodd" clip-rule="evenodd" d="M60.0085 59.8123L50.7402 53.5266L63.4283 41.6099L60.0085 59.8123Z" fill="#EAE6B5"/>
<path id="Vector_23" fill-rule="evenodd" clip-rule="evenodd" d="M33.5645 81.4273L34.5211 74.742L40.9536 84.31C38.3622 83.624 35.8871 82.6515 33.5645 81.4273Z" fill="#EDEBC1"/>
<path id="Vector_24" fill-rule="evenodd" clip-rule="evenodd" d="M50.7402 53.5267L56.3672 28.9076L63.4283 41.6099L50.7402 53.5267Z" fill="#E5E2A6"/>
<path id="Vector_25" fill-rule="evenodd" clip-rule="evenodd" d="M35.8458 25.6333L35.7588 17.6557C36.9929 17.1109 38.2634 16.6334 39.5666 16.2304L51.1813 18.6921L35.8458 25.6333Z" fill="#DAD37C"/>
<path id="Vector_26" fill-rule="evenodd" clip-rule="evenodd" d="M43.3457 63.2173L38.4902 46.193L50.7396 53.5267L43.3457 63.2173Z" fill="#EBE7B7"/>
<path id="Vector_27" fill-rule="evenodd" clip-rule="evenodd" d="M52.2846 84.8242L34.5215 74.7422L43.3465 63.2173L52.2846 84.8242Z" fill="#EDEBC3"/>
<path id="Vector_28" fill-rule="evenodd" clip-rule="evenodd" d="M40.954 84.31L34.5215 74.742L52.2846 84.8242L51.0308 85.4678C50.6909 85.4775 50.3501 85.4836 50.0078 85.4836C46.878 85.4836 43.8439 85.0745 40.954 84.31Z" fill="#EFECC5"/>
<path id="Vector_29" fill-rule="evenodd" clip-rule="evenodd" d="M50.7396 53.5267L38.4902 46.193L56.3666 28.9076L50.7396 53.5267Z" fill="#E7E3AB"/>
<path id="Vector_30" fill-rule="evenodd" clip-rule="evenodd" d="M38.4899 46.193L35.8447 25.6333L56.3663 28.9076L38.4899 46.193Z" fill="#E3DD99"/>
<path id="Vector_31" fill-rule="evenodd" clip-rule="evenodd" d="M56.3663 28.9076L35.8447 25.6333L51.1802 18.6921L56.3663 28.9076Z" fill="#DDD786"/>
<path id="Vector_32" fill-rule="evenodd" clip-rule="evenodd" d="M51.0303 85.4678L52.2841 84.8242L52.5621 85.3909C52.0543 85.4272 51.5437 85.4532 51.0303 85.4678Z" fill="#F1EFCE"/>
<path id="Vector_33" fill-rule="evenodd" clip-rule="evenodd" d="M52.2839 84.8242L43.3457 63.2173L59.0147 80.8956L52.2839 84.8242Z" fill="#EFECC8"/>
<path id="Vector_34" fill-rule="evenodd" clip-rule="evenodd" d="M59.0147 80.8956L43.3457 63.2173L60.0079 59.8123L59.0147 80.8956Z" fill="#EDEBC3"/>
<path id="Vector_35" fill-rule="evenodd" clip-rule="evenodd" d="M52.5621 85.3909L52.2842 84.8242L59.015 80.8956L58.6053 84.4273C56.6502 84.9163 54.6309 85.2429 52.5621 85.3909Z" fill="#F2EFD1"/>
<path id="Vector_36" fill-rule="evenodd" clip-rule="evenodd" d="M43.3457 63.2173L50.7396 53.5267L60.0079 59.8124L43.3457 63.2173Z" fill="#ECE8BB"/>
<path id="Vector_37" fill-rule="evenodd" clip-rule="evenodd" d="M56.3667 28.9076L51.1807 18.6921L65.6515 18.3087C66.6467 18.8013 67.6157 19.339 68.5553 19.9199L56.3667 28.9076Z" fill="#DBD581"/>
<path id="Vector_38" fill-rule="evenodd" clip-rule="evenodd" d="M59.0146 80.8956L60.0078 59.8123L70.3784 66.6223L59.0146 80.8956Z" fill="#EFECC5"/>
<path id="Vector_39" fill-rule="evenodd" clip-rule="evenodd" d="M51.1811 18.6921L39.5664 16.2304C40.0322 16.0865 40.5025 15.9529 40.9763 15.8278L64.233 17.6453C64.7115 17.8562 65.1847 18.0773 65.652 18.3085L51.1811 18.6921Z" fill="#D8D277"/>
<path id="Vector_40" fill-rule="evenodd" clip-rule="evenodd" d="M75.2338 74.8835L70.3789 66.6224L77.5507 58.7659L78.5818 70.9317C77.5621 72.3301 76.4428 73.6509 75.2338 74.8835Z" fill="#EEECC5"/>
<path id="Vector_41" fill-rule="evenodd" clip-rule="evenodd" d="M70.3784 66.6224L60.0078 59.8124L77.5502 58.7659L70.3784 66.6224Z" fill="#ECE9BD"/>
<path id="Vector_42" fill-rule="evenodd" clip-rule="evenodd" d="M77.5513 58.7659L63.4287 41.6099L78.5211 29.1281C79.0933 29.9079 79.6345 30.7116 80.1426 31.5382L77.5513 58.7659Z" fill="#E5E0A4"/>
<path id="Vector_43" fill-rule="evenodd" clip-rule="evenodd" d="M63.4287 41.6099L70.0563 20.901C73.3158 23.1518 76.1787 25.9362 78.5211 29.1281L63.4287 41.6099Z" fill="#DFDA8E"/>
<path id="Vector_44" fill-rule="evenodd" clip-rule="evenodd" d="M66.5455 81.3767L59.0146 80.8955L70.3784 66.6222L75.2333 74.8834C72.6978 77.4681 69.7699 79.6649 66.5455 81.3767Z" fill="#F1EFCE"/>
<path id="Vector_45" fill-rule="evenodd" clip-rule="evenodd" d="M60.0078 59.8123L63.4276 41.6099L77.5502 58.7658L60.0078 59.8123Z" fill="#EAE5B4"/>
<path id="Vector_46" fill-rule="evenodd" clip-rule="evenodd" d="M58.6055 84.4271L59.0152 80.8954L66.546 81.3767C64.0601 82.6965 61.3989 83.7283 58.6055 84.4271Z" fill="#F3F2D6"/>
<path id="Vector_47" fill-rule="evenodd" clip-rule="evenodd" d="M55.3936 15.0686L43.3916 15.2821C45.5352 14.8756 47.7463 14.6605 50.0079 14.6605C51.8389 14.6605 53.6374 14.7997 55.3936 15.0686Z" fill="#D5CE6E"/>
<path id="Vector_48" fill-rule="evenodd" clip-rule="evenodd" d="M64.2333 17.6454L40.9766 15.8278C41.7709 15.6183 42.5764 15.4367 43.3915 15.282L55.3935 15.0685C58.4907 15.5432 61.4552 16.4214 64.2333 17.6454Z" fill="#D8D277"/>
<path id="Vector_49" fill-rule="evenodd" clip-rule="evenodd" d="M77.5508 58.7658L80.142 31.5382C83.3826 36.8112 85.2807 42.9989 85.3627 49.6253L77.5508 58.7658Z" fill="#E4DF9F"/>
<path id="Vector_50" fill-rule="evenodd" clip-rule="evenodd" d="M77.5508 58.7658L85.3627 49.6252C85.3645 49.7742 85.3684 49.9227 85.3684 50.072C85.3684 52.4694 85.1292 54.8107 84.6756 57.0745L77.5508 58.7658Z" fill="#E5E1A5"/>
<path id="Vector_51" fill-rule="evenodd" clip-rule="evenodd" d="M78.582 70.9317L77.5508 58.7659L82.7679 63.4186C81.6757 66.103 80.2653 68.6231 78.582 70.9317Z" fill="#EDEBC1"/>
<path id="Vector_52" fill-rule="evenodd" clip-rule="evenodd" d="M82.7679 63.4186L77.5508 58.7659L84.6756 57.0744C84.2354 59.2693 83.5926 61.3906 82.7679 63.4186Z" fill="#EAE6B5"/>
</g>
<path id="Vector_53" d="M50.0075 13.5551C60.0768 13.5551 69.1928 17.6424 75.7917 24.2508C82.3906 30.8591 86.4721 39.9883 86.4721 50.0722C86.4721 60.156 82.3906 69.2852 75.7917 75.8934C69.1928 82.5018 60.0768 86.5892 50.0075 86.5892C39.9381 86.5892 30.8221 82.5018 24.2232 75.8934C17.6245 69.285 13.543 60.1557 13.543 50.072C13.543 39.9883 17.6245 30.8591 24.2232 24.2507C30.8221 17.6423 39.9381 13.5551 50.0075 13.5551ZM74.2291 25.8155C68.0303 19.6078 59.4667 15.7683 50.0075 15.7683C40.5483 15.7683 31.9846 19.6078 25.7858 25.8155C19.587 32.0232 15.753 40.5992 15.753 50.072C15.753 59.5448 19.5871 68.1208 25.7858 74.3286C31.9846 80.5362 40.5483 84.3758 50.0075 84.3758C59.4667 84.3758 68.0303 80.5363 74.2291 74.3286C80.428 68.1208 84.2619 59.5448 84.2619 50.072C84.2619 40.5992 80.428 32.0231 74.2291 25.8155Z" fill="#7D7942"/>
</g>
<g id="Group_3">
<g id="Group_4">
<path id="Vector_54" fill-rule="evenodd" clip-rule="evenodd" d="M64.5791 31.4013L67.3238 28.6527L71.3929 32.7277L68.6482 35.4763L64.5791 31.4013Z" fill="#7D7942"/>
<path id="Vector_55" fill-rule="evenodd" clip-rule="evenodd" d="M55.8457 34.5113L61.0966 29.2529L70.7943 38.9646L65.5434 44.223L55.8457 34.5113Z" fill="#7D7942"/>
<path id="Vector_56" fill-rule="evenodd" clip-rule="evenodd" d="M55.3379 40.6508L57.9897 37.9951L62.0589 42.0702L59.4071 44.7259L55.3379 40.6508Z" fill="#7D7942"/>
<path id="Vector_57" fill-rule="evenodd" clip-rule="evenodd" d="M61.0603 48.2142C61.0603 47.8901 60.9342 47.5852 60.7052 47.356L52.7199 39.3592C52.4837 39.1226 52.1732 39.0042 51.8629 39.0042C51.5525 39.0042 51.2422 39.1225 51.0058 39.3592C50.5332 39.8324 50.5332 40.6025 51.0058 41.0758L58.9911 49.0725C59.22 49.3018 59.5244 49.4281 59.8482 49.4281C60.1719 49.4281 60.4763 49.3018 60.7052 49.0725C60.9342 48.8433 61.0603 48.5384 61.0603 48.2142Z" fill="#7D7942"/>
<path id="Vector_58" fill-rule="evenodd" clip-rule="evenodd" d="M50.4814 45.5173L52.2888 43.7073L56.358 47.7824L54.5507 49.5924L50.4814 45.5173Z" fill="#7D7942"/>
<path id="Vector_59" fill-rule="evenodd" clip-rule="evenodd" d="M55.8478 52.2208L47.8625 44.2241C47.6263 43.9875 47.3158 43.8691 47.0054 43.8691C46.6951 43.8691 46.3847 43.9874 46.1484 44.2241C45.6758 44.6973 45.6758 45.4674 46.1484 45.9407L54.1337 53.9374C54.3626 54.1667 54.667 54.293 54.9907 54.293C55.3145 54.293 55.6189 54.1667 55.8478 53.9374C56.3204 53.4642 56.3204 52.6941 55.8478 52.2208Z" fill="#7D7942"/>
<path id="Vector_60" fill-rule="evenodd" clip-rule="evenodd" d="M45.6221 50.3805L47.4294 48.5706L51.4988 52.6458L49.6914 54.4557L45.6221 50.3805Z" fill="#7D7942"/>
<path id="Vector_61" fill-rule="evenodd" clip-rule="evenodd" d="M50.99 57.0859L43.0046 49.0891C42.7758 48.8598 42.4714 48.7335 42.1477 48.7335C41.824 48.7335 41.5196 48.8597 41.2906 49.0891C41.0617 49.3183 40.9355 49.6232 40.9355 49.9474C40.9355 50.2716 41.0617 50.5764 41.2906 50.8057L49.2759 58.8025C49.5048 59.0317 49.8093 59.1579 50.133 59.1579C50.4567 59.1579 50.7611 59.0316 50.99 58.8025C51.219 58.5732 51.345 58.2684 51.345 57.944C51.345 57.6197 51.219 57.315 50.99 57.0859Z" fill="#7D7942"/>
<path id="Vector_62" fill-rule="evenodd" clip-rule="evenodd" d="M40.9913 59.1021C41.688 59.7999 42.2489 60.6284 42.6383 61.5287L46.6502 57.5108L42.5803 53.435L38.5684 57.4527C39.4673 57.8428 40.2947 58.4045 40.9913 59.1021Z" fill="#7D7942"/>
<path id="Vector_63" fill-rule="evenodd" clip-rule="evenodd" d="M42.0047 62.5261C41.6703 61.4803 41.1044 60.5536 40.3232 59.7712C39.5421 58.9889 38.6165 58.4223 37.5724 58.0873C36.8782 57.8644 36.1679 57.7558 35.4648 57.7558C33.6762 57.7558 31.9346 58.4586 30.6243 59.771C29.3288 61.0683 28.6152 62.793 28.6152 64.6275C28.6152 66.462 29.3286 68.1867 30.6243 69.4841C31.9196 70.7814 33.6419 71.496 35.4738 71.496C37.3056 71.496 39.0279 70.7816 40.3232 69.4841C42.1491 67.6562 42.7933 64.99 42.0047 62.5261ZM38.1771 67.3348C37.4319 68.081 36.4527 68.4543 35.4738 68.4543C34.4948 68.4543 33.5161 68.0811 32.7707 67.335C31.2805 65.8422 31.2805 63.4135 32.7706 61.9207C34.2611 60.4283 36.6864 60.4283 38.1769 61.9205C39.6672 63.4134 39.6672 65.8422 38.1771 67.3348Z" fill="#7D7942"/>
<path id="Vector_64" d="M35.4759 67.5083C37.0656 67.5083 38.3542 66.2178 38.3542 64.6259C38.3542 63.034 37.0656 61.7435 35.4759 61.7435C33.8863 61.7435 32.5977 63.034 32.5977 64.6259C32.5977 66.2178 33.8863 67.5083 35.4759 67.5083Z" fill="#7D7942"/>
</g>
</g>
</g>
</svg>
