<svg width="100" height="100" viewBox="0 0 100 100" fill="none" xmlns="http://www.w3.org/2000/svg">
<g id="motor">
<g id="Group">
<path id="Vector" d="M75 75C88.8071 61.1929 88.8071 38.8071 75 25C61.1929 11.1929 38.8071 11.1929 25 25C11.1929 38.8071 11.1929 61.1929 25 75C38.8071 88.8071 61.1929 88.8071 75 75Z" fill="#AAD496"/>
<g id="Group_2">
<path id="Vector_2" fill-rule="evenodd" clip-rule="evenodd" d="M22.6044 27.9505L22.5098 27.7708C22.5904 27.6712 22.6701 27.571 22.7518 27.4723L22.6044 27.9505Z" fill="#94D477"/>
<path id="Vector_3" fill-rule="evenodd" clip-rule="evenodd" d="M14.6484 50.1103L15.4343 51.4885L14.8338 53.6501C14.7143 52.4862 14.652 51.3052 14.6484 50.1103Z" fill="#B6E1A3"/>
<path id="Vector_4" fill-rule="evenodd" clip-rule="evenodd" d="M15.4337 51.4885L14.6478 50.1103C14.6477 50.0735 14.6465 50.0369 14.6465 49.9999C14.6465 49.4439 14.6609 48.8914 14.6864 48.3415L15.4337 51.4885Z" fill="#B0DE9B"/>
<path id="Vector_5" fill-rule="evenodd" clip-rule="evenodd" d="M26.2285 76.1721L34.5203 74.6336L33.5638 81.3102C30.9005 79.9085 28.4363 78.1792 26.2285 76.1721Z" fill="#CCEBBF"/>
<path id="Vector_6" fill-rule="evenodd" clip-rule="evenodd" d="M22.9189 72.7265L29.0029 48.8725L34.5206 74.6334L26.2288 76.1719C25.0495 75.0999 23.9445 73.9477 22.9189 72.7265Z" fill="#C7E8B8"/>
<path id="Vector_7" fill-rule="evenodd" clip-rule="evenodd" d="M29.0034 48.8725L15.6758 41.5092C15.8827 40.6697 16.1197 39.8419 16.3853 39.0273L29.7761 36.0574L29.0034 48.8725Z" fill="#B5E1A1"/>
<path id="Vector_8" fill-rule="evenodd" clip-rule="evenodd" d="M22.5091 27.7708L22.6037 27.9505L22.332 27.9904C22.3906 27.9168 22.4499 27.8439 22.5091 27.7708Z" fill="#97D47C"/>
<path id="Vector_9" fill-rule="evenodd" clip-rule="evenodd" d="M22.3316 27.9904L22.6028 27.9506L20.625 30.3206C21.1625 29.5198 21.7322 28.7429 22.3316 27.9904Z" fill="#A3D989"/>
<path id="Vector_10" fill-rule="evenodd" clip-rule="evenodd" d="M20.6257 30.3206L22.6035 27.9506L29.7757 36.0574L16.3848 39.0273C17.4008 35.913 18.8356 32.9879 20.6257 30.3206Z" fill="#ABDC94"/>
<path id="Vector_11" fill-rule="evenodd" clip-rule="evenodd" d="M15.4328 51.4885L14.6865 48.3417C14.7948 45.9972 15.1322 43.7129 15.6754 41.5094L29.003 48.8726L15.4328 51.4885Z" fill="#B6E1A3"/>
<path id="Vector_12" fill-rule="evenodd" clip-rule="evenodd" d="M15.752 58.8087L29.0021 48.8726L22.9181 72.7265C19.5702 68.7402 17.0846 64.0059 15.752 58.8087Z" fill="#C4E6B4"/>
<path id="Vector_13" fill-rule="evenodd" clip-rule="evenodd" d="M14.833 53.6501L15.4326 51.4885L29.0027 48.8725L15.7526 58.8086C15.3233 57.1338 15.0137 55.4111 14.833 53.6501Z" fill="#BEE4AD"/>
<path id="Vector_14" fill-rule="evenodd" clip-rule="evenodd" d="M43.3463 63.1252L29.0029 48.8725L38.4908 46.1263L43.3463 63.1252Z" fill="#C5E8B6"/>
<path id="Vector_15" fill-rule="evenodd" clip-rule="evenodd" d="M38.4906 46.1263L29.7754 36.0574L35.8445 25.5961L38.4906 46.1263Z" fill="#B3E09E"/>
<path id="Vector_16" fill-rule="evenodd" clip-rule="evenodd" d="M29.0029 48.8725L29.7756 36.0574L38.4908 46.1263L29.0029 48.8725Z" fill="#BDE4AC"/>
<path id="Vector_17" fill-rule="evenodd" clip-rule="evenodd" d="M63.4287 41.5493L56.3672 28.8656L68.5549 19.8905C69.0639 20.2047 69.5641 20.5317 70.0555 20.8706L63.4287 41.5493Z" fill="#A9DC92"/>
<path id="Vector_18" fill-rule="evenodd" clip-rule="evenodd" d="M22.6035 27.9506L22.7507 27.4723C24.5277 25.3247 26.554 23.3911 28.7847 21.7148L35.8448 25.5961L22.6035 27.9506Z" fill="#9CD681"/>
<path id="Vector_19" fill-rule="evenodd" clip-rule="evenodd" d="M29.7756 36.0574L22.6035 27.9506L35.8447 25.5961L29.7756 36.0574Z" fill="#A7DB8F"/>
<path id="Vector_20" fill-rule="evenodd" clip-rule="evenodd" d="M35.8444 25.5961L28.7842 21.7147C30.9317 20.1009 33.2695 18.7276 35.7569 17.6307L35.8444 25.5961Z" fill="#97D47C"/>
<path id="Vector_21" fill-rule="evenodd" clip-rule="evenodd" d="M34.5204 74.6336L29.0029 48.8725L43.3463 63.1252L34.5204 74.6336Z" fill="#C9E9BB"/>
<path id="Vector_22" fill-rule="evenodd" clip-rule="evenodd" d="M60.0077 59.7255L50.7393 53.4499L63.4278 41.5493L60.0077 59.7255Z" fill="#C5E7B5"/>
<path id="Vector_23" fill-rule="evenodd" clip-rule="evenodd" d="M33.5635 81.3102L34.5199 74.6336L40.9532 84.1891C38.3615 83.5039 35.8863 82.5326 33.5635 81.3102Z" fill="#CFECC2"/>
<path id="Vector_24" fill-rule="evenodd" clip-rule="evenodd" d="M50.7393 53.4499L56.3663 28.8656L63.4278 41.5493L50.7393 53.4499Z" fill="#BAE3A7"/>
<path id="Vector_25" fill-rule="evenodd" clip-rule="evenodd" d="M35.8452 25.5961L35.7578 17.6307C36.9919 17.0867 38.2624 16.6098 39.5656 16.2073L51.1811 18.6649L35.8452 25.5961Z" fill="#97D47C"/>
<path id="Vector_26" fill-rule="evenodd" clip-rule="evenodd" d="M43.3467 63.1252L38.4912 46.1263L50.7401 53.4499L43.3467 63.1252Z" fill="#C7E8B8"/>
<path id="Vector_27" fill-rule="evenodd" clip-rule="evenodd" d="M52.2841 84.7011L34.5205 74.6336L43.3464 63.1252L52.2841 84.7011Z" fill="#D0ECC4"/>
<path id="Vector_28" fill-rule="evenodd" clip-rule="evenodd" d="M40.9538 84.1891L34.5205 74.6336L52.2841 84.7012L51.028 85.3452C50.6888 85.3548 50.3488 85.3608 50.0072 85.3608C46.8774 85.3608 43.8435 84.9522 40.9538 84.1891Z" fill="#D2ECC5"/>
<path id="Vector_29" fill-rule="evenodd" clip-rule="evenodd" d="M50.7401 53.4499L38.4912 46.1263L56.3671 28.8656L50.7401 53.4499Z" fill="#BDE4AC"/>
<path id="Vector_30" fill-rule="evenodd" clip-rule="evenodd" d="M38.4908 46.1263L35.8447 25.5961L56.3667 28.8656L38.4908 46.1263Z" fill="#B0DE9B"/>
<path id="Vector_31" fill-rule="evenodd" clip-rule="evenodd" d="M56.3667 28.8656L35.8447 25.5961L51.1807 18.6647L56.3667 28.8656Z" fill="#A1D988"/>
<path id="Vector_32" fill-rule="evenodd" clip-rule="evenodd" d="M51.0283 85.3451L52.2844 84.7011L52.5628 85.268C52.0542 85.3044 51.5426 85.3304 51.0283 85.3451Z" fill="#D9EFCE"/>
<path id="Vector_33" fill-rule="evenodd" clip-rule="evenodd" d="M52.2844 84.7011L43.3467 63.1252L59.0157 80.7782L52.2844 84.7011Z" fill="#D4EDC9"/>
<path id="Vector_34" fill-rule="evenodd" clip-rule="evenodd" d="M59.0157 80.7782L43.3467 63.1252L60.0085 59.7255L59.0157 80.7782Z" fill="#D0ECC4"/>
<path id="Vector_35" fill-rule="evenodd" clip-rule="evenodd" d="M52.5626 85.2681L52.2842 84.7011L59.0155 80.7782L58.6056 84.3058C56.6505 84.7943 54.6313 85.1204 52.5626 85.2681Z" fill="#DBF0D1"/>
<path id="Vector_36" fill-rule="evenodd" clip-rule="evenodd" d="M43.3467 63.1252L50.7401 53.4499L60.0085 59.7255L43.3467 63.1252Z" fill="#C9E9BB"/>
<path id="Vector_37" fill-rule="evenodd" clip-rule="evenodd" d="M56.3667 28.8656L51.1807 18.6647L65.6499 18.2813C66.6456 18.7733 67.6146 19.3102 68.5546 19.8905L56.3667 28.8656Z" fill="#9CD681"/>
<path id="Vector_38" fill-rule="evenodd" clip-rule="evenodd" d="M59.0156 80.7782L60.0085 59.7255L70.3799 66.5254L59.0156 80.7782Z" fill="#D2ECC5"/>
<path id="Vector_39" fill-rule="evenodd" clip-rule="evenodd" d="M51.1809 18.6647L39.5654 16.2072C40.0312 16.0635 40.5015 15.9301 40.9753 15.8052L64.2307 17.6188C64.7095 17.8295 65.1827 18.0503 65.6501 18.2811L51.1809 18.6647Z" fill="#94D477"/>
<path id="Vector_40" fill-rule="evenodd" clip-rule="evenodd" d="M75.2334 74.7756L70.3789 66.5254L77.5498 58.6802L78.5808 70.83C77.5612 72.2262 76.4421 73.5449 75.2334 74.7756Z" fill="#D1ECC5"/>
<path id="Vector_41" fill-rule="evenodd" clip-rule="evenodd" d="M70.3792 66.5254L60.0078 59.7255L77.5501 58.6802L70.3792 66.5254Z" fill="#CCEABE"/>
<path id="Vector_42" fill-rule="evenodd" clip-rule="evenodd" d="M77.5499 58.6802L63.4277 41.5493L78.5199 29.086C79.092 29.8648 79.6334 30.6677 80.1414 31.4932L77.5499 58.6802Z" fill="#B6E1A3"/>
<path id="Vector_43" fill-rule="evenodd" clip-rule="evenodd" d="M63.4277 41.5493L70.0547 20.8706C73.3144 23.1182 76.1775 25.8987 78.5199 29.086L63.4277 41.5493Z" fill="#A7DB8F"/>
<path id="Vector_44" fill-rule="evenodd" clip-rule="evenodd" d="M66.548 81.2589L59.0156 80.7782L70.3797 66.5254L75.2342 74.7756C72.6992 77.3562 69.7719 79.5494 66.548 81.2589Z" fill="#D9EFCE"/>
<path id="Vector_45" fill-rule="evenodd" clip-rule="evenodd" d="M60.0078 59.7255L63.4279 41.5493L77.5501 58.6802L60.0078 59.7255Z" fill="#C4E6B4"/>
<path id="Vector_46" fill-rule="evenodd" clip-rule="evenodd" d="M58.6055 84.3058L59.0154 80.7782L66.5477 81.2589C64.0613 82.5771 61.3995 83.6077 58.6055 84.3058Z" fill="#DFF3D7"/>
<path id="Vector_47" fill-rule="evenodd" clip-rule="evenodd" d="M55.3926 15.0468L43.3896 15.2604C45.5337 14.8544 47.7454 14.6394 50.0076 14.6394C51.8385 14.6394 53.6367 14.7785 55.3926 15.0468Z" fill="#8ED16F"/>
<path id="Vector_48" fill-rule="evenodd" clip-rule="evenodd" d="M64.2299 17.619L40.9746 15.8053C41.7688 15.5961 42.574 15.4147 43.3891 15.2602L55.392 15.0466C58.4883 15.5207 61.4522 16.3972 64.2299 17.619Z" fill="#94D477"/>
<path id="Vector_49" fill-rule="evenodd" clip-rule="evenodd" d="M77.5508 58.6802L80.1423 31.4932C83.3826 36.7583 85.2806 42.9368 85.3627 49.5531L77.5508 58.6802Z" fill="#B5E1A0"/>
<path id="Vector_50" fill-rule="evenodd" clip-rule="evenodd" d="M77.5508 58.6802L85.3627 49.5531C85.3646 49.7021 85.3684 49.8506 85.3684 49.9999C85.3684 52.3936 85.1292 54.7312 84.6757 56.9915L77.5508 58.6802Z" fill="#B8E3A6"/>
<path id="Vector_51" fill-rule="evenodd" clip-rule="evenodd" d="M78.5818 70.83L77.5508 58.6802L82.7683 63.3267C81.6761 66.0077 80.2653 68.5245 78.5818 70.83Z" fill="#CFECC2"/>
<path id="Vector_52" fill-rule="evenodd" clip-rule="evenodd" d="M82.7683 63.3269L77.5508 58.6804L84.6759 56.9917C84.2359 59.1833 83.593 61.3016 82.7683 63.3269Z" fill="#C5E7B5"/>
</g>
<path id="Vector_53" d="M50.0075 13.5356C60.0768 13.5356 69.1928 17.6171 75.7917 24.216C82.3906 30.8147 86.4721 39.9309 86.4721 50.0003C86.4721 60.0696 82.3906 69.1856 75.7917 75.7844C69.1928 82.3833 60.0768 86.4648 50.0075 86.4648C39.9381 86.4648 30.8221 82.3833 24.2232 75.7844C17.6245 69.1855 13.543 60.0693 13.543 50.0001C13.543 39.9309 17.6245 30.8147 24.2232 24.2158C30.8221 17.6169 39.9381 13.5356 50.0075 13.5356ZM74.2291 25.7784C68.0303 19.5796 59.4667 15.7456 50.0075 15.7456C40.5483 15.7456 31.9846 19.5796 25.7858 25.7784C19.587 31.9772 15.753 40.5409 15.753 50.0001C15.753 59.4593 19.5871 68.023 25.7858 74.2218C31.9846 80.4204 40.5483 84.2546 50.0075 84.2546C59.4667 84.2546 68.0303 80.4206 74.2291 74.2218C80.428 68.023 84.2619 59.4593 84.2619 50.0001C84.2619 40.5409 80.428 31.9771 74.2291 25.7784Z" fill="#5D7056"/>
</g>
<g id="Group_3">
<g id="Group_4">
<path id="Vector_54" fill-rule="evenodd" clip-rule="evenodd" d="M31.933 46.8694H29.8109C29.1515 46.8694 28.6152 47.4057 28.6152 48.0649V53.2168C28.6152 53.876 29.1515 54.4123 29.8109 54.4123H31.933V46.8694Z" fill="#5D7056"/>
<path id="Vector_55" fill-rule="evenodd" clip-rule="evenodd" d="M32.873 49.1609H35.4967V52.1205H32.873V49.1609Z" fill="#5D7056"/>
<path id="Vector_56" fill-rule="evenodd" clip-rule="evenodd" d="M70.2061 51.2659H68.084V58.8087H70.2061C70.8654 58.8087 71.4017 58.2724 71.4017 57.6132V52.4613C71.4017 51.802 70.8652 51.2659 70.2061 51.2659Z" fill="#5D7056"/>
<path id="Vector_57" fill-rule="evenodd" clip-rule="evenodd" d="M64.5195 53.5573H67.1432V56.5171H64.5195V53.5573Z" fill="#5D7056"/>
<path id="Vector_58" fill-rule="evenodd" clip-rule="evenodd" d="M53.7802 38.517V36.3951C53.7802 35.7359 53.2439 35.1996 52.5847 35.1996H47.4328C46.7736 35.1996 46.2373 35.7359 46.2373 36.3951V38.517H53.7802Z" fill="#5D7056"/>
<path id="Vector_59" fill-rule="evenodd" clip-rule="evenodd" d="M48.5283 39.4573H51.4883V42.0809H48.5283V39.4573Z" fill="#5D7056"/>
<path id="Vector_60" fill-rule="evenodd" clip-rule="evenodd" d="M63.5798 45.7935H59.5545C59.3861 45.7935 59.2307 45.7036 59.1468 45.5577L57.6885 43.0213H42.3288L40.8705 45.5577C40.7867 45.7036 40.6312 45.7935 40.4628 45.7935H36.4375V55.7464L46.7728 64.8008H63.5796V45.7935H63.5798ZM54.9539 54.0107L50.2588 61.866C50.1724 62.0106 50.0177 62.095 49.8553 62.095C49.8137 62.095 49.7717 62.0895 49.7302 62.078C49.5264 62.0217 49.3851 61.8363 49.3851 61.6248V55.7783H46.8784C46.7294 55.7783 46.5893 55.7078 46.5006 55.5882C46.4119 55.4686 46.3852 55.3139 46.4286 55.1714L48.8088 47.3467C48.869 47.1487 49.0517 47.0135 49.2587 47.0135H53.4565C53.6046 47.0135 53.7443 47.0833 53.833 47.202C53.9218 47.3207 53.9494 47.4744 53.9075 47.6165L52.2346 53.2995H54.5502C54.7194 53.2995 54.8757 53.3905 54.9592 53.5377C55.0427 53.6848 55.0408 53.8654 54.9539 54.0107Z" fill="#5D7056"/>
<path id="Vector_61" fill-rule="evenodd" clip-rule="evenodd" d="M51.2293 54.0511C51.1405 53.9324 51.113 53.7788 51.1547 53.6366L52.8277 47.9536H49.6068L47.5127 54.8379H49.8549C50.1146 54.8379 50.3252 55.0484 50.3252 55.3081V59.9216L53.7212 54.2397H51.6058C51.4575 54.2397 51.318 54.1698 51.2293 54.0511Z" fill="#5D7056"/>
</g>
</g>
</g>
</svg>
