<svg width="100" height="101" viewBox="0 0 100 101" fill="none" xmlns="http://www.w3.org/2000/svg">
<g id="rendimiento">
<g id="Group">
<path id="Vector" d="M75 75.1079C88.8071 61.2809 88.8071 38.8629 75 25.036C61.1929 11.209 38.8071 11.209 25 25.036C11.1929 38.8629 11.1929 61.2809 25 75.1079C38.8071 88.9349 61.1929 88.9349 75 75.1079Z" fill="#AAD496"/>
<g id="Group_2">
<path id="Vector_2" fill-rule="evenodd" clip-rule="evenodd" d="M22.6054 27.9908L22.5107 27.8108C22.5914 27.7111 22.6711 27.6107 22.7528 27.5119L22.6054 27.9908Z" fill="#94D477"/>
<path id="Vector_3" fill-rule="evenodd" clip-rule="evenodd" d="M14.6494 50.1824L15.4353 51.5626L14.8348 53.7274C14.7153 52.5617 14.653 51.3791 14.6494 50.1824Z" fill="#B6E1A3"/>
<path id="Vector_4" fill-rule="evenodd" clip-rule="evenodd" d="M15.4346 51.5627L14.6488 50.1824C14.6487 50.1456 14.6475 50.109 14.6475 50.0719C14.6475 49.515 14.6619 48.9617 14.6873 48.4111L15.4346 51.5627Z" fill="#B0DE9B"/>
<path id="Vector_5" fill-rule="evenodd" clip-rule="evenodd" d="M26.2295 76.2817L34.5213 74.741L33.5648 81.4272C30.9015 80.0235 28.4373 78.2917 26.2295 76.2817Z" fill="#CCEBBF"/>
<path id="Vector_6" fill-rule="evenodd" clip-rule="evenodd" d="M22.9199 72.8311L29.0039 48.9428L34.5216 74.7408L26.2298 76.2816C25.0505 75.208 23.9455 74.0541 22.9199 72.8311Z" fill="#C7E8B8"/>
<path id="Vector_7" fill-rule="evenodd" clip-rule="evenodd" d="M29.0044 48.9428L15.6768 41.569C15.8837 40.7282 16.1207 39.8992 16.3863 39.0835L29.7771 36.1093L29.0044 48.9428Z" fill="#B5E1A1"/>
<path id="Vector_8" fill-rule="evenodd" clip-rule="evenodd" d="M22.5101 27.8108L22.6047 27.9908L22.333 28.0307C22.3916 27.957 22.4508 27.884 22.5101 27.8108Z" fill="#97D47C"/>
<path id="Vector_9" fill-rule="evenodd" clip-rule="evenodd" d="M22.3335 28.0307L22.6048 27.9908L20.627 30.3642C21.1645 29.5623 21.7342 28.7842 22.3335 28.0307Z" fill="#A3D989"/>
<path id="Vector_10" fill-rule="evenodd" clip-rule="evenodd" d="M20.6266 30.3642L22.6045 27.9908L29.7767 36.1093L16.3857 39.0835C17.4018 35.9647 18.8366 33.0354 20.6266 30.3642Z" fill="#ABDC94"/>
<path id="Vector_11" fill-rule="evenodd" clip-rule="evenodd" d="M15.4337 51.5626L14.6875 48.4112C14.7958 46.0634 15.1332 43.7758 15.6763 41.5691L29.004 48.9429L15.4337 51.5626Z" fill="#B6E1A3"/>
<path id="Vector_12" fill-rule="evenodd" clip-rule="evenodd" d="M15.7529 58.8933L29.003 48.943L22.919 72.8311C19.5712 68.8391 17.0855 64.098 15.7529 58.8933Z" fill="#C4E6B4"/>
<path id="Vector_13" fill-rule="evenodd" clip-rule="evenodd" d="M14.834 53.7273L15.4336 51.5626L29.0037 48.9428L15.7536 58.8932C15.3242 57.216 15.0146 55.4908 14.834 53.7273Z" fill="#BEE4AD"/>
<path id="Vector_14" fill-rule="evenodd" clip-rule="evenodd" d="M43.3473 63.2161L29.0039 48.9428L38.4918 46.1927L43.3473 63.2161Z" fill="#C5E8B6"/>
<path id="Vector_15" fill-rule="evenodd" clip-rule="evenodd" d="M38.4916 46.1927L29.7764 36.1093L35.8455 25.633L38.4916 46.1927Z" fill="#B3E09E"/>
<path id="Vector_16" fill-rule="evenodd" clip-rule="evenodd" d="M29.0039 48.9428L29.7766 36.1093L38.4918 46.1927L29.0039 48.9428Z" fill="#BDE4AC"/>
<path id="Vector_17" fill-rule="evenodd" clip-rule="evenodd" d="M63.4287 41.6091L56.3672 28.9071L68.5549 19.9192C69.0639 20.2338 69.5641 20.5613 70.0555 20.9006L63.4287 41.6091Z" fill="#A9DC92"/>
<path id="Vector_18" fill-rule="evenodd" clip-rule="evenodd" d="M22.6045 27.9908L22.7517 27.5119C24.5287 25.3611 26.5549 23.4248 28.7856 21.746L35.8458 25.633L22.6045 27.9908Z" fill="#9CD681"/>
<path id="Vector_19" fill-rule="evenodd" clip-rule="evenodd" d="M29.7766 36.1093L22.6045 27.9908L35.8457 25.633L29.7766 36.1093Z" fill="#A7DB8F"/>
<path id="Vector_20" fill-rule="evenodd" clip-rule="evenodd" d="M35.8453 25.6329L28.7852 21.746C30.9326 20.1298 33.2704 18.7545 35.7578 17.6561L35.8453 25.6329Z" fill="#97D47C"/>
<path id="Vector_21" fill-rule="evenodd" clip-rule="evenodd" d="M34.5214 74.741L29.0039 48.9428L43.3473 63.2161L34.5214 74.741Z" fill="#C9E9BB"/>
<path id="Vector_22" fill-rule="evenodd" clip-rule="evenodd" d="M60.0087 59.8115L50.7402 53.5268L63.4288 41.6091L60.0087 59.8115Z" fill="#C5E7B5"/>
<path id="Vector_23" fill-rule="evenodd" clip-rule="evenodd" d="M33.5654 81.4272L34.5219 74.741L40.9551 84.3102C38.3634 83.624 35.8882 82.6513 33.5654 81.4272Z" fill="#CFECC2"/>
<path id="Vector_24" fill-rule="evenodd" clip-rule="evenodd" d="M50.7402 53.5268L56.3672 28.9071L63.4288 41.6091L50.7402 53.5268Z" fill="#BAE3A7"/>
<path id="Vector_25" fill-rule="evenodd" clip-rule="evenodd" d="M35.8461 25.633L35.7588 17.6561C36.9929 17.1113 38.2634 16.6337 39.5666 16.2307L51.1821 18.6917L35.8461 25.633Z" fill="#97D47C"/>
<path id="Vector_26" fill-rule="evenodd" clip-rule="evenodd" d="M43.3477 63.2161L38.4922 46.1927L50.7411 53.5268L43.3477 63.2161Z" fill="#C7E8B8"/>
<path id="Vector_27" fill-rule="evenodd" clip-rule="evenodd" d="M52.2851 84.823L34.5215 74.741L43.3474 63.2161L52.2851 84.823Z" fill="#D0ECC4"/>
<path id="Vector_28" fill-rule="evenodd" clip-rule="evenodd" d="M40.9547 84.3102L34.5215 74.741L52.2851 84.823L51.029 85.468C50.6898 85.4776 50.3498 85.4836 50.0082 85.4836C46.8784 85.4836 43.8444 85.0745 40.9547 84.3102Z" fill="#D2ECC5"/>
<path id="Vector_29" fill-rule="evenodd" clip-rule="evenodd" d="M50.7411 53.5268L38.4922 46.1927L56.3681 28.9071L50.7411 53.5268Z" fill="#BDE4AC"/>
<path id="Vector_30" fill-rule="evenodd" clip-rule="evenodd" d="M38.4918 46.1927L35.8457 25.633L56.3677 28.9071L38.4918 46.1927Z" fill="#B0DE9B"/>
<path id="Vector_31" fill-rule="evenodd" clip-rule="evenodd" d="M56.3677 28.9071L35.8457 25.633L51.1816 18.6916L56.3677 28.9071Z" fill="#A1D988"/>
<path id="Vector_32" fill-rule="evenodd" clip-rule="evenodd" d="M51.0293 85.4679L52.2854 84.823L52.5638 85.3907C52.0551 85.4272 51.5436 85.4532 51.0293 85.4679Z" fill="#D9EFCE"/>
<path id="Vector_33" fill-rule="evenodd" clip-rule="evenodd" d="M52.2854 84.823L43.3477 63.2161L59.0167 80.8944L52.2854 84.823Z" fill="#D4EDC9"/>
<path id="Vector_34" fill-rule="evenodd" clip-rule="evenodd" d="M59.0167 80.8944L43.3477 63.2161L60.0095 59.8115L59.0167 80.8944Z" fill="#D0ECC4"/>
<path id="Vector_35" fill-rule="evenodd" clip-rule="evenodd" d="M52.5636 85.3908L52.2852 84.823L59.0164 80.8944L58.6065 84.4271C56.6514 84.9163 54.6323 85.2429 52.5636 85.3908Z" fill="#DBF0D1"/>
<path id="Vector_36" fill-rule="evenodd" clip-rule="evenodd" d="M43.3477 63.2161L50.7411 53.5268L60.0095 59.8115L43.3477 63.2161Z" fill="#C9E9BB"/>
<path id="Vector_37" fill-rule="evenodd" clip-rule="evenodd" d="M56.3677 28.9071L51.1816 18.6916L65.6509 18.3076C66.6465 18.8004 67.6156 19.338 68.5556 19.9192L56.3677 28.9071Z" fill="#9CD681"/>
<path id="Vector_38" fill-rule="evenodd" clip-rule="evenodd" d="M59.0166 80.8944L60.0095 59.8115L70.3808 66.6212L59.0166 80.8944Z" fill="#D2ECC5"/>
<path id="Vector_39" fill-rule="evenodd" clip-rule="evenodd" d="M51.1819 18.6916L39.5664 16.2305C40.0322 16.0867 40.5025 15.953 40.9763 15.8279L64.2317 17.6442C64.7105 17.8552 65.1837 18.0763 65.6511 18.3075L51.1819 18.6916Z" fill="#94D477"/>
<path id="Vector_40" fill-rule="evenodd" clip-rule="evenodd" d="M75.2353 74.8832L70.3809 66.6211L77.5517 58.7646L78.5828 70.932C77.5632 72.3302 76.444 73.6507 75.2353 74.8832Z" fill="#D1ECC5"/>
<path id="Vector_41" fill-rule="evenodd" clip-rule="evenodd" d="M70.3802 66.6211L60.0088 59.8114L77.551 58.7646L70.3802 66.6211Z" fill="#CCEABE"/>
<path id="Vector_42" fill-rule="evenodd" clip-rule="evenodd" d="M77.5519 58.7647L63.4297 41.6091L78.5218 29.1279C79.0939 29.9078 79.6353 30.7118 80.1434 31.5385L77.5519 58.7647Z" fill="#B6E1A3"/>
<path id="Vector_43" fill-rule="evenodd" clip-rule="evenodd" d="M63.4297 41.6091L70.0567 20.9007C73.3163 23.1515 76.1794 25.936 78.5218 29.1279L63.4297 41.6091Z" fill="#A7DB8F"/>
<path id="Vector_44" fill-rule="evenodd" clip-rule="evenodd" d="M66.5489 81.3759L59.0166 80.8944L70.3807 66.6212L75.2352 74.8832C72.7002 77.4675 69.7729 79.6639 66.5489 81.3759Z" fill="#D9EFCE"/>
<path id="Vector_45" fill-rule="evenodd" clip-rule="evenodd" d="M60.0088 59.8115L63.4289 41.6091L77.551 58.7647L60.0088 59.8115Z" fill="#C4E6B4"/>
<path id="Vector_46" fill-rule="evenodd" clip-rule="evenodd" d="M58.6064 84.4271L59.0163 80.8944L66.5487 81.3759C64.0623 82.696 61.4005 83.728 58.6064 84.4271Z" fill="#DFF3D7"/>
<path id="Vector_47" fill-rule="evenodd" clip-rule="evenodd" d="M55.3935 15.0684L43.3906 15.2824C45.5347 14.8758 47.7464 14.6605 50.0085 14.6605C51.8394 14.6605 53.6377 14.7997 55.3935 15.0684Z" fill="#8ED16F"/>
<path id="Vector_48" fill-rule="evenodd" clip-rule="evenodd" d="M64.2309 17.6443L40.9756 15.8281C41.7698 15.6186 42.575 15.4369 43.39 15.2822L55.3929 15.0683C58.4893 15.543 61.4532 16.4208 64.2309 17.6443Z" fill="#94D477"/>
<path id="Vector_49" fill-rule="evenodd" clip-rule="evenodd" d="M77.5508 58.7647L80.1423 31.5385C83.3826 36.8112 85.2806 42.9986 85.3627 49.6244L77.5508 58.7647Z" fill="#B5E1A0"/>
<path id="Vector_50" fill-rule="evenodd" clip-rule="evenodd" d="M77.5508 58.7646L85.3627 49.6244C85.3646 49.7736 85.3684 49.9224 85.3684 50.0719C85.3684 52.469 85.1292 54.81 84.6757 57.0735L77.5508 58.7646Z" fill="#B8E3A6"/>
<path id="Vector_51" fill-rule="evenodd" clip-rule="evenodd" d="M78.5818 70.932L77.5508 58.7646L82.7683 63.4178C81.6761 66.1027 80.2653 68.6231 78.5818 70.932Z" fill="#CFECC2"/>
<path id="Vector_52" fill-rule="evenodd" clip-rule="evenodd" d="M82.7683 63.418L77.5508 58.7648L84.6759 57.0737C84.2359 59.2684 83.593 61.3899 82.7683 63.418Z" fill="#C5E7B5"/>
</g>
<path id="Vector_53" d="M50.0075 13.5551C60.0768 13.5551 69.1928 17.6424 75.7917 24.2508C82.3906 30.8591 86.4721 39.9884 86.4721 50.0722C86.4721 60.156 82.3906 69.2852 75.7917 75.8934C69.1928 82.5018 60.0768 86.5892 50.0075 86.5892C39.9381 86.5892 30.8221 82.5018 24.2232 75.8934C17.6245 69.285 13.543 60.1557 13.543 50.072C13.543 39.9884 17.6245 30.8591 24.2232 24.2507C30.8221 17.6423 39.9381 13.5551 50.0075 13.5551ZM74.2291 25.8155C68.0303 19.6078 59.4667 15.7683 50.0075 15.7683C40.5483 15.7683 31.9846 19.6078 25.7858 25.8155C19.587 32.0233 15.753 40.5992 15.753 50.072C15.753 59.5449 19.5871 68.1208 25.7858 74.3286C31.9846 80.5362 40.5483 84.3758 50.0075 84.3758C59.4667 84.3758 68.0303 80.5363 74.2291 74.3286C80.428 68.1208 84.2619 59.5449 84.2619 50.072C84.2619 40.5992 80.428 32.0231 74.2291 25.8155Z" fill="#5D7056"/>
</g>
<g id="Group_3">
<g id="Group_4">
<path id="Vector_54" fill-rule="evenodd" clip-rule="evenodd" d="M45.6005 61.0533C46.6387 62.956 48.551 64.0918 50.7162 64.0918C52.3291 64.0918 53.8213 63.458 54.9176 62.307C56.7914 60.3404 57.081 57.3767 55.6216 55.1003L50.716 47.4467L45.8102 55.1003C44.6408 56.9252 44.5624 59.1506 45.6005 61.0533ZM50.7163 61.3553C51.3137 61.3553 51.8598 61.2046 52.3397 60.9072C52.7924 60.6267 53.1708 60.2236 53.434 59.7411C53.6973 59.258 53.8319 58.7212 53.8228 58.189C53.8185 57.929 54.0254 57.7147 54.2851 57.7104C54.2878 57.7104 54.2905 57.7103 54.2932 57.7103C54.5493 57.7103 54.7589 57.9159 54.7632 58.1733C54.7748 58.868 54.6007 59.5663 54.2594 60.1925C53.918 60.8181 53.4254 61.3421 52.8346 61.7081C52.2041 62.0989 51.4914 62.2971 50.7165 62.2971C50.4568 62.2971 50.2463 62.0863 50.2463 61.8262C50.2461 61.5661 50.4566 61.3553 50.7163 61.3553Z" fill="#5D7056"/>
<path id="Vector_55" fill-rule="evenodd" clip-rule="evenodd" d="M34.1268 45.3867C33.6786 45.8354 33.4316 46.4322 33.4316 47.0673V69.1196C33.4316 70.43 34.4962 71.4961 35.8048 71.4961H65.6279C66.9365 71.4961 68.0011 70.43 68.0011 69.1196V32.4437C68.0011 31.1334 66.9365 30.0673 65.6279 30.0673H50.4073C49.7733 30.0673 49.1773 30.3145 48.7291 30.7634L34.1268 45.3867ZM51.4671 35.4735C51.4671 34.7634 52.044 34.1857 52.7529 34.1857H62.5412C63.2504 34.1857 63.8275 34.7634 63.8275 35.4735V38.3022C63.8275 39.0124 63.2504 39.5901 62.5412 39.5901H52.7529C52.0438 39.5901 51.4671 39.0124 51.4671 38.3022V35.4735ZM43.9373 58.128C43.958 56.8869 44.3321 55.6641 45.0195 54.5919L50.321 46.321C50.4074 46.1861 50.5566 46.1046 50.7166 46.1046C50.8767 46.1046 51.0257 46.1861 51.1124 46.321L56.4135 54.5919C57.2789 55.942 57.6368 57.481 57.4483 59.0423C57.2722 60.4997 56.6153 61.8902 55.5985 62.9575C54.323 64.2965 52.5892 65.0338 50.7167 65.0338C49.4443 65.0338 48.2146 64.6887 47.1607 64.0357C46.1683 63.4208 45.3438 62.5458 44.7758 61.5051C44.2079 60.4641 43.918 59.2964 43.9373 58.128Z" fill="#5D7056"/>
<path id="Vector_56" fill-rule="evenodd" clip-rule="evenodd" d="M37.1484 37.4205L40.7685 33.7952L42.5671 35.5964L38.947 39.2217L37.1484 37.4205Z" fill="#5D7056"/>
<path id="Vector_57" fill-rule="evenodd" clip-rule="evenodd" d="M42.1553 31.0797L40.27 29.1917C39.92 28.8413 39.4547 28.6482 38.9598 28.6482C38.465 28.6482 37.9995 28.8412 37.6497 29.1917L32.5573 34.2916C31.835 35.015 31.835 36.1923 32.5575 36.9159L34.4428 38.8036L42.1553 31.0797Z" fill="#5D7056"/>
</g>
</g>
</g>
</svg>
