<svg width="512" height="512" viewBox="0 0 512 512" fill="none" xmlns="http://www.w3.org/2000/svg">
<path d="M146.14 241.85C146.14 241.85 146.85 256.01 150.62 262.1C154.39 268.19 159 268 160.11 277L161.25 287.57L180.64 285.57L174.5 239.16L158.33 227.7L146.14 241.85Z" fill="#D89071"/>
<path d="M195.72 215.62L56.23 213.56C55.1062 213.55 54.0319 213.096 53.24 212.299C52.4481 211.501 52.0026 210.424 52 209.3C51.9233 179.793 58.5572 150.655 71.4 124.09C71.8865 123.088 72.7469 122.317 73.7961 121.943C74.8453 121.569 75.9994 121.622 77.01 122.09L203.66 180.59C204.546 180.997 205.264 181.696 205.696 182.57C206.127 183.444 206.245 184.44 206.03 185.39L199.9 212.3C199.687 213.248 199.157 214.094 198.396 214.698C197.636 215.302 196.691 215.628 195.72 215.62Z" fill="#00CCC1"/>
<path d="M181.7 222.55L165.09 220.69C163.969 220.585 162.885 220.24 161.91 219.677C160.936 219.114 160.094 218.347 159.444 217.428C158.793 216.51 158.349 215.462 158.141 214.356C157.933 213.25 157.967 212.112 158.24 211.02L167.81 168.93C168.038 167.828 168.501 166.787 169.169 165.881C169.836 164.974 170.691 164.223 171.676 163.677C172.661 163.132 173.752 162.806 174.875 162.722C175.997 162.638 177.125 162.798 178.18 163.19L193.95 168.69C197.82 170.04 200.08 174.52 199.13 178.69L190.7 215.69C189.75 220 185.77 223 181.7 222.55Z" fill="#FF535C"/>
<path d="M184.712 199.778L170.85 194.918C168.63 194.14 166.199 195.308 165.42 197.529L145.146 255.358C144.368 257.578 145.537 260.009 147.757 260.787L161.62 265.647C163.84 266.426 166.271 265.257 167.049 263.037L187.323 205.208C188.102 202.987 186.933 200.556 184.712 199.778Z" fill="#FF535C"/>
<path d="M413.37 269.5C413.37 269.5 415.59 252.09 414.02 246.78C412.45 241.47 410.15 233.48 410.63 230.58C411.11 227.68 413.77 219.83 418.73 218.98C418.73 218.98 420.62 187.64 425.46 188.12C430.3 188.6 428.63 216.12 428.63 216.12C428.63 216.12 436.09 217.12 436.25 223.05C436.25 223.05 442.37 223.37 442.37 228.77C443.572 229.202 444.607 230.004 445.325 231.06C446.044 232.117 446.409 233.373 446.37 234.65C446.21 239.16 444.6 247.38 440.37 251.41C436.14 255.44 440.21 268.33 440.21 268.33C440.21 268.33 421.91 278.68 413.37 269.5Z" fill="#D89071"/>
<path d="M418.87 229.37C418.87 229.37 426.42 233.58 428.49 231.61C430.56 229.64 418.73 219 418.73 219" stroke="#383333" stroke-width="0.75" stroke-linecap="round" stroke-linejoin="round"/>
<path d="M428.63 216.16L423.99 224.14" stroke="#383333" stroke-width="0.75" stroke-linecap="round" stroke-linejoin="round"/>
<path d="M436.25 223.09C436.25 223.09 427.54 235.61 423.73 236.28C419.92 236.95 419.97 232.16 421.02 230.44" stroke="#383333" stroke-width="0.75" stroke-linecap="round" stroke-linejoin="round"/>
<path d="M426 235.05C426 235.05 426.29 238.62 428.73 238.25C431.17 237.88 442.37 228.81 442.37 228.81" stroke="#383333" stroke-width="0.75" stroke-linecap="round" stroke-linejoin="round"/>
<path d="M429.7 237.9C429.7 237.9 429.63 241.08 433.32 241.08C437.01 241.08 443.8 234.81 443.8 234.81" stroke="#383333" stroke-width="0.75" stroke-linecap="round" stroke-linejoin="round"/>
<path d="M245 158C243.672 156.739 242.099 155.765 240.379 155.137C238.659 154.509 236.828 154.241 235 154.35C232.77 154.474 230.642 155.324 228.94 156.77C223.51 162.08 225.94 178.42 235.65 182.42C241.06 184.66 246.65 182.21 248.6 181.28C247.373 173.527 246.173 165.767 245 158Z" fill="#D17352"/>
<path d="M231.31 162.7L240.55 162.08C240.55 162.08 231.26 168.14 239.3 175.57" stroke="#383333" stroke-width="0.75" stroke-linecap="round" stroke-linejoin="round"/>
<path d="M358.83 158.39C360.093 157.095 361.608 156.072 363.281 155.384C364.955 154.696 366.751 154.358 368.56 154.39C370.761 154.42 372.893 155.168 374.63 156.52C380.2 161.52 378.45 177.7 369.1 182.05C363.88 184.48 358.22 182.31 356.31 181.47L358.83 158.39Z" fill="#D17352"/>
<path d="M372.54 162.37L363.43 162.14C363.43 162.14 372.82 167.72 365.22 175.37" stroke="#383333" stroke-width="0.75" stroke-linecap="round" stroke-linejoin="round"/>
<path d="M404.54 113.11C404.54 113.11 397 116.39 395.69 122.62C394.69 127.19 396.5 147.05 397.51 157.31C397.543 157.711 397.706 158.09 397.974 158.389C398.242 158.689 398.6 158.893 398.995 158.971C399.389 159.049 399.798 158.997 400.16 158.821C400.522 158.646 400.817 158.358 401 158C403.95 152.72 409.11 144.61 415.88 138.26L404.54 113.11Z" fill="#FFB833"/>
<path d="M449.44 113.11C449.44 113.11 456.98 116.39 458.29 122.62C459.29 127.19 457.48 147.05 456.47 157.31C456.43 157.704 456.265 158.075 455.998 158.368C455.732 158.661 455.379 158.861 454.99 158.938C454.602 159.016 454.199 158.966 453.84 158.797C453.482 158.628 453.188 158.349 453 158C450 152.72 444.89 144.61 438.11 138.26L449.44 113.11Z" fill="#FFB833"/>
<mask id="mask0_412_1037" style="mask-type:luminance" maskUnits="userSpaceOnUse" x="400" y="33" width="55" height="111">
<path d="M442.42 141.92C449.55 129.83 454.67 110.81 454.28 93.5601C453.62 64.4201 437.28 43.4601 429.28 34.6501C429.061 34.4093 428.794 34.217 428.496 34.0853C428.198 33.9537 427.876 33.8857 427.55 33.8857C427.224 33.8857 426.902 33.9537 426.604 34.0853C426.306 34.217 426.039 34.4093 425.82 34.6501C417.82 43.4601 401.5 64.4201 400.82 93.5601C400.43 110.81 405.55 129.83 412.68 141.92C422.498 143.721 432.562 143.721 442.38 141.92H442.42Z" fill="white"/>
</mask>
<g mask="url(#mask0_412_1037)">
<path d="M442.42 141.92C449.55 129.83 454.67 110.81 454.28 93.5601C453.62 64.4201 437.28 43.4601 429.28 34.6501C429.061 34.4093 428.794 34.217 428.496 34.0853C428.198 33.9537 427.876 33.8857 427.55 33.8857C427.224 33.8857 426.902 33.9537 426.604 34.0853C426.306 34.217 426.039 34.4093 425.82 34.6501C417.82 43.4601 401.5 64.4201 400.82 93.5601C400.43 110.81 405.55 129.83 412.68 141.92C422.498 143.721 432.562 143.721 442.38 141.92H442.42Z" fill="#FF535C"/>
<path d="M454.3 62.6202C437.183 55.5409 417.957 55.5409 400.84 62.6202V25.4102H454.3V62.6202Z" fill="#FFB833"/>
</g>
<path d="M443.43 144.52C443.404 145.477 443.035 146.393 442.391 147.101C441.747 147.809 440.87 148.263 439.92 148.38C431.615 149.689 423.155 149.689 414.85 148.38C413.902 148.261 413.027 147.806 412.385 147.098C411.743 146.39 411.376 145.476 411.35 144.52V144C411.397 142.917 411.872 141.896 412.671 141.163C413.469 140.43 414.527 140.044 415.61 140.09H439.17C440.253 140.044 441.311 140.43 442.109 141.163C442.908 141.896 443.383 142.917 443.43 144V144.52Z" fill="#FFB833"/>
<path d="M443.43 151.29C443.404 152.247 443.035 153.163 442.391 153.871C441.747 154.579 440.87 155.033 439.92 155.15C431.615 156.465 423.155 156.465 414.85 155.15C413.903 155.031 413.03 154.578 412.389 153.872C411.747 153.166 411.378 152.254 411.35 151.3V150.8C411.397 149.717 411.872 148.696 412.671 147.963C413.469 147.23 414.527 146.844 415.61 146.89H439.17C440.253 146.844 441.311 147.23 442.109 147.963C442.908 148.696 443.383 149.717 443.43 150.8V151.29Z" fill="#FFB833"/>
<path d="M427.57 105.49C436.059 105.49 442.94 98.6086 442.94 90.12C442.94 81.6314 436.059 74.75 427.57 74.75C419.081 74.75 412.2 81.6314 412.2 90.12C412.2 98.6086 419.081 105.49 427.57 105.49Z" fill="#FFF3E3"/>
<path d="M427.57 101.56C425.307 101.562 423.094 100.893 421.212 99.6371C419.329 98.3812 417.861 96.5952 416.994 94.505C416.126 92.4148 415.898 90.1143 416.339 87.8945C416.779 85.6747 417.868 83.6353 419.467 82.0344C421.067 80.4335 423.105 79.343 425.325 78.9007C427.544 78.4585 429.845 78.6845 431.936 79.55C434.027 80.4156 435.814 81.8819 437.071 83.7634C438.329 85.6449 439 87.8571 439 90.1202C438.997 93.1517 437.793 96.0585 435.65 98.203C433.507 100.348 430.602 101.555 427.57 101.56Z" fill="#00CCC1"/>
<path d="M419.81 158C419.746 157.984 419.678 157.986 419.615 158.006C419.552 158.025 419.495 158.061 419.45 158.11C418.181 159.644 417.262 161.436 416.757 163.362C416.253 165.288 416.175 167.301 416.53 169.26C416.543 169.335 416.58 169.404 416.636 169.456C416.692 169.508 416.763 169.541 416.839 169.549C416.914 169.556 416.991 169.539 417.056 169.5C417.121 169.46 417.172 169.401 417.2 169.33C417.425 168.79 417.692 168.268 418 167.77C418.395 167.144 418.858 166.564 419.38 166.04C419.433 165.987 419.503 165.952 419.577 165.941C419.652 165.93 419.728 165.944 419.795 165.98C419.861 166.016 419.914 166.072 419.945 166.141C419.977 166.209 419.986 166.286 419.97 166.36C419.56 168.28 419.652 170.274 420.237 172.148C420.822 174.022 421.88 175.714 423.31 177.06C425.187 178.669 427.55 179.599 430.02 179.7C430.078 179.703 430.137 179.69 430.189 179.665C430.242 179.639 430.287 179.6 430.321 179.553C430.355 179.505 430.376 179.449 430.383 179.391C430.39 179.333 430.382 179.274 430.36 179.22C430.039 178.424 429.899 177.567 429.95 176.71C430.115 175.344 430.666 174.053 431.54 172.99C432.801 170.993 433.451 168.671 433.41 166.31C433.408 166.231 433.433 166.154 433.481 166.091C433.529 166.028 433.596 165.983 433.673 165.963C433.749 165.944 433.83 165.95 433.902 165.982C433.974 166.015 434.033 166.07 434.07 166.14C434.365 166.71 434.586 167.315 434.73 167.94C434.896 168.698 434.94 169.478 434.86 170.25C434.854 170.318 434.868 170.385 434.9 170.445C434.931 170.505 434.98 170.554 435.039 170.587C435.098 170.62 435.166 170.635 435.234 170.63C435.301 170.625 435.366 170.601 435.42 170.56C436.381 169.845 437.178 168.934 437.761 167.888C438.344 166.841 438.698 165.683 438.8 164.49C438.86 163.291 438.668 162.093 438.235 160.973C437.803 159.854 437.14 158.837 436.29 157.99C436.247 157.948 436.194 157.918 436.136 157.904C436.078 157.89 436.017 157.892 435.96 157.91C430.68 159.369 425.106 159.4 419.81 158Z" fill="#FFB833"/>
<path d="M234.76 218.38H234.08C233.484 218.38 233 218.864 233 219.46V234.35C233 234.947 233.484 235.43 234.08 235.43H234.76C235.356 235.43 235.84 234.947 235.84 234.35V219.46C235.84 218.864 235.356 218.38 234.76 218.38Z" fill="#FFB833"/>
<path d="M225.9 226.56V227.24C225.9 227.837 226.384 228.32 226.98 228.32H241.87C242.466 228.32 242.95 227.837 242.95 227.24V226.56C242.95 225.964 242.466 225.48 241.87 225.48H226.98C226.384 225.48 225.9 225.964 225.9 226.56Z" fill="#FFB833"/>
<path d="M387.07 212.44H386.39C385.794 212.44 385.31 212.924 385.31 213.52V228.41C385.31 229.007 385.794 229.49 386.39 229.49H387.07C387.666 229.49 388.15 229.007 388.15 228.41V213.52C388.15 212.924 387.666 212.44 387.07 212.44Z" fill="#FFB833"/>
<path d="M378.2 220.63V221.31C378.2 221.907 378.684 222.39 379.28 222.39H394.17C394.766 222.39 395.25 221.907 395.25 221.31V220.63C395.25 220.034 394.766 219.55 394.17 219.55H379.28C378.684 219.55 378.2 220.034 378.2 220.63Z" fill="#FFB833"/>
<path d="M198.34 105.81H197.02C196.424 105.81 195.94 106.294 195.94 106.89V125.63C195.94 126.227 196.424 126.71 197.02 126.71H198.34C198.936 126.71 199.42 126.227 199.42 125.63V106.89C199.42 106.294 198.936 105.81 198.34 105.81Z" fill="#FFB833"/>
<path d="M187.23 115.6V116.92C187.23 117.516 187.714 118 188.31 118H207.05C207.646 118 208.13 117.516 208.13 116.92V115.6C208.13 115.004 207.646 114.52 207.05 114.52H188.31C187.714 114.52 187.23 115.004 187.23 115.6Z" fill="#FFB833"/>
<path d="M303.16 207.17C340.285 207.17 370.38 177.075 370.38 139.95C370.38 102.825 340.285 72.73 303.16 72.73C266.035 72.73 235.94 102.825 235.94 139.95C235.94 177.075 266.035 207.17 303.16 207.17Z" fill="#D89071"/>
<path d="M283.78 201.85C286.2 224.47 280.48 235.28 274.86 240.98C264.33 251.65 249.57 248.98 238.61 263.28C235.22 267.71 232.87 272.88 230.99 281.41C223.6 314.98 233.38 355.11 236.94 376.57C240.24 396.43 241.7 425.13 232.48 462.07C248.414 470.003 265.441 475.517 283 478.43C332.84 486.62 373.26 471.24 391.55 462.82C385.827 432.902 382.592 402.562 381.88 372.11C380.51 310.27 390.29 269.46 367.94 254.11C354.94 245.11 341.45 252.04 329.47 239.61C318.56 228.31 318.27 210.61 319.99 196.68C320 196.65 292.25 190.33 283.78 201.85Z" fill="#D89071"/>
<path d="M257.14 251.35C247.78 254.61 234.82 260.75 224.67 273.04C218.33 280.73 218.88 283.81 210.73 300.92C207.24 308.25 205.18 311.81 177.83 356.68L203.49 380.68C209.86 377.39 250.44 355.68 260.92 308.75C266.66 283.05 260.75 261.58 257.14 251.35Z" fill="#FFF3E3"/>
<path d="M347.38 248.18C359.44 247.69 377.73 249.13 388.44 261.08C391.27 264.24 393.58 268.14 396.64 273.32C401.451 281.422 405.495 289.956 408.72 298.81C412.49 308.99 421.41 324.59 443.8 348.57L420.05 374.43C408.9 368.58 374.81 348.86 357.3 307.08C349.565 288.454 346.173 268.312 347.38 248.18Z" fill="#FFF3E3"/>
<path d="M440 263C441.75 273.86 456.92 370.11 439.87 376.84C436.011 378.213 431.897 378.719 427.82 378.32C421.231 377.161 415.197 373.89 410.63 369C404.24 362.06 403.74 352.8 406.53 320.24C407.53 308.51 408.3 299.47 408.83 294.94C410.38 281.66 412.17 270.64 413.58 262.78C422.312 264.336 431.243 264.41 440 263Z" fill="#FFF3E3"/>
<path d="M235.89 133.8C235.74 138.91 234.95 186.35 268.02 209.24C272.4 212.24 284.49 220.63 301.79 220.87C320.4 221.14 333.5 211.87 338.34 208.42C369.87 186.07 370.34 143.42 370.34 137.79C342.71 110.31 305.59 98.6201 273.42 108.79L235.89 133.8Z" fill="#D89071"/>
<path d="M278.21 230.8C277.264 231.296 276.392 231.922 275.62 232.66C273.11 235.2 272.98 238.5 268.62 243.21C259.96 252.48 251.44 249.38 239.06 257.78C238.54 258.13 229.78 263.96 224.7 273.04C216.7 287.32 222.3 301.69 226.25 324.31C226.87 327.82 227.97 344.19 230.19 376.93C232.032 405.311 231.41 433.797 228.33 462.07C228.33 462.07 302.21 511.14 398.68 462.07C386.76 385.83 386 341.17 389 313C389.87 304.7 394.46 265.61 377 254.53C374.892 253.296 372.688 252.233 370.41 251.35C362.26 247.95 340.36 244.13 335.68 242.56C327.98 239.97 331.79 234 325.68 230.8C320.03 227.86 314.07 233.39 299.48 231.64C291.22 230.66 284.22 227.25 278.21 230.8Z" fill="#FFF3E3"/>
<path d="M146.45 245.41C146.45 245.41 141.38 239.1 148.38 236.92C148.38 236.92 145.13 230.92 150.7 230.29C150.7 230.29 146.94 225.02 152.57 224.09C152.57 224.09 150.63 218.5 154.95 218.48C159.27 218.46 168.46 221 169.27 223.66C170.08 226.32 160.46 226.16 160.46 226.16C160.46 226.16 166.75 227.71 167.91 230.26C169.07 232.81 165.67 233.98 156.64 231.64C156.64 231.64 165.23 234.69 165.03 238.41C164.83 242.13 157.74 240.32 152.8 238.02C152.8 238.02 161.69 243.63 161.38 246.68C161.07 249.73 156.34 250.52 146.45 245.41Z" fill="#D89071"/>
<path d="M187.75 269.52C187.75 269.52 184.17 253.4 183.99 242.82C183.81 232.24 181.59 226.7 176.25 224.01C170.91 221.32 162.66 216.48 161.41 219.17C160.16 221.86 166.61 229.17 170.55 232.25C174.49 235.33 166.61 258.06 170.37 272.25L187.75 269.52Z" fill="#D89071"/>
<path d="M159.59 275.13C159.069 289.197 159.644 303.283 161.31 317.26C164.37 342.88 168.75 379.49 187.21 384.79C187.77 384.95 194.74 386.86 200.16 383.56C220.79 371.02 197.16 296.27 187.73 268.48L159.59 275.13Z" fill="#FFF3E3"/>
<path d="M261.75 144.52C265.347 141.714 269.723 140.087 274.28 139.86C277.36 139.66 281.54 139.39 282.92 141.75C283.232 142.264 283.401 142.852 283.41 143.453C283.418 144.055 283.267 144.647 282.97 145.17C281.61 147.17 277.9 145.56 271.97 145.74C264.23 145.98 259.31 149.12 258.76 148.03C258.4 147.24 260.81 145.29 261.75 144.52Z" fill="#383333"/>
<path d="M343.17 143.53C339.324 141.081 334.815 139.88 330.26 140.09C327.17 140.18 322.99 140.32 321.84 142.8C321.58 143.342 321.467 143.943 321.515 144.542C321.562 145.141 321.768 145.716 322.11 146.21C323.67 148.06 327.21 146.11 333.11 145.73C340.84 145.23 346.04 147.88 346.48 146.73C346.78 145.92 344.19 144.21 343.17 143.53Z" fill="#383333"/>
<path d="M304.34 155.45C304.34 155.45 298.66 167.86 299.61 170.27C300.56 172.68 310.33 172.08 310.33 172.08" stroke="#383333" stroke-linecap="round" stroke-linejoin="round"/>
<path d="M308.06 193.21C308.06 193.21 303.37 195.08 299.5 193.32" stroke="#383333" stroke-width="0.75" stroke-linecap="round" stroke-linejoin="round"/>
<path d="M262.3 179.54C267.044 179.52 270.88 177.109 270.867 174.154C270.855 171.199 266.999 168.82 262.255 168.84C257.511 168.86 253.675 171.271 253.687 174.226C253.7 177.181 257.556 179.56 262.3 179.54Z" fill="#D17352"/>
<path d="M342.779 179.543C347.523 179.523 351.359 177.112 351.347 174.157C351.334 171.202 347.478 168.823 342.734 168.843C337.99 168.863 334.154 171.274 334.167 174.229C334.179 177.184 338.035 179.563 342.779 179.543Z" fill="#D17352"/>
<path fill-rule="evenodd" clip-rule="evenodd" d="M332.28 164.39C331.401 165.241 330.29 165.811 329.087 166.03C327.884 166.249 326.643 166.106 325.522 165.619C324.4 165.133 323.448 164.324 322.786 163.296C322.124 162.268 321.781 161.066 321.802 159.844C321.823 158.621 322.207 157.432 322.904 156.428C323.601 155.423 324.58 154.647 325.718 154.2C326.856 153.752 328.101 153.651 329.296 153.911C330.49 154.171 331.581 154.78 332.43 155.66C333.561 156.841 334.18 158.421 334.152 160.056C334.124 161.691 333.451 163.249 332.28 164.39Z" fill="#383333"/>
<path fill-rule="evenodd" clip-rule="evenodd" d="M279.23 164.63C278.303 165.427 277.161 165.932 275.947 166.079C274.733 166.227 273.503 166.012 272.412 165.46C271.321 164.908 270.418 164.046 269.817 162.981C269.217 161.916 268.945 160.697 269.038 159.478C269.13 158.259 269.582 157.094 270.336 156.132C271.091 155.17 272.113 154.453 273.275 154.072C274.437 153.691 275.685 153.664 276.863 153.993C278.04 154.321 279.094 154.992 279.89 155.92C280.954 157.164 281.482 158.779 281.358 160.411C281.235 162.044 280.469 163.561 279.23 164.63Z" fill="#383333"/>
<path d="M290.6 182C291.17 182.75 295.98 188.9 304.3 189C313.73 189.12 318.92 181.35 319.23 180.86" stroke="#383333" stroke-linecap="round" stroke-linejoin="round"/>
<path d="M284.12 217.69C284.12 217.69 304.07 225.06 319.82 217.69" stroke="#383333" stroke-linecap="round" stroke-linejoin="round"/>
<path d="M258.75 102.28C258.75 102.28 260.4 122.69 247.37 131.78C234.34 140.87 247.46 165.22 242.13 170.14C236.8 175.06 230.65 146.54 230.4 120.23C230.15 93.9202 247.12 74.9902 266.06 76.2302C266.06 76.2302 329.42 49.6802 355.77 79.6802C382.12 109.68 368.58 171.35 364.71 171.49C360.84 171.63 364.65 143.11 360.71 137.21C356.77 131.31 341.45 130.8 334 116.78C326.55 102.76 293.25 89.7402 258.75 102.28Z" fill="#383333"/>
<path d="M269 88.1001C269 88.1001 327.83 78.2602 337.34 96.2902C346.85 114.32 344.1 123.83 363.67 123.18" stroke="white" stroke-linecap="round" stroke-linejoin="round"/>
<path d="M344.74 95.6401C344.74 95.6401 349.74 115.92 364.9 113.71" stroke="white" stroke-linecap="round" stroke-linejoin="round"/>
<path d="M250.89 103.34C250.89 103.34 250.68 128.44 237.06 133.02" stroke="white" stroke-linecap="round" stroke-linejoin="round"/>
<path d="M241.14 98.9202C241.14 98.9202 239.83 118.42 234.42 124.49" stroke="white" stroke-linecap="round" stroke-linejoin="round"/>
<path d="M388.89 276.87C388.89 276.87 384.03 325.45 388.89 347.75" stroke="#383333" stroke-linecap="round" stroke-linejoin="round"/>
<path d="M226.23 287.45C226.23 287.45 233.59 331.89 230.4 361.29" stroke="#383333" stroke-linecap="round" stroke-linejoin="round"/>
<path d="M202.21 316C202.21 316 214.12 352.63 210.48 365.42" stroke="#383333" stroke-linecap="round" stroke-linejoin="round"/>
<path d="M408.72 298.81C408.72 298.81 403.72 338.81 414.81 354.81" stroke="#383333" stroke-linecap="round" stroke-linejoin="round"/>
<path d="M148.38 236.92C150.72 237.195 152.99 237.893 155.08 238.98" stroke="#383333" stroke-width="0.75" stroke-linecap="round" stroke-linejoin="round"/>
<path d="M150.7 230.29C150.7 230.29 156.45 230.87 158.33 232.05" stroke="#383333" stroke-width="0.75" stroke-linecap="round" stroke-linejoin="round"/>
<path d="M152.57 224.09C155.236 224.634 157.87 225.325 160.46 226.16" stroke="#383333" stroke-width="0.75" stroke-linecap="round" stroke-linejoin="round"/>
<path d="M161.31 219.44C161.31 219.44 160.66 222.6 164.36 226" stroke="#383333" stroke-width="0.75" stroke-linecap="round" stroke-linejoin="round"/>
</svg>
