<svg width="100" height="101" viewBox="0 0 100 101" fill="none" xmlns="http://www.w3.org/2000/svg">
<g id="transmision">
<g id="Group">
<path id="Vector" d="M75 75.1079C88.8071 61.2809 88.8071 38.8629 75 25.036C61.1929 11.209 38.8071 11.209 25 25.036C11.1929 38.8629 11.1929 61.2809 25 75.1079C38.8071 88.9349 61.1929 88.9349 75 75.1079Z" fill="#CFCB88"/>
<g id="Group_2">
<path id="Vector_2" fill-rule="evenodd" clip-rule="evenodd" d="M22.6039 27.9906L22.5098 27.8114C22.5903 27.712 22.6697 27.6117 22.7512 27.5132L22.6039 27.9906Z" fill="#D8D277"/>
<path id="Vector_3" fill-rule="evenodd" clip-rule="evenodd" d="M14.6494 50.1827L15.4354 51.5629L14.8349 53.7276C14.7153 52.562 14.653 51.3792 14.6494 50.1827Z" fill="#E4E0A2"/>
<path id="Vector_4" fill-rule="evenodd" clip-rule="evenodd" d="M15.4348 51.5629L14.6488 50.1827C14.6487 50.1457 14.6475 50.1089 14.6475 50.0719C14.6475 49.5152 14.6619 48.9619 14.6873 48.4114L15.4348 51.5629Z" fill="#E3DD99"/>
<path id="Vector_5" fill-rule="evenodd" clip-rule="evenodd" d="M26.2295 76.2821L34.5213 74.7421L33.5647 81.4275C30.9012 80.0237 28.4373 78.292 26.2295 76.2821Z" fill="#EDEABE"/>
<path id="Vector_6" fill-rule="evenodd" clip-rule="evenodd" d="M22.9199 72.8306L29.0045 48.9431L34.5226 74.742L26.2308 76.282C25.0511 75.2081 23.9458 74.0539 22.9199 72.8306Z" fill="#EBE7B7"/>
<path id="Vector_7" fill-rule="evenodd" clip-rule="evenodd" d="M29.0046 48.9431L15.6768 41.5691C15.8837 40.7284 16.1207 39.8994 16.3863 39.0835L29.7772 36.11L29.0046 48.9431Z" fill="#E4E0A1"/>
<path id="Vector_8" fill-rule="evenodd" clip-rule="evenodd" d="M22.5095 27.8114L22.6036 27.9906L22.333 28.0304C22.3915 27.957 22.4505 27.8841 22.5095 27.8114Z" fill="#D9D37A"/>
<path id="Vector_9" fill-rule="evenodd" clip-rule="evenodd" d="M22.3328 28.0304L22.603 27.9906L20.6289 30.3598C21.1655 29.5593 21.7344 28.7827 22.3328 28.0304Z" fill="#DDD889"/>
<path id="Vector_10" fill-rule="evenodd" clip-rule="evenodd" d="M20.6296 30.3598L22.6037 27.9906L29.7768 36.11L16.3857 39.0835C17.4024 35.9629 18.8381 33.0321 20.6296 30.3598Z" fill="#E0DB93"/>
<path id="Vector_11" fill-rule="evenodd" clip-rule="evenodd" d="M15.4339 51.5629L14.6875 48.4114C14.7958 46.0635 15.1332 43.7758 15.6763 41.5691L29.0041 48.9431L15.4339 51.5629Z" fill="#E4E0A2"/>
<path id="Vector_12" fill-rule="evenodd" clip-rule="evenodd" d="M15.7539 58.8936L29.004 48.9431L22.9194 72.8306C19.572 68.8389 17.0864 64.098 15.7539 58.8936Z" fill="#EAE5B4"/>
<path id="Vector_13" fill-rule="evenodd" clip-rule="evenodd" d="M14.834 53.7276L15.4336 51.5629L29.0038 48.9431L15.7537 58.8936C15.3244 57.2164 15.0146 55.4912 14.834 53.7276Z" fill="#E8E4AC"/>
<path id="Vector_14" fill-rule="evenodd" clip-rule="evenodd" d="M43.347 63.2172L29.0039 48.9431L38.4915 46.1929L43.347 63.2172Z" fill="#EBE7B6"/>
<path id="Vector_15" fill-rule="evenodd" clip-rule="evenodd" d="M38.4911 46.193L29.7764 36.11L35.8459 25.6333L38.4911 46.193Z" fill="#E4DF9E"/>
<path id="Vector_16" fill-rule="evenodd" clip-rule="evenodd" d="M29.0039 48.9431L29.7767 36.11L38.4915 46.193L29.0039 48.9431Z" fill="#E7E3AB"/>
<path id="Vector_17" fill-rule="evenodd" clip-rule="evenodd" d="M63.4292 41.6099L56.3682 28.9074L68.5566 19.9198C69.0655 20.2343 69.5655 20.5616 70.0568 20.9009L63.4292 41.6099Z" fill="#E0DB91"/>
<path id="Vector_18" fill-rule="evenodd" clip-rule="evenodd" d="M22.6035 27.9906L22.7504 27.5132C24.5277 25.3619 26.5543 23.4251 28.7855 21.7459L35.8462 25.6333L22.6035 27.9906Z" fill="#DBD580"/>
<path id="Vector_19" fill-rule="evenodd" clip-rule="evenodd" d="M29.7765 36.11L22.6035 27.9906L35.846 25.6333L29.7765 36.11Z" fill="#DFDA8E"/>
<path id="Vector_20" fill-rule="evenodd" clip-rule="evenodd" d="M35.8458 25.6333L28.7852 21.7458C30.9328 20.1295 33.271 18.7541 35.7586 17.6557L35.8458 25.6333Z" fill="#D9D37A"/>
<path id="Vector_21" fill-rule="evenodd" clip-rule="evenodd" d="M34.522 74.7421L29.0039 48.9431L43.347 63.2172L34.522 74.7421Z" fill="#ECE8BB"/>
<path id="Vector_22" fill-rule="evenodd" clip-rule="evenodd" d="M60.0095 59.8123L50.7412 53.5266L63.4293 41.6099L60.0095 59.8123Z" fill="#EAE6B5"/>
<path id="Vector_23" fill-rule="evenodd" clip-rule="evenodd" d="M33.5654 81.4273L34.522 74.742L40.9545 84.31C38.3631 83.624 35.8881 82.6515 33.5654 81.4273Z" fill="#EDEBC1"/>
<path id="Vector_24" fill-rule="evenodd" clip-rule="evenodd" d="M50.7412 53.5266L56.3682 28.9075L63.4293 41.6099L50.7412 53.5266Z" fill="#E5E2A6"/>
<path id="Vector_25" fill-rule="evenodd" clip-rule="evenodd" d="M35.8468 25.6333L35.7598 17.6557C36.9939 17.1108 38.2644 16.6334 39.5676 16.2304L51.1823 18.692L35.8468 25.6333Z" fill="#DAD37C"/>
<path id="Vector_26" fill-rule="evenodd" clip-rule="evenodd" d="M43.3467 63.2172L38.4912 46.1929L50.7406 53.5266L43.3467 63.2172Z" fill="#EBE7B7"/>
<path id="Vector_27" fill-rule="evenodd" clip-rule="evenodd" d="M52.2846 84.8242L34.5215 74.7422L43.3465 63.2173L52.2846 84.8242Z" fill="#EDEBC3"/>
<path id="Vector_28" fill-rule="evenodd" clip-rule="evenodd" d="M40.954 84.31L34.5215 74.742L52.2846 84.8242L51.0308 85.4678C50.6909 85.4775 50.3501 85.4836 50.0078 85.4836C46.878 85.4836 43.8439 85.0745 40.954 84.31Z" fill="#EFECC5"/>
<path id="Vector_29" fill-rule="evenodd" clip-rule="evenodd" d="M50.7406 53.5266L38.4912 46.193L56.3676 28.9075L50.7406 53.5266Z" fill="#E7E3AB"/>
<path id="Vector_30" fill-rule="evenodd" clip-rule="evenodd" d="M38.4909 46.193L35.8457 25.6333L56.3673 28.9075L38.4909 46.193Z" fill="#E3DD99"/>
<path id="Vector_31" fill-rule="evenodd" clip-rule="evenodd" d="M56.3673 28.9076L35.8457 25.6333L51.1812 18.692L56.3673 28.9076Z" fill="#DDD786"/>
<path id="Vector_32" fill-rule="evenodd" clip-rule="evenodd" d="M51.0312 85.4678L52.2851 84.8242L52.5631 85.3909C52.0553 85.4272 51.5447 85.4532 51.0312 85.4678Z" fill="#F1EFCE"/>
<path id="Vector_33" fill-rule="evenodd" clip-rule="evenodd" d="M52.2849 84.8242L43.3467 63.2173L59.0157 80.8956L52.2849 84.8242Z" fill="#EFECC8"/>
<path id="Vector_34" fill-rule="evenodd" clip-rule="evenodd" d="M59.0157 80.8956L43.3467 63.2173L60.0088 59.8123L59.0157 80.8956Z" fill="#EDEBC3"/>
<path id="Vector_35" fill-rule="evenodd" clip-rule="evenodd" d="M52.5631 85.3909L52.2852 84.8242L59.016 80.8956L58.6062 84.4273C56.6511 84.9163 54.6319 85.2429 52.5631 85.3909Z" fill="#F2EFD1"/>
<path id="Vector_36" fill-rule="evenodd" clip-rule="evenodd" d="M43.3467 63.2173L50.7405 53.5266L60.0088 59.8123L43.3467 63.2173Z" fill="#ECE8BB"/>
<path id="Vector_37" fill-rule="evenodd" clip-rule="evenodd" d="M56.3677 28.9075L51.1816 18.692L65.6525 18.3086C66.6477 18.8012 67.6166 19.3389 68.5563 19.9199L56.3677 28.9075Z" fill="#DBD581"/>
<path id="Vector_38" fill-rule="evenodd" clip-rule="evenodd" d="M59.0166 80.8956L60.0097 59.8123L70.3804 66.6223L59.0166 80.8956Z" fill="#EFECC5"/>
<path id="Vector_39" fill-rule="evenodd" clip-rule="evenodd" d="M51.1811 18.6921L39.5664 16.2304C40.0322 16.0865 40.5025 15.9529 40.9763 15.8278L64.233 17.6453C64.7115 17.8562 65.1847 18.0773 65.652 18.3085L51.1811 18.6921Z" fill="#D8D277"/>
<path id="Vector_40" fill-rule="evenodd" clip-rule="evenodd" d="M75.2338 74.8835L70.3789 66.6223L77.5507 58.7658L78.5818 70.9317C77.5621 72.33 76.4428 73.6509 75.2338 74.8835Z" fill="#EEECC5"/>
<path id="Vector_41" fill-rule="evenodd" clip-rule="evenodd" d="M70.3794 66.6223L60.0088 59.8123L77.5512 58.7658L70.3794 66.6223Z" fill="#ECE9BD"/>
<path id="Vector_42" fill-rule="evenodd" clip-rule="evenodd" d="M77.5513 58.7658L63.4287 41.6099L78.5211 29.128C79.0933 29.9079 79.6345 30.7116 80.1426 31.5382L77.5513 58.7658Z" fill="#E5E0A4"/>
<path id="Vector_43" fill-rule="evenodd" clip-rule="evenodd" d="M63.4287 41.6099L70.0563 20.9009C73.3158 23.1518 76.1787 25.9362 78.5211 29.128L63.4287 41.6099Z" fill="#DFDA8E"/>
<path id="Vector_44" fill-rule="evenodd" clip-rule="evenodd" d="M66.5474 81.3767L59.0166 80.8954L70.3804 66.6222L75.2353 74.8833C72.6998 77.4681 69.7719 79.6649 66.5474 81.3767Z" fill="#F1EFCE"/>
<path id="Vector_45" fill-rule="evenodd" clip-rule="evenodd" d="M60.0088 59.8123L63.4286 41.6099L77.5512 58.7658L60.0088 59.8123Z" fill="#EAE5B4"/>
<path id="Vector_46" fill-rule="evenodd" clip-rule="evenodd" d="M58.6064 84.4271L59.0162 80.8954L66.547 81.3767C64.0611 82.6965 61.3999 83.7283 58.6064 84.4271Z" fill="#F3F2D6"/>
<path id="Vector_47" fill-rule="evenodd" clip-rule="evenodd" d="M55.3936 15.0686L43.3916 15.2821C45.5352 14.8756 47.7463 14.6605 50.0079 14.6605C51.8389 14.6605 53.6374 14.7997 55.3936 15.0686Z" fill="#D5CE6E"/>
<path id="Vector_48" fill-rule="evenodd" clip-rule="evenodd" d="M64.2333 17.6454L40.9766 15.8278C41.7709 15.6183 42.5764 15.4366 43.3915 15.2819L55.3935 15.0684C58.4907 15.5432 61.4552 16.4214 64.2333 17.6454Z" fill="#D8D277"/>
<path id="Vector_49" fill-rule="evenodd" clip-rule="evenodd" d="M77.5508 58.7659L80.142 31.5382C83.3826 36.8112 85.2807 42.9989 85.3627 49.6253L77.5508 58.7659Z" fill="#E4DF9F"/>
<path id="Vector_50" fill-rule="evenodd" clip-rule="evenodd" d="M77.5508 58.7658L85.3627 49.6252C85.3645 49.7742 85.3684 49.9227 85.3684 50.072C85.3684 52.4694 85.1292 54.8107 84.6756 57.0745L77.5508 58.7658Z" fill="#E5E1A5"/>
<path id="Vector_51" fill-rule="evenodd" clip-rule="evenodd" d="M78.582 70.9317L77.5508 58.7658L82.7679 63.4185C81.6757 66.1029 80.2653 68.6231 78.582 70.9317Z" fill="#EDEBC1"/>
<path id="Vector_52" fill-rule="evenodd" clip-rule="evenodd" d="M82.7679 63.4186L77.5508 58.7658L84.6756 57.0744C84.2354 59.2693 83.5926 61.3906 82.7679 63.4186Z" fill="#EAE6B5"/>
</g>
<path id="Vector_53" d="M50.0075 13.5551C60.0768 13.5551 69.1928 17.6424 75.7917 24.2508C82.3906 30.8591 86.4721 39.9884 86.4721 50.0722C86.4721 60.156 82.3906 69.2852 75.7917 75.8934C69.1928 82.5018 60.0768 86.5892 50.0075 86.5892C39.9381 86.5892 30.8221 82.5018 24.2232 75.8934C17.6245 69.285 13.543 60.1557 13.543 50.072C13.543 39.9884 17.6245 30.8591 24.2232 24.2507C30.8221 17.6423 39.9381 13.5551 50.0075 13.5551ZM74.2291 25.8155C68.0303 19.6078 59.4667 15.7683 50.0075 15.7683C40.5483 15.7683 31.9846 19.6078 25.7858 25.8155C19.587 32.0233 15.753 40.5992 15.753 50.072C15.753 59.5449 19.5871 68.1208 25.7858 74.3286C31.9846 80.5362 40.5483 84.3758 50.0075 84.3758C59.4667 84.3758 68.0303 80.5363 74.2291 74.3286C80.428 68.1208 84.2619 59.5449 84.2619 50.072C84.2619 40.5992 80.428 32.0231 74.2291 25.8155Z" fill="#7D7942"/>
</g>
<g id="Group_3">
<g id="Group_4">
<path id="Vector_54" fill-rule="evenodd" clip-rule="evenodd" d="M55.9889 68.9022C57.5492 68.9022 58.8189 67.6309 58.8189 66.0683V45.7008C58.8189 44.944 58.5246 44.2322 57.99 43.6968C57.4556 43.1616 56.7449 42.8669 55.989 42.8669C54.4287 42.8669 53.1592 44.1382 53.1592 45.7008V66.0683C53.1592 66.8251 53.4535 67.5367 53.988 68.0723C54.5222 68.6075 55.2328 68.9022 55.9889 68.9022ZM55.9889 44.3191C56.4194 44.3191 56.8242 44.4871 57.1287 44.7919C57.4331 45.0968 57.6008 45.502 57.6008 45.9332C57.6008 46.3645 57.4331 46.7699 57.1284 47.0745C56.8242 47.3792 56.4194 47.547 55.9889 47.547C55.5586 47.547 55.1539 47.379 54.8495 47.0742C54.5451 46.7698 54.3774 46.3645 54.3774 45.9332C54.3774 45.0432 55.1002 44.3191 55.9889 44.3191ZM55.9889 49.3125C56.4194 49.3125 56.8242 49.4805 57.1287 49.7853C57.4331 50.0902 57.6008 50.4955 57.6008 50.9263C57.6008 51.3573 57.4331 51.7627 57.1287 52.0676C56.8242 52.3724 56.4196 52.5404 55.989 52.5404C55.5588 52.5404 55.1541 52.3724 54.8497 52.0676C54.5453 51.7627 54.3775 51.3573 54.3775 50.9263C54.3774 50.0366 55.1002 49.3125 55.9889 49.3125ZM55.9889 54.3061C56.4194 54.3061 56.8242 54.4741 57.1287 54.7789C57.4331 55.0838 57.6008 55.489 57.6008 55.9199C57.6008 56.351 57.4331 56.7563 57.1287 57.0613C56.8242 57.3662 56.4196 57.5341 55.989 57.5341C55.5588 57.5341 55.1541 57.3662 54.8497 57.0613C54.5453 56.7565 54.3775 56.3512 54.3775 55.92C54.3774 55.0299 55.1002 54.3061 55.9889 54.3061ZM55.9889 59.2994C56.4194 59.2994 56.8241 59.4673 57.1285 59.7722C57.4329 60.077 57.6006 60.4823 57.6006 60.9132C57.6006 61.344 57.4329 61.7493 57.1285 62.0543C56.8241 62.3591 56.4194 62.5271 55.9889 62.5271C55.5586 62.5271 55.1539 62.3591 54.8495 62.0543C54.5451 61.7494 54.3774 61.3442 54.3774 60.9133C54.3774 60.0233 55.1002 59.2994 55.9889 59.2994ZM55.9889 64.2926C56.4194 64.2926 56.8241 64.4606 57.1285 64.7655C57.4329 65.0703 57.6006 65.4757 57.6006 65.9067C57.6006 66.3376 57.4329 66.7429 57.1285 67.0477C56.8241 67.3525 56.4193 67.5205 55.9889 67.5205C55.5586 67.5205 55.1539 67.3525 54.8495 67.0477C54.545 66.7429 54.3774 66.3376 54.3774 65.9066C54.3774 65.0167 55.1002 64.2926 55.9889 64.2926Z" fill="#7D7942"/>
<path id="Vector_55" fill-rule="evenodd" clip-rule="evenodd" d="M49.3463 41.9251C49.9704 41.9251 50.4782 42.4337 50.4782 43.0588V68.7104C50.4782 69.3355 49.9704 69.844 49.3463 69.844H41.3882C40.764 69.844 40.2562 69.3355 40.2562 68.7104V43.0588C40.2562 42.4338 40.764 41.9251 41.3882 41.9251H43.31V40.2727H39.6355C39.0682 40.2727 38.6064 40.7351 38.6064 41.3036V70.4651C38.6064 71.0336 39.0682 71.496 39.6355 71.496H60.3805C60.948 71.496 61.4096 71.0336 61.4096 70.4651V41.3037C61.4096 40.7354 60.9479 40.2728 60.3805 40.2728H47.4244V41.9253L49.3463 41.9251ZM52.2193 45.7008C52.2193 43.619 53.9107 41.9251 55.9896 41.9251C56.9967 41.9251 57.9435 42.3179 58.6556 43.0309C59.3676 43.7444 59.7598 44.6926 59.7598 45.7007V66.0682C59.7598 68.15 58.0686 69.8438 55.9896 69.8438C54.9825 69.8438 54.0357 69.4512 53.3236 68.738C52.6115 68.0244 52.2193 67.0763 52.2193 66.0682V45.7008Z" fill="#7D7942"/>
<path id="Vector_56" fill-rule="evenodd" clip-rule="evenodd" d="M41.1963 43.0588V68.7104C41.1963 68.8162 41.2823 68.9024 41.3879 68.9024H49.346C49.4517 68.9024 49.5375 68.8162 49.5375 68.7104V43.0588C49.5375 42.953 49.4515 42.867 49.346 42.867H47.4242V55.4739C47.4242 56.6098 46.5013 57.5338 45.3672 57.5338C44.2328 57.5338 43.3099 56.6098 43.3099 55.4739V42.8669H41.3881C41.2823 42.8669 41.1963 42.9529 41.1963 43.0588Z" fill="#7D7942"/>
<path id="Vector_57" fill-rule="evenodd" clip-rule="evenodd" d="M44.251 55.4737C44.251 56.0904 44.7521 56.5921 45.368 56.5921C45.9838 56.5921 46.4846 56.0904 46.4846 55.4737V37.2325H44.251V55.4737Z" fill="#7D7942"/>
<path id="Vector_58" fill-rule="evenodd" clip-rule="evenodd" d="M43.6136 35.8015V36.2908H47.1204V35.8015C47.1204 35.0906 47.3968 34.4221 47.8988 33.9191C48.2883 33.529 48.7772 33.2749 49.3083 33.1804V30.3623C49.3083 29.4171 48.5404 28.6481 47.5966 28.6481H43.1366C42.1927 28.6481 41.4248 29.4171 41.4248 30.3623V33.1809C42.6678 33.4038 43.6136 34.494 43.6136 35.8015Z" fill="#7D7942"/>
<path id="Vector_59" fill-rule="evenodd" clip-rule="evenodd" d="M56.6528 45.9332C56.6528 45.5674 56.355 45.2691 55.9895 45.2691C55.6242 45.2691 55.3262 45.5674 55.3262 45.9332C55.3262 46.299 55.624 46.5975 55.9895 46.5975C56.355 46.5973 56.6528 46.299 56.6528 45.9332Z" fill="#7D7942"/>
<path id="Vector_60" fill-rule="evenodd" clip-rule="evenodd" d="M56.6528 50.9265C56.6528 50.5606 56.355 50.2623 55.9895 50.2623C55.6242 50.2623 55.3262 50.5606 55.3262 50.9265C55.3262 51.2923 55.624 51.5908 55.9895 51.5908C56.355 51.5908 56.6528 51.2923 56.6528 50.9265Z" fill="#7D7942"/>
<path id="Vector_61" fill-rule="evenodd" clip-rule="evenodd" d="M56.6528 55.9199C56.6528 55.5541 56.355 55.2556 55.9895 55.2556C55.6242 55.2556 55.3262 55.5539 55.3262 55.9199C55.3262 56.2858 55.624 56.5842 55.9895 56.5842C56.355 56.5842 56.6528 56.2858 56.6528 55.9199Z" fill="#7D7942"/>
<path id="Vector_62" fill-rule="evenodd" clip-rule="evenodd" d="M56.6528 60.9135C56.6528 60.5476 56.355 60.2492 55.9895 60.2492C55.6242 60.2492 55.3262 60.5476 55.3262 60.9135C55.3262 61.2793 55.624 61.5778 55.9895 61.5778C56.355 61.5776 56.6528 61.2793 56.6528 60.9135Z" fill="#7D7942"/>
<path id="Vector_63" fill-rule="evenodd" clip-rule="evenodd" d="M56.6528 65.9069C56.6528 65.541 56.355 65.2426 55.9895 65.2426C55.6242 65.2426 55.3262 65.5409 55.3262 65.9069C55.3262 66.2727 55.624 66.571 55.9895 66.571C56.355 66.571 56.6528 66.2727 56.6528 65.9069Z" fill="#7D7942"/>
</g>
</g>
</g>
</svg>
