<svg width="490" height="490" viewBox="0 0 490 490" fill="none" xmlns="http://www.w3.org/2000/svg">
<g clip-path="url(#clip0_559_7127)">
<rect x="75" y="-10" width="180" height="489" fill="#6248FF" fill-opacity="0.1"/>
<path d="M424.565 196.06C416.864 196.054 409.23 197.485 402.054 200.28C402.882 197.191 402.994 193.953 402.384 190.814C401.773 187.674 400.456 184.715 398.531 182.161C396.606 179.606 394.124 177.524 391.275 176.072C388.425 174.62 385.282 173.836 382.084 173.78C357.687 173.425 333.338 176.044 309.574 181.58C306.154 182.398 302.99 184.051 300.364 186.39C297.733 176.261 294.068 166.429 289.425 157.05C293.306 157.092 297.125 156.08 300.474 154.12C322.643 141.163 355.795 108.134 359.114 102.63C357.232 118.421 361.479 134.333 370.979 147.086C380.48 159.839 394.51 168.462 410.179 171.179C425.848 173.895 441.962 170.498 455.201 161.687C468.44 152.876 477.795 139.323 481.338 123.819C484.882 108.316 482.343 92.0446 474.246 78.3573C466.149 64.6699 453.111 54.6098 437.817 50.2498C422.524 45.8897 406.14 47.562 392.043 54.9221C377.946 62.2821 367.209 74.7691 362.044 89.81C361.707 86.2082 360.447 82.754 358.387 79.7807C356.326 76.8075 353.533 74.4155 350.279 72.8356C347.025 71.2556 343.418 70.541 339.807 70.7608C336.196 70.9805 332.703 72.1271 329.664 74.09C309.208 87.3912 290.455 103.145 273.824 121C271.749 123.259 270.186 125.94 269.244 128.86C258.035 118.153 244.237 111.55 229.044 113.47C213.134 115.56 199.554 126.83 190.494 145.36C161.569 162.841 130.608 176.705 98.3042 186.64C82.3041 191.564 66.0168 195.502 49.5342 198.43C41.1792 199.897 33.632 204.323 28.2742 210.9L11.1442 231.89C8.09871 235.632 5.86436 239.966 4.58289 244.618C3.30143 249.269 3.00083 254.136 3.70017 258.91L5.72917 272.74C6.53663 278.167 8.6117 283.328 11.7861 287.804C14.9606 292.279 19.145 295.944 24.0002 298.5C30.3902 301.83 38.9002 306.26 46.0402 309.89C50.1799 338.611 63.8101 365.122 84.7602 385.2C87.6282 387.946 91.2271 389.806 95.1256 390.558C99.0241 391.31 103.057 390.922 106.74 389.44C114.195 386.412 120.973 381.932 126.68 376.26C128.616 374.344 130.153 372.064 131.202 369.551C132.252 367.038 132.793 364.342 132.795 361.619C132.797 358.896 132.259 356.199 131.213 353.685C130.167 351.171 128.633 348.888 126.7 346.97C116.098 336.353 108.188 323.355 103.63 309.06C141.99 302.264 181.211 301.868 219.7 307.89C222.062 309.857 224.569 311.642 227.2 313.23C211.579 313.903 196.005 315.429 180.55 317.8C172.866 318.965 165.801 322.695 160.503 328.383C155.206 334.07 151.987 341.382 151.37 349.13C150.021 365.78 150.91 383.77 151.36 390.83L118.921 464.13L167.09 432.01C200.417 441.128 272.526 435.721 306.941 432.47C312.56 431.932 317.963 430.028 322.677 426.924C327.392 423.82 331.276 419.609 333.99 414.66C337.539 428.627 345.832 440.927 357.449 449.454C369.066 457.981 383.285 462.206 397.674 461.406C412.062 460.606 425.725 454.83 436.325 445.067C446.925 435.304 453.802 422.16 455.78 407.886C457.758 393.611 454.714 379.093 447.168 366.816C439.623 354.538 428.045 345.265 414.416 340.582C400.787 335.9 385.955 336.099 372.457 341.146C358.959 346.193 347.634 355.774 340.421 368.25C340.41 361.28 340.13 354.92 339.771 349.63C339.459 344.873 338.169 340.232 335.982 335.995C333.795 331.759 330.758 328.02 327.061 325.01C333.273 327.231 360.629 336.47 367.22 336.47C370.675 336.465 374.076 335.611 377.124 333.983C380.171 332.354 382.771 330.002 384.696 327.132C386.62 324.262 387.809 320.964 388.159 317.526C388.508 314.089 388.007 310.618 386.7 307.42C394.528 313.438 403.677 317.503 413.39 319.278C423.102 321.053 433.098 320.487 442.548 317.628C451.998 314.768 460.63 309.697 467.729 302.835C474.828 295.973 480.189 287.517 483.367 278.169C486.545 268.821 487.449 258.851 486.004 249.084C484.559 239.317 480.806 230.035 475.057 222.008C469.309 213.981 461.729 207.44 452.947 202.927C444.165 198.415 434.435 196.061 424.561 196.06H424.565ZM301.315 270.05C305.294 255.61 306.884 239.22 305.974 222.2C319.222 227.936 363.736 219.994 377.974 217.13C368.483 227.891 363.012 241.608 362.495 255.947C361.977 270.287 366.443 284.363 375.134 295.78C361 288.309 314.936 268.234 301.315 270.05Z" fill="white"/>
<path d="M348.219 85.908C349.654 87.647 350.4 89.8518 350.317 92.1045C350.234 94.3572 349.328 96.5012 347.769 98.13C337.161 109.198 313.506 132.794 294.498 143.906C292.61 145.009 290.404 145.438 288.24 145.123C286.077 144.809 284.084 143.769 282.588 142.174C280.916 140.396 279.98 138.051 279.968 135.611C279.957 133.17 280.871 130.816 282.526 129.023C298.481 111.895 316.472 96.7827 336.096 84.023C343.012 79.538 348.805 86.225 348.219 85.908Z" fill="#FFB020"/>
<path d="M390.893 193.943C391.114 196.187 390.504 198.433 389.178 200.257C387.853 202.08 385.905 203.354 383.702 203.837C368.725 207.108 335.931 213.5 313.956 212.122C302.8 211.422 301.642 195.64 312.319 193.092C335.116 187.772 358.478 185.261 381.884 185.614C384.146 185.657 386.313 186.529 387.974 188.064C389.634 189.6 390.673 191.692 390.893 193.943Z" fill="#FFB020"/>
<path d="M375.774 318.835C374.939 320.929 373.365 322.644 371.35 323.655C369.335 324.666 367.019 324.903 364.841 324.32C350.035 320.343 317.97 310.954 299.085 299.634C297.211 298.509 295.773 296.781 295.008 294.733C294.244 292.685 294.197 290.437 294.875 288.359C295.629 286.038 297.235 284.089 299.369 282.905C301.503 281.721 304.007 281.39 306.375 281.979C329.068 287.728 350.972 296.232 371.6 307.3C378.86 311.21 375.778 319.492 375.774 318.835Z" fill="#FFB020"/>
<path d="M471.054 109.98C471.053 119.924 468.104 129.644 462.579 137.912C457.054 146.179 449.202 152.623 440.015 156.428C430.828 160.233 420.719 161.228 410.967 159.288C401.214 157.347 392.256 152.559 385.225 145.527C378.194 138.496 373.406 129.537 371.466 119.785C369.526 110.032 370.522 99.9229 374.327 90.7362C378.133 81.5495 384.577 73.6974 392.845 68.1731C401.113 62.6487 410.833 59.7001 420.777 59.7001C434.108 59.713 446.889 65.0147 456.315 74.4413C465.741 83.8679 471.042 96.6492 471.054 109.98Z" fill="#00ABFE"/>
<path d="M460.206 141.138C455.504 147.097 449.512 151.913 442.682 155.224C435.851 158.536 428.359 160.256 420.768 160.256C413.177 160.256 405.685 158.536 398.854 155.224C392.024 151.913 386.032 147.097 381.33 141.138C386.032 135.179 392.024 130.363 398.854 127.052C405.685 123.74 413.177 122.02 420.768 122.02C428.359 122.02 435.851 123.74 442.682 127.052C449.512 130.363 455.504 135.179 460.206 141.138Z" fill="#FFB020"/>
<path d="M435.286 98.154C435.286 106.297 428.686 117.301 420.542 117.301C412.398 117.301 405.8 106.3 405.8 98.154C405.832 94.2645 407.4 90.5453 410.162 87.8063C412.923 85.0673 416.655 83.5304 420.545 83.5304C424.434 83.5304 428.166 85.0673 430.928 87.8063C433.69 90.5453 435.257 94.2645 435.289 98.154H435.286Z" fill="#FFB020"/>
<path d="M474.838 258.168C474.838 268.112 471.89 277.832 466.365 286.1C460.841 294.368 452.989 300.812 443.802 304.617C434.615 308.422 424.506 309.418 414.754 307.478C405.001 305.538 396.043 300.75 389.012 293.719C381.98 286.687 377.192 277.729 375.252 267.976C373.312 258.224 374.308 248.115 378.113 238.928C381.918 229.741 388.362 221.889 396.63 216.365C404.898 210.841 414.619 207.892 424.562 207.892C431.173 207.862 437.724 209.141 443.838 211.657C449.951 214.173 455.506 217.875 460.18 222.55C464.855 227.225 468.557 232.779 471.073 238.892C473.589 245.006 474.868 251.557 474.838 258.168Z" fill="#A369F7"/>
<path d="M463.99 289.326C459.288 295.285 453.297 300.101 446.466 303.412C439.635 306.724 432.143 308.444 424.552 308.444C416.961 308.444 409.469 306.724 402.638 303.412C395.808 300.101 389.816 295.285 385.114 289.326C389.816 283.367 395.808 278.551 402.638 275.24C409.469 271.928 416.961 270.208 424.552 270.208C432.143 270.208 439.635 271.928 446.466 275.24C453.297 278.551 459.288 283.367 463.99 289.326Z" fill="#00ABFE"/>
<path d="M439.071 246.343C439.071 254.486 432.471 265.49 424.326 265.49C416.181 265.49 409.581 254.49 409.581 246.343C409.581 242.432 411.135 238.682 413.9 235.917C416.665 233.152 420.415 231.598 424.326 231.598C428.237 231.598 431.987 233.152 434.752 235.917C437.518 238.682 439.071 242.432 439.071 246.343Z" fill="#00ABFE"/>
<path d="M444.447 399.324C444.447 409.268 441.498 418.988 435.974 427.256C430.45 435.524 422.598 441.968 413.411 445.773C404.224 449.578 394.115 450.574 384.363 448.634C374.61 446.694 365.652 441.906 358.621 434.874C351.589 427.843 346.801 418.885 344.861 409.132C342.921 399.38 343.917 389.271 347.722 380.084C351.527 370.897 357.971 363.045 366.239 357.521C374.507 351.997 384.227 349.048 394.171 349.048C400.782 349.018 407.333 350.299 413.446 352.815C419.559 355.331 425.113 359.033 429.788 363.707C434.462 368.382 438.164 373.936 440.68 380.049C443.196 386.162 444.477 392.713 444.447 399.324Z" fill="#FF605B"/>
<path d="M433.6 430.482C428.898 436.441 422.906 441.257 416.076 444.568C409.245 447.88 401.753 449.6 394.162 449.6C386.571 449.6 379.078 447.88 372.248 444.568C365.417 441.257 359.425 436.441 354.723 430.482C359.425 424.523 365.417 419.707 372.248 416.396C379.078 413.084 386.571 411.364 394.162 411.364C401.753 411.364 409.245 413.084 416.076 416.396C422.906 419.707 428.898 424.523 433.6 430.482Z" fill="#FFB020"/>
<path d="M408.68 387.5C408.68 395.643 402.08 406.647 393.935 406.647C385.79 406.647 379.191 395.647 379.191 387.5C379.175 385.553 379.545 383.623 380.279 381.82C381.012 380.017 382.096 378.377 383.467 376.995C384.838 375.613 386.468 374.516 388.265 373.768C390.062 373.019 391.989 372.634 393.936 372.634C395.882 372.634 397.81 373.019 399.607 373.768C401.403 374.516 403.034 375.613 404.405 376.995C405.776 378.377 406.859 380.017 407.593 381.82C408.327 383.623 408.696 385.553 408.68 387.5Z" fill="#FFB020"/>
<path d="M163.377 392.937C163.377 392.937 161.544 370.208 163.168 350.084C163.594 344.993 165.72 340.193 169.205 336.458C172.691 332.723 177.332 330.27 182.381 329.494C206.508 325.734 254.53 320.822 308.715 329.363C313.837 330.175 318.53 332.702 322.028 336.53C325.525 340.359 327.618 345.261 327.964 350.435C328.869 363.718 329.21 382.693 326.249 401.359C325.478 406.391 323.052 411.023 319.355 414.523C315.658 418.024 310.901 420.193 305.834 420.689C271.522 423.93 193.24 429.789 165.284 419L146.214 431.713L163.377 392.937Z" fill="#7AD001"/>
<path d="M197.375 363.97C196.712 363.98 196.072 363.727 195.596 363.265C195.12 362.804 194.847 362.172 194.836 361.509C194.826 360.846 195.079 360.206 195.541 359.73C196.002 359.254 196.634 358.98 197.297 358.97L297.097 355.792C297.76 355.771 298.405 356.014 298.888 356.468C299.372 356.922 299.656 357.549 299.677 358.213C299.698 358.876 299.455 359.52 299.001 360.004C298.547 360.487 297.919 360.771 297.256 360.792L197.456 363.97H197.375Z" fill="white"/>
<path d="M197.375 394.993C196.712 395.003 196.072 394.75 195.596 394.288C195.12 393.827 194.847 393.195 194.836 392.532C194.826 391.869 195.079 391.229 195.541 390.753C196.002 390.277 196.634 390.003 197.297 389.993L297.097 386.814C297.76 386.793 298.405 387.036 298.888 387.49C299.372 387.944 299.656 388.571 299.677 389.235C299.698 389.898 299.455 390.542 299.001 391.026C298.547 391.509 297.919 391.793 297.256 391.814L197.456 394.993H197.375Z" fill="white"/>
<path d="M87.6564 284.672C88.4485 311.291 99.4318 336.59 118.338 355.345C119.164 356.159 119.82 357.129 120.27 358.197C120.719 359.266 120.953 360.413 120.958 361.573C120.963 362.732 120.738 363.881 120.298 364.954C119.857 366.026 119.209 367.001 118.39 367.822C113.792 372.396 108.33 376.012 102.323 378.46C100.75 379.088 99.0295 379.251 97.3662 378.929C95.703 378.607 94.1674 377.814 92.9424 376.644C81.6049 365.721 72.5481 352.656 66.2969 338.207C60.0457 323.758 56.7244 308.212 56.5254 292.47C66.6704 290.51 76.5934 287.407 87.6564 284.672Z" fill="#00ABFE"/>
<path d="M246.27 300.958C189.141 287.896 129.703 288.823 73.0084 303.658C62.3274 306.458 57.1624 302.458 29.4874 288.004C26.2806 286.324 23.5169 283.91 21.422 280.958C19.3272 278.006 17.9607 274.599 17.4344 271.018L15.4004 257.19C14.9371 254.041 15.1347 250.831 15.9808 247.763C16.8268 244.694 18.3027 241.836 20.3144 239.37L37.4444 218.381C40.9953 214.024 45.9912 211.086 51.5244 210.1C68.5119 207.085 85.298 203.028 101.787 197.952C144.283 184.895 184.458 165.229 220.837 139.677L246.27 300.958Z" fill="#00ABFE"/>
<path d="M254.699 308.25C282.557 304.6 299.771 260.672 293.149 210.136C286.526 159.6 258.574 121.591 230.716 125.242C202.858 128.893 185.644 172.82 192.266 223.356C198.889 273.893 226.841 311.901 254.699 308.25Z" fill="#FF605B"/>
<path d="M254.5 297.8C240.106 299.7 225.476 286.185 215.331 264.29C209.274 250.792 205.268 236.465 203.446 221.783C202.242 212.713 201.827 203.556 202.206 194.415C203.596 162.104 215.606 137.493 233.206 135.196C255.512 132.264 278.37 166.304 284.264 211.196C290.138 256.106 276.817 294.891 254.5 297.8Z" fill="#C72F55"/>
<path d="M256.035 234.486L215.329 264.294C209.272 250.796 205.266 236.469 203.444 221.787C202.24 212.717 201.825 203.56 202.204 194.419C245.679 196.119 247.404 195.76 250.104 196.841C257.139 199.029 262.21 205.753 263.695 212.331C265.494 220.126 262.78 229.463 256.035 234.486Z" fill="#FFB020"/>
<path d="M259.681 230.946C259.505 231.202 259.309 231.444 259.095 231.67C256.332 233.922 246.402 223.661 245.156 209.255C244.256 198.961 247.796 197.027 250.09 196.838H250.106C257.141 199.026 262.212 205.75 263.697 212.328C264.398 215.538 264.402 218.861 263.71 222.073C263.017 225.285 261.643 228.31 259.681 230.946Z" fill="white"/>
<path d="M101.787 197.95C85.2979 203.027 68.5118 207.084 51.5242 210.1C45.9911 211.087 40.9955 214.026 37.4452 218.383L20.3152 239.37C18.3034 241.836 16.8273 244.694 15.9811 247.762C15.1349 250.83 14.937 254.041 15.4002 257.19L17.4332 271.022C17.9596 274.603 19.326 278.009 21.4209 280.962C23.5157 283.914 26.2795 286.328 29.4862 288.008C49.6262 298.528 56.3862 301.851 56.5482 301.936C61.6438 304.488 67.4931 305.101 73.0072 303.662C88.682 299.551 104.616 296.501 120.7 294.53C94.5522 261.3 97.0412 221.346 101.787 197.95Z" fill="#A369F7"/>
<path d="M55.4754 301.4C47.8684 297.576 37.2754 292.076 29.4874 288.007C26.2806 286.327 23.5169 283.913 21.422 280.961C19.3272 278.008 17.9607 274.602 17.4344 271.021L15.4004 257.19C14.9371 254.041 15.1347 250.831 15.9808 247.762C16.8268 244.694 18.3027 241.836 20.3144 239.37L37.4444 218.381C39.4571 215.907 41.9542 213.871 44.7824 212.398C38.6294 227.165 29.1224 262.375 55.4754 301.4Z" fill="#C72F55"/>
<path d="M60.9434 254.668C60.8859 254.344 60.8927 254.013 60.9635 253.692C61.0343 253.371 61.1677 253.067 61.356 252.797C61.5444 252.528 61.784 252.298 62.0612 252.122C62.3384 251.945 62.6477 251.825 62.9714 251.768L89.0004 247.179C89.6534 247.064 90.3254 247.213 90.8686 247.593C91.4118 247.973 91.7817 248.553 91.8969 249.206C92.0122 249.859 91.8633 250.531 91.4831 251.075C91.1028 251.618 90.5224 251.988 89.8694 252.103L63.8404 256.7C63.5167 256.757 63.185 256.75 62.8641 256.678C62.5433 256.607 62.2396 256.473 61.9706 256.285C61.7015 256.096 61.4723 255.856 61.296 255.579C61.1198 255.301 61 254.992 60.9434 254.668Z" fill="#C72F55"/>
<path d="M62.6632 264.671C62.6056 264.347 62.6124 264.016 62.6831 263.695C62.7539 263.374 62.8872 263.07 63.0754 262.801C63.2637 262.531 63.5032 262.302 63.7803 262.125C64.0574 261.948 64.3666 261.828 64.6902 261.771L90.7172 257.179C91.0433 257.115 91.3788 257.117 91.7042 257.184C92.0296 257.251 92.3383 257.383 92.6123 257.571C92.8863 257.759 93.1201 257.999 93.3 258.279C93.4799 258.558 93.6023 258.87 93.6601 259.198C93.7179 259.525 93.7098 259.86 93.6364 260.184C93.563 260.508 93.4258 260.815 93.2327 261.085C93.0396 261.355 92.7945 261.585 92.5118 261.759C92.2291 261.934 91.9144 262.05 91.5862 262.102L65.5602 266.7C65.2367 266.757 64.9052 266.75 64.5845 266.679C64.2638 266.608 63.9603 266.474 63.6912 266.286C63.4222 266.097 63.1929 265.858 63.0165 265.581C62.8401 265.304 62.7201 264.994 62.6632 264.671Z" fill="#C72F55"/>
<path d="M64.3824 274.673C64.3248 274.349 64.3316 274.018 64.4024 273.697C64.4732 273.376 64.6066 273.072 64.795 272.802C64.9834 272.533 65.223 272.303 65.5002 272.127C65.7774 271.95 66.0867 271.83 66.4104 271.773L92.4374 267.182C93.0843 267.08 93.7453 267.237 94.2782 267.617C94.8112 267.998 95.1735 268.572 95.2874 269.217C95.4012 269.862 95.2574 270.526 94.887 271.066C94.5166 271.606 93.949 271.979 93.3064 272.105L67.2794 276.7C66.9561 276.757 66.6247 276.75 66.3041 276.679C65.9835 276.608 65.6801 276.475 65.411 276.286C65.142 276.098 64.9127 275.859 64.7362 275.582C64.5597 275.305 64.4395 274.996 64.3824 274.673Z" fill="#C72F55"/>
</g>
<defs>
<clipPath id="clip0_559_7127">
<rect width="490" height="490" fill="white"/>
</clipPath>
</defs>
</svg>
