<svg width="416" height="416" viewBox="0 0 416 416" fill="none" xmlns="http://www.w3.org/2000/svg">
<path d="M383.109 268.005C380.491 287.993 374.361 307.11 364.855 324.9C351.489 349.967 331.81 371.392 307.944 386.861C307.518 387.151 307.087 387.433 306.647 387.694C279.775 404.798 248.665 413.839 216.668 413.839C186.64 413.839 157.375 405.874 131.699 390.759C120.941 406.035 108.807 414.456 95.545 415.828C94.4375 415.943 93.3309 416 92.2568 416C84.3438 416 77.3506 412.861 72.0353 406.923C55.8072 388.793 59.2733 347.923 59.9908 341.023C59.9656 339.317 59.808 332.945 58.7907 327.134C58.0505 322.909 54.6583 316.938 52.8351 313.73C52.1412 312.509 51.6464 311.638 51.2678 310.854C50.9542 310.438 50.3854 309.727 49.9467 309.179C45.0416 303.041 38.3238 294.636 41.1351 286.204C41.153 286.151 41.17 286.098 41.1887 286.046L34.3873 274.104C31.9782 269.853 31.7865 264.698 33.864 260.296C35.9383 255.897 40.0358 252.768 44.8246 251.929L45.1773 251.866H23.3357C15.0059 251.866 8.23047 245.089 8.23047 236.76V223.489C8.23047 215.159 15.0067 208.383 23.3357 208.383H53.009C54.309 202.702 55.9096 197.078 57.797 191.56C46.054 183.04 38.804 169.216 38.804 154.449C38.804 129.199 59.3465 108.656 84.5982 108.656C93.7396 108.656 102.508 111.339 109.97 116.324C111.518 115.049 113.09 113.801 114.678 112.585C114.528 112.024 113.498 108.173 113.498 108.173C113.162 106.925 112.822 105.659 112.487 104.381C103.655 102.907 96.0698 98.9796 90.7943 93.0694C82.1379 83.3657 80.4373 68.5084 86.6578 56.9376C91.4947 47.9408 100.124 41.34 109.34 39.1714C111.838 27.8013 118.99 18.8443 129.711 13.9864C135.871 11.1954 142.109 9.83775 148.781 9.83775C155.88 9.83775 162.317 11.362 168.53 12.9155C174.296 9.44206 180.923 7.56519 187.609 7.56519C189.03 7.56519 190.459 7.65212 191.855 7.82438C202.449 9.12844 212.069 15.2742 217.894 24.0874C217.906 24.0874 217.916 24.0874 217.928 24.0874C221.007 24.0874 224.124 24.6179 227.128 25.6189C234.676 10.2724 250.489 0 268.241 0C293.493 0 314.035 20.5424 314.035 45.7933C314.035 67.1726 299.309 85.1768 279.467 90.1964C284.2 92.1058 288.849 94.2354 293.404 96.5811H387.109C398.501 96.5811 407.768 105.848 407.768 117.241V226.013C407.768 230.978 403.742 235.004 398.777 235.004H384.19C384.435 238.687 384.558 242.344 384.558 245.949C384.558 248.975 384.473 252.046 384.303 255.132C384.303 255.132 383.33 266.379 383.109 268.005Z" fill="white"/>
<path d="M374.801 245.949C374.801 272.952 368.058 298.396 356.16 320.664C343.438 344.519 324.797 364.749 302.2 379.374C301.87 379.599 301.541 379.823 301.195 380.018C276.56 395.738 247.295 404.848 215.901 404.848C184.853 404.848 155.888 395.947 131.417 380.528C131.267 380.453 131.102 380.348 130.952 380.243C130.743 380.122 130.548 380.003 130.353 379.868C129.618 379.403 128.884 378.924 128.164 378.445C124.688 376.137 121.301 373.695 118.02 371.117C117.585 370.788 117.136 370.428 116.701 370.069C107.096 362.411 98.4196 353.645 90.8374 343.98C85.5025 337.177 80.7079 329.939 76.5268 322.312C76.3318 321.982 76.1523 321.638 75.9727 321.293C71.8216 313.621 68.3003 305.559 65.4386 297.182C64.1199 293.301 62.9508 289.36 61.9319 285.344C61.0479 281.928 60.2988 278.481 59.6544 274.975C58.6656 269.64 57.9466 264.201 57.5119 258.686C57.1674 254.49 57.0024 250.235 57.0024 245.949C57.0024 192.334 83.5403 144.922 124.209 116.166C127.116 114.099 130.083 112.136 133.125 110.277C133.26 110.173 133.409 110.082 133.559 110.008C137.186 107.805 140.902 105.752 144.708 103.849C145.022 103.684 145.337 103.519 145.667 103.369C149.353 101.541 153.144 99.8481 156.995 98.3198H157.01C160.097 97.0758 163.229 95.9375 166.42 94.9032C176.07 91.7263 186.14 89.4635 196.51 88.2204C197.379 88.1001 198.247 88.0108 199.117 87.9206C202.698 87.5314 206.324 87.2763 209.981 87.156C211.944 87.0658 213.922 87.0358 215.9 87.0358C216.814 87.0358 217.713 87.0504 218.627 87.0658H219.227C224.771 87.1861 230.256 87.5753 235.65 88.2496C238.677 88.6242 241.689 89.089 244.656 89.6431C318.683 103.159 374.801 167.998 374.801 245.949Z" fill="#B8B9FD"/>
<path d="M386.301 121.359L398.013 127.768V226.014H255.017V127.639L263.038 120.194L268.023 113.201L379.956 115.273L386.301 121.359Z" fill="#FEF1E4"/>
<path d="M398.013 117.24V127.692H255.017V117.24C255.017 110.789 260.234 105.571 266.686 105.571H386.344C392.795 105.571 398.013 110.789 398.013 117.24Z" fill="#FFD484"/>
<path d="M360.02 120.886C361.979 120.886 363.567 119.298 363.567 117.34C363.567 115.381 361.979 113.793 360.02 113.793C358.061 113.793 356.474 115.381 356.474 117.34C356.474 119.298 358.061 120.886 360.02 120.886Z" fill="#FF470C"/>
<path d="M371.37 120.886C373.329 120.886 374.916 119.298 374.916 117.34C374.916 115.381 373.329 113.793 371.37 113.793C369.411 113.793 367.823 115.381 367.823 117.34C367.823 119.298 369.411 120.886 371.37 120.886Z" fill="#FFB4DC"/>
<path d="M383.125 120.886C385.084 120.886 386.672 119.298 386.672 117.34C386.672 115.381 385.084 113.793 383.125 113.793C381.166 113.793 379.579 115.381 379.579 117.34C379.579 119.298 381.166 120.886 383.125 120.886Z" fill="#B8B9FD"/>
<path d="M390.289 214.527H267.933C267.464 214.527 267.084 214.147 267.084 213.677V147.726C267.084 147.256 267.464 146.875 267.933 146.875C268.402 146.875 268.782 147.256 268.782 147.726V212.826H390.289C390.758 212.826 391.138 213.206 391.138 213.677C391.138 214.147 390.759 214.527 390.289 214.527Z" fill="#040308"/>
<path d="M305.827 163.201H289.049V208.326H305.827V163.201Z" fill="#FFD484"/>
<path d="M339.38 154.524H322.603V208.326H339.38V154.524Z" fill="#FFB4DC"/>
<path d="M374.091 146.425H357.314V208.326H374.091V146.425Z" fill="#B8B9FD"/>
<path d="M290.784 154.506C290.395 154.506 290.045 154.236 289.956 153.842C289.853 153.382 290.142 152.928 290.599 152.826L357.707 137.785C358.164 137.683 358.619 137.971 358.722 138.428C358.825 138.888 358.536 139.342 358.078 139.444L290.971 154.485C290.907 154.499 290.845 154.506 290.784 154.506Z" fill="#040308"/>
<path d="M350.082 145.54C349.805 145.54 349.532 145.402 349.368 145.152C349.113 144.758 349.224 144.232 349.619 143.977L358.354 138.309L346.22 136.853C345.754 136.797 345.421 136.375 345.478 135.908C345.533 135.443 345.946 135.089 346.422 135.167L360.885 136.902C361.241 136.944 361.531 137.205 361.612 137.554C361.693 137.902 361.547 138.263 361.246 138.459L350.543 145.402C350.402 145.496 350.241 145.54 350.082 145.54Z" fill="#040308"/>
<path d="M267.476 82.5971C287.802 82.5971 304.279 66.1198 304.279 45.7941C304.279 25.4684 287.802 8.99109 267.476 8.99109C247.151 8.99109 230.673 25.4684 230.673 45.7941C230.673 66.1198 247.151 82.5971 267.476 82.5971Z" fill="#B8B9FD"/>
<path d="M261.479 35.8166C261.479 35.8166 259.343 21.437 262.618 21.1518C265.892 20.8675 273.153 35.3893 273.153 35.3893L280.273 36.2432L278.991 65.2876C278.991 65.2876 245.961 66.4268 244.964 63.0094C243.967 59.592 244.679 56.6028 244.679 56.6028C244.679 56.6028 242.259 52.4737 242.828 50.0533C243.398 47.6328 244.537 45.4976 244.537 45.4976C244.537 45.4976 242.971 41.0841 243.398 38.3785C243.825 35.6736 248.523 35.3885 251.086 35.5315C253.648 35.6745 261.479 35.8166 261.479 35.8166Z" fill="#FEF1E4"/>
<path d="M292.943 65.6403H292.941L273.097 65.3551C272.981 65.3535 272.889 65.2584 272.89 65.1431C272.892 65.0269 272.986 64.9505 273.102 64.9359L292.739 65.2186L293.3 37.1516L273.283 35.8833C273.167 35.876 273.08 35.7769 273.087 35.6615C273.095 35.5461 273.196 35.4673 273.309 35.4657L293.526 36.7462C293.638 36.7535 293.724 36.8478 293.723 36.9591L293.153 65.4348C293.151 65.5493 293.057 65.6403 292.943 65.6403Z" fill="#FEF1E4"/>
<path d="M120.636 154.45C120.636 134.124 104.158 117.648 83.8328 117.648C63.5073 117.648 47.0298 134.124 47.0298 154.45C47.0298 173.566 61.606 189.274 80.2497 191.076L74.3509 208.436L89.2229 190.856C106.992 188.247 120.636 172.944 120.636 154.45Z" fill="#0060FF"/>
<path d="M110.306 139.728H58.5786V169.069H110.306V139.728Z" fill="#FEF1E4"/>
<path d="M84.5512 156.568C84.5113 156.568 84.4707 156.557 84.4366 156.535L58.4642 139.908C58.3651 139.845 58.3358 139.713 58.3992 139.614C58.465 139.516 58.5975 139.487 58.6933 139.549L84.5503 156.101L110.19 139.549C110.287 139.486 110.421 139.516 110.485 139.613C110.549 139.713 110.519 139.843 110.421 139.908L84.6665 156.535C84.6308 156.555 84.5918 156.568 84.5512 156.568Z" fill="#040308"/>
<path d="M58.5788 169.282C58.5122 169.282 58.4472 169.25 58.4057 169.192C58.3383 169.095 58.3602 168.963 58.4561 168.894L80.0816 153.571C80.1783 153.505 80.3115 153.529 80.3782 153.623C80.4456 153.719 80.4237 153.852 80.3278 153.92L58.7023 169.243C58.6641 169.269 58.6219 169.282 58.5788 169.282Z" fill="#040308"/>
<path d="M110.306 169.282C110.26 169.282 110.213 169.266 110.175 169.236L89.8545 153.262C89.7619 153.19 89.7456 153.055 89.8188 152.963C89.8927 152.873 90.0268 152.857 90.1169 152.928L110.438 168.902C110.53 168.975 110.546 169.109 110.473 169.201C110.431 169.253 110.369 169.282 110.306 169.282Z" fill="#040308"/>
<path d="M356.16 320.664C343.438 344.52 324.796 364.749 302.199 379.374C301.869 379.599 301.54 379.823 301.195 380.018C276.56 395.738 247.294 404.848 215.901 404.848C184.852 404.848 155.887 395.948 131.416 380.528C131.267 380.453 131.102 380.348 130.952 380.243L130.831 373.709L130.457 352.805L129.738 349.149L107.5 237.018C123.893 196.469 162.734 177.738 170.751 173.887C171.71 173.422 171.77 171.715 171.77 171.715L202.204 167.489L241.539 162.034C241.539 162.034 299.815 190.086 332.467 240.075C345.415 259.9 352.413 290.694 356.16 320.664Z" fill="#FF470C"/>
<path d="M107.5 237.015C107.5 237.015 93.8541 268.77 87.3501 291.726C80.846 314.681 68.2206 341.462 68.2206 341.462C68.2206 341.462 60.5684 410.329 93.8541 406.885C127.139 403.442 144.356 340.315 144.356 340.315L107.5 237.015Z" fill="#FF470C"/>
<path d="M117.766 373.171C117.512 373.171 117.288 372.988 117.247 372.729C114.431 355.461 96.8675 332.641 96.6904 332.413C96.5125 332.182 96.5539 331.851 96.7847 331.673C97.0154 331.493 97.3461 331.538 97.5249 331.766C97.7036 331.998 115.43 355.03 118.287 372.559C118.335 372.846 118.14 373.118 117.852 373.165C117.823 373.169 117.794 373.171 117.766 373.171Z" fill="#040308"/>
<path d="M106.483 311.238L105.224 311.657L104.864 311.777L71.658 322.717L41.4338 269.656C39.3961 266.059 41.524 261.504 45.615 260.785L71.8985 256.14L72.3235 256.201L72.5428 256.049C74.8958 255.87 77.1733 257.083 78.3124 259.181L106.483 311.238Z" fill="#040308"/>
<path d="M105.224 311.658L104.864 311.778C96.8474 296.553 88.5607 280.849 80.0498 265.505C78.866 263.377 77.5326 260.965 75.7338 259.032C74.5654 257.758 73.2613 256.785 71.8979 256.14L72.0028 256.126C72.1823 256.096 72.3627 256.066 72.5423 256.051C73.7708 256.695 74.9546 257.624 76.0189 258.778C77.8324 260.741 79.1804 263.183 80.3642 265.327C88.876 280.714 97.1927 296.418 105.224 311.658Z" fill="#FEF1E4"/>
<path d="M72.7969 262.402C72.3623 262.118 71.8674 262.013 71.358 262.103L63.7156 263.526C62.6813 263.721 61.9923 264.71 62.1873 265.743C62.2775 266.253 62.5619 266.687 62.9811 266.973C63.311 267.198 63.6856 267.303 64.0601 267.303C64.1804 267.303 64.2998 267.303 64.4201 267.272L72.0624 265.849C72.5573 265.759 72.9919 265.474 73.2909 265.055C73.5761 264.635 73.6809 264.126 73.5908 263.632C73.5014 263.121 73.2162 262.687 72.7969 262.402ZM72.9765 264.845C72.7368 265.175 72.3923 265.414 71.9877 265.489L64.3453 266.913C63.9407 266.987 63.5361 266.898 63.1916 266.657C62.8617 266.432 62.6374 266.088 62.5619 265.683C62.3969 264.844 62.9511 264.05 63.7758 263.885L71.4328 262.462C71.5229 262.447 71.6123 262.447 71.7171 262.447C72.0169 262.447 72.3168 262.537 72.5711 262.717C72.9156 262.941 73.1406 263.286 73.2154 263.691C73.2918 264.096 73.2016 264.5 72.9765 264.845Z" fill="#FEF1E4"/>
<path d="M68.2205 341.462C68.2205 341.462 68.2205 333.236 66.8815 325.585C65.5425 317.933 59.2293 308.56 58.4648 306.647C57.6994 304.734 47.1783 294.212 48.9 289.047C50.6217 283.882 59.9955 272.022 63.4381 273.934C66.8815 275.848 59.0384 292.108 59.0384 292.108L63.7574 297.974C63.7574 297.974 71.6647 294.02 76.8289 293.064C81.994 292.108 101.697 287.133 102.272 290.769C102.845 294.403 74.5336 305.689 74.5336 305.689L75.6817 307.411C75.6817 307.411 111.645 294.212 113.75 298.229C115.854 302.246 87.9537 315.451 87.9537 315.451C87.9537 315.451 110.498 305.116 112.22 307.985C113.941 310.855 96.7246 323.289 96.7246 323.289C96.7246 323.289 98.829 337.827 92.7076 342.801C86.5862 347.775 72.0465 346.054 68.2205 341.462Z" fill="#FFB4DC"/>
<path d="M131.417 380.528C131.268 380.453 131.103 380.348 130.953 380.243C130.743 380.122 130.548 380.003 130.353 379.868L130.248 374.788L129.739 349.149L128.675 296.372L128.136 269.549C128.136 269.249 128.361 269.01 128.66 269.01C128.945 268.995 129.185 269.235 129.199 269.519L129.799 299.518L131.267 372.899L131.417 380.528Z" fill="#040308"/>
<path d="M292.939 269.49L302.2 379.373C301.87 379.598 301.541 379.823 301.196 380.018L291.89 269.58C291.876 269.296 292.085 269.041 292.37 269.011C292.67 268.98 292.924 269.206 292.939 269.49Z" fill="#040308"/>
<path d="M170.368 22.828C158.181 19.9046 146.609 15.8543 132.656 22.1771C122.243 26.8953 116.91 36.1635 116.596 47.4613C107.38 46.6773 98.1917 53.0505 93.8115 61.1966C89.4321 69.3428 90.5794 80.1831 96.7373 87.0845C101.824 92.785 109.606 95.5045 117.232 95.9676C124.858 96.4307 132.448 94.8732 139.91 93.2303C142.051 92.759 143.673 90.6603 145.129 89.0199C153.59 79.495 160.974 69.0145 167.097 57.8427C169.932 52.6703 172.52 47.2866 173.771 41.5228C175.022 35.7573 172.886 28.1612 170.368 22.828Z" fill="#0060FF"/>
<path d="M164.38 27.9386C170.096 20.0094 180.29 15.5553 189.992 16.7497C199.693 17.9432 208.504 24.7349 212.127 33.8138C220.999 31.1204 231.362 36.1189 235.935 44.1846C240.508 52.2502 239.963 62.5893 235.888 70.9182C241.812 76.3335 244.876 84.292 244.731 92.3162C244.434 108.769 233.774 124.584 218.634 131.031C204.467 96.0757 185.501 59.1857 164.38 27.9386Z" fill="#0060FF"/>
<path d="M241.541 162.034C241.541 162.034 230.437 196.844 197.53 190.34C197.53 190.34 181.946 188.303 172.461 176.255C171.861 175.506 171.292 174.727 170.753 173.887L169.074 168.552L164.639 154.377L219.723 114.592L241.541 162.034Z" fill="#FFB4DC"/>
<path d="M207.945 159.292C203.18 168.448 194.593 175.85 184.478 177.948C182.021 178.458 179.459 178.653 177.001 178.143C175.398 177.813 173.84 177.154 172.461 176.255C171.861 175.506 171.292 174.727 170.753 173.887L169.074 168.552C182.111 153.988 195.477 138.223 212.68 129.142C213.909 139.393 212.71 150.122 207.945 159.292Z" fill="#040308"/>
<path d="M156.649 167.853C184.796 175.922 219.685 158.812 220.312 125.647C220.575 111.267 219.964 100.146 219.192 92.1765C218.745 87.5306 218.22 83.9556 217.807 81.4222C217.601 77.8911 217.061 74.3421 216.093 70.824C208.764 44.2033 181.125 28.6 154.361 35.9686C143.359 38.9976 134.234 45.4261 127.79 53.807C122.251 61.0106 118.708 69.6686 117.684 78.7036C116.512 89.0597 119.542 98.7382 122.154 108.601C124.109 115.981 126.099 123.313 128.718 130.5C133.319 143.127 139.796 159.05 152.19 165.971C153.603 166.759 155.092 167.406 156.649 167.853Z" fill="#FFB4DC"/>
<path d="M152.728 135.238C152.655 135.238 152.582 135.224 152.514 135.193C152.365 135.127 152.255 134.997 152.216 134.838C149.576 124.214 146.963 113.427 144.449 102.775C144.382 102.491 144.557 102.207 144.841 102.139C145.126 102.081 145.409 102.247 145.475 102.532C147.936 112.957 150.492 123.512 153.074 133.916C155.238 132.68 157.204 131.14 158.926 129.333C159.127 129.122 159.461 129.117 159.672 129.315C159.882 129.516 159.891 129.85 159.69 130.062C157.734 132.113 155.475 133.834 152.977 135.176C152.9 135.218 152.814 135.238 152.728 135.238Z" fill="#040308"/>
<path d="M162.828 140.281C160.9 140.281 159.314 138.656 158.719 138.047C158.516 137.837 158.52 137.504 158.729 137.3C158.936 137.099 159.27 137.101 159.475 137.309C161.139 139.014 162.5 139.56 163.756 139.036C165.414 138.34 165.572 136.295 165.592 134.261C165.595 133.971 165.845 133.756 166.125 133.74C166.416 133.743 166.651 133.981 166.647 134.273C166.629 136.035 166.599 138.985 164.165 140.008C163.707 140.199 163.258 140.281 162.828 140.281Z" fill="#040308"/>
<path d="M138.169 112.511C138.727 114.486 137.792 116.479 136.08 116.963C134.369 117.446 132.529 116.237 131.971 114.262C131.412 112.287 132.348 110.294 134.06 109.81C135.771 109.327 137.611 110.536 138.169 112.511Z" fill="#040308"/>
<path d="M168.393 101.224C168.951 103.2 168.016 105.193 166.304 105.676C164.592 106.16 162.753 104.951 162.195 102.975C161.637 101 162.572 99.0071 164.284 98.5237C165.996 98.0402 167.836 99.2492 168.393 101.224Z" fill="#040308"/>
<path d="M121.715 99.6587C121.389 100.508 121.212 101.534 121.739 102.275C122.298 103.061 123.406 103.195 124.368 103.126C125.546 103.043 126.703 102.763 127.828 102.401C130.241 101.625 132.65 100.355 133.951 98.1792C134.635 97.0352 134.927 95.4671 134.091 94.4279C133.796 94.0606 133.389 93.799 132.964 93.5959C128.761 91.5914 123.19 95.8164 121.715 99.6587Z" fill="#0060FF"/>
<path d="M155.382 94.8764C155.056 95.7255 154.879 96.7516 155.406 97.4926C155.965 98.2783 157.074 98.4124 158.036 98.3441C159.214 98.2605 160.371 97.9801 161.495 97.6186C163.908 96.8426 166.317 95.5727 167.618 93.3968C168.302 92.2528 168.594 90.6847 167.759 89.6455C167.464 89.2783 167.056 89.0166 166.631 88.8135C162.43 86.8091 156.858 91.0341 155.382 94.8764Z" fill="#0060FF"/>
<path d="M220.124 78.0683C224.166 77.2558 228.493 78.7816 231.482 81.6221C234.472 84.4626 236.184 88.4853 236.668 92.5803C237.764 101.849 232.264 111.521 223.738 115.319C221.589 116.277 219.19 116.892 216.879 116.444C213.782 115.845 211.284 113.38 209.949 110.521C208.614 107.663 208.287 104.441 208.217 101.287C208.019 92.3228 209.148 80.2734 220.124 78.0683Z" fill="#FFB4DC"/>
<path d="M218.929 102.586C218.885 102.586 218.841 102.582 218.796 102.57C218.491 102.497 218.305 102.191 218.378 101.887C218.929 99.5963 219.499 97.2271 220.482 95.0073C221.608 92.4658 223.115 90.5191 224.962 89.2231C225.218 89.0444 225.572 89.1061 225.752 89.3621C225.932 89.618 225.87 89.9706 225.614 90.151C223.938 91.3259 222.56 93.1158 221.519 95.4672C220.578 97.5919 220.02 99.9099 219.48 102.153C219.418 102.412 219.185 102.586 218.929 102.586Z" fill="#040308"/>
<path d="M171.556 21.7295C165.746 24.4229 160.217 27.9703 156.092 32.8681C151.967 37.7666 149.349 44.1383 149.831 50.5245C150.087 53.9191 151.324 57.4072 153.971 59.5498C157.878 62.7128 163.935 62.0051 167.962 58.9956C167.191 63.596 166.643 68.3101 167.543 72.8878C168.442 77.4654 171.383 81.9406 175.844 83.304C179.08 84.2928 182.682 83.5023 185.572 81.7408C188.462 79.9801 190.715 77.3329 192.574 74.5054C192.361 79.0384 193.361 83.5486 195.869 87.3299C198.377 91.1113 202.712 93.8283 207.247 93.6869C209.123 93.6284 210.965 93.0987 212.665 92.3033C221.355 88.2367 225.451 77.5531 224.334 68.0225C223.217 58.4919 217.909 49.9801 212.004 42.4174C207.245 36.3228 201.934 30.5394 195.467 26.3014C188.999 22.0626 178.571 18.4771 171.556 21.7295Z" fill="#0060FF"/>
<path d="M22.5709 217.374H86.3237C89.7013 217.374 92.4386 220.112 92.4386 223.489V236.76C92.4386 240.138 89.7005 242.875 86.3237 242.875H68.5373L70.0599 256.145L60.2701 242.875H22.5709C19.1934 242.875 16.4561 240.137 16.4561 236.76V223.489C16.4561 220.112 19.1934 217.374 22.5709 217.374Z" fill="#FEF1E4"/>
<path d="M41.4932 229.762C41.4932 231.356 40.2013 232.647 38.6072 232.647C37.0139 232.647 35.7212 231.355 35.7212 229.762C35.7212 228.168 37.0131 226.876 38.6072 226.876C40.2005 226.877 41.4932 228.169 41.4932 229.762Z" fill="#B8B9FD"/>
<path d="M52.1802 229.762C52.1802 231.356 50.8883 232.647 49.2942 232.647C47.7009 232.647 46.4082 231.355 46.4082 229.762C46.4082 228.168 47.7001 226.876 49.2942 226.876C50.8883 226.877 52.1802 228.169 52.1802 229.762Z" fill="#B8B9FD"/>
<path d="M62.8677 229.762C62.8677 231.356 61.5758 232.647 59.9817 232.647C58.3884 232.647 57.0957 231.355 57.0957 229.762C57.0957 228.168 58.3876 226.876 59.9817 226.876C61.5758 226.877 62.8677 228.169 62.8677 229.762Z" fill="#B8B9FD"/>
<path d="M73.5552 229.762C73.5552 231.356 72.2633 232.647 70.6692 232.647C69.0759 232.647 67.7832 231.355 67.7832 229.762C67.7832 228.168 69.0751 226.876 70.6692 226.876C72.2633 226.877 73.5552 228.169 73.5552 229.762Z" fill="#B8B9FD"/>
<path d="M130.597 177.618L137.984 179.891L130.597 182.163L128.324 189.551L126.051 182.163L118.664 179.891L126.051 177.618L128.324 170.23L130.597 177.618Z" fill="#FEF1E4"/>
<path d="M105.305 205.522L110.695 207.18L105.305 208.839L103.647 214.228L101.989 208.839L96.5986 207.18L101.989 205.522L103.647 200.132L105.305 205.522Z" fill="#FEF1E4"/>
<path d="M348.532 235.364L353.922 237.022L348.532 238.68L346.875 244.07L345.216 238.68L339.826 237.022L345.216 235.364L346.875 229.974L348.532 235.364Z" fill="#FEF1E4"/>
<path d="M370.705 259.141L376.716 260.99L370.705 262.84L368.856 268.851L367.007 262.84L360.996 260.99L367.007 259.141L368.856 253.13L370.705 259.141Z" fill="#FEF1E4"/>
<path d="M246.149 134.585L252.16 136.434L246.149 138.283L244.3 144.294L242.45 138.283L236.439 136.434L242.45 134.585L244.3 128.573L246.149 134.585Z" fill="#FEF1E4"/>
<path d="M357.413 284.039L364.789 286.309L357.413 288.578L355.144 295.955L352.874 288.578L345.498 286.309L352.874 284.039L355.144 276.664L357.413 284.039Z" fill="#FEF1E4"/>
</svg>
